<svg id="logo" xmlns="http://www.w3.org/2000/svg" viewBox="0 0 115.76 131.24"><defs><style>.cls-1{fill:#641611;}</style></defs><path class="cls-1" d="M111.18,65.62a29.49,29.49,0,0,0-3.69-36.38,32.84,32.84,0,0,0-7.65-5.84,36.06,36.06,0,0,0-8.74-3.47,42,42,0,0,0-8.52-1.25,27.41,27.41,0,0,0-.8-2.69,24.69,24.69,0,0,0-2.17-4.64A22.87,22.87,0,0,0,76.39,7.2a23.11,23.11,0,0,0-8.77-5.58,30.06,30.06,0,0,0-19.47,0A23.11,23.11,0,0,0,39.38,7.2a23.38,23.38,0,0,0-3.23,4.15A25.33,25.33,0,0,0,34,16c-.31.9-.57,1.8-.79,2.7a41.62,41.62,0,0,0-8.47,1.23A35.6,35.6,0,0,0,16,23.37a33,33,0,0,0-7.66,5.82A29.33,29.33,0,0,0,.15,46.73a29.8,29.8,0,0,0,4.4,18.83l0,.06A29.83,29.83,0,0,0,.13,84.27a29.3,29.3,0,0,0,8,17.6,32.63,32.63,0,0,0,7.62,5.89,36.28,36.28,0,0,0,8.73,3.51,41.57,41.57,0,0,0,8.69,1.29,26,26,0,0,0,.78,2.66,23.61,23.61,0,0,0,5.38,8.8,23.16,23.16,0,0,0,8.77,5.6,30.24,30.24,0,0,0,19.47,0,23.28,23.28,0,0,0,8.78-5.57,23,23,0,0,0,3.22-4.15,24.45,24.45,0,0,0,2.18-4.64,27.22,27.22,0,0,0,.81-2.72,41.66,41.66,0,0,0,8.62-1.28,35.72,35.72,0,0,0,8.74-3.49,32.8,32.8,0,0,0,7.63-5.87,29.29,29.29,0,0,0,8.06-17.58,29.83,29.83,0,0,0-4.45-18.72ZM82.69,19.15A41.4,41.4,0,0,1,91,20.38a35.54,35.54,0,0,1,8.63,3.42,32.67,32.67,0,0,1,7.54,5.76,28.79,28.79,0,0,1,8,17.28A29.34,29.34,0,0,1,110.9,65.2c-.31-.46-.62-.91-1-1.35A27.83,27.83,0,0,0,113.66,47a27.24,27.24,0,0,0-7.59-16.38,30.72,30.72,0,0,0-7.19-5.48,33.84,33.84,0,0,0-8.27-3.29A39.56,39.56,0,0,0,83,20.68l-.47,0-.64,0-.91,0a43.74,43.74,0,0,0-6.78.5l-1,.15-.5.1-.45.08a49.33,49.33,0,0,0-7.41,2q-2.4.85-4.72,1.89l-.35-.18-1.36-.7A61.5,61.5,0,0,1,64.33,22a51.6,51.6,0,0,1,7.51-2l.46-.09.64-.12.86-.13a44.57,44.57,0,0,1,6.85-.54c.42,0,.85,0,1.27,0h.29ZM98.38,64.69q.65.44,1.26.93a19,19,0,0,1,4.14,4.62c.1.16.2.32.29.48.27.43.51.88.74,1.34.07.14.15.28.21.42a21.25,21.25,0,0,1,1.93,11,20.63,20.63,0,0,1-5.68,12.39A26,26,0,0,1,89,102.85a32.84,32.84,0,0,1-5.51.92c0-.5,0-1,0-1.51a32,32,0,0,0,5.18-.87,24.48,24.48,0,0,0,11.55-6.53,19.15,19.15,0,0,0,5.28-11.49,19.88,19.88,0,0,0-1.66-10l-.2-.42q-.33-.69-.72-1.35l-.36-.58a17.44,17.44,0,0,0-4.13-4.51c-.43-.33-.88-.64-1.34-.93l-.44-.27a17.67,17.67,0,0,0-4-1.73,10.93,10.93,0,0,0-1.31-.34c0-.52-.08-1.05-.14-1.57.64.13,1.27.28,1.88.46a19.12,19.12,0,0,1,5,2.25Zm-15,36.46c-.07-.76-.14-1.51-.23-2.26L83,97.78l-.08-.56-.12-.64a26.46,26.46,0,0,0-1.88-5.88,43.29,43.29,0,0,0,5.25-6.87,37.74,37.74,0,0,0,2.64-5.19c.68,0,1.36-.14,2-.22l1.2-.16L93.24,78l1.2-.26c.4-.09.79-.23,1.18-.35a28,28,0,0,0,7.78-3.71A19.24,19.24,0,0,1,105,83.33a18.66,18.66,0,0,1-5.15,11.21,24,24,0,0,1-11.34,6.4,30.63,30.63,0,0,1-5.08.86C83.4,101.58,83.39,101.36,83.38,101.15ZM73.8,111.61c0,.15-.09.29-.14.44A14.89,14.89,0,0,1,70.14,118a14.43,14.43,0,0,1-5.49,3.46,21.41,21.41,0,0,1-13.58,0,14.51,14.51,0,0,1-5.48-3.48,15.07,15.07,0,0,1-3.48-5.89l.64-.1q.44-.06.87-.15a13.13,13.13,0,0,0,3.05,5.08A12.93,12.93,0,0,0,51.59,120a20,20,0,0,0,12.55,0,13,13,0,0,0,4.93-3.1,13.31,13.31,0,0,0,3.08-5.11c0-.14.1-.29.14-.44.15-.47.29-1,.4-1.46a22.41,22.41,0,0,0,.56-4.48c0-.75,0-1.51,0-2.28l-.06-1.22c0-.12,0-.23,0-.34s0-.32,0-.48c0-.32,0-.64-.09-1l-.13-.89-.06-.45-.07-.36c0-.12-.06-.26-.09-.38l1.32-1c.1.37.19.74.26,1.11l.08.4.06.46.13.93c.06.48.1,1,.14,1.44,0,.13,0,.27,0,.41v.06c0,.51.06,1,.07,1.54a20.42,20.42,0,0,1,0,2.07,24.05,24.05,0,0,1-.57,4.67C74.08,110.63,74,111.13,73.8,111.61Zm-31.27-8.47q-.6.12-1.2.21l-.33.05a39.35,39.35,0,0,1-6.76.48h-.3c-.4,0-.81,0-1.21-.07l-.46,0a33.33,33.33,0,0,1-5.55-.93,25.91,25.91,0,0,1-12.25-7,20.69,20.69,0,0,1-5.66-12.4,21.28,21.28,0,0,1,1.93-11l.51.4c.24.18.48.36.73.53a19.73,19.73,0,0,0-1.66,9.92,19.06,19.06,0,0,0,5.24,11.49,24.31,24.31,0,0,0,11.54,6.55,30.45,30.45,0,0,0,5.22.89l.46,0c.4,0,.8.06,1.21.07.1,0,.2,0,.3,0a36.17,36.17,0,0,0,6.79-.5h0c.52-.08,1-.18,1.54-.28l.47-.1,1.52-.35,1.75-.5.28-.08,1.63,1.06c-.49.16-1,.34-1.47.47l-1.81.51c-.67.16-1.33.31-2,.45ZM17.39,66.55a14.62,14.62,0,0,1-1.26-.93,18.8,18.8,0,0,1-4.21-4.72c-.08-.12-.15-.25-.23-.38-.26-.43-.51-.88-.74-1.34l-.21-.42A21.26,21.26,0,0,1,8.82,47.61a20.6,20.6,0,0,1,5.76-12.36A24.31,24.31,0,0,1,20.2,31a27.27,27.27,0,0,1,6.69-2.64,32.47,32.47,0,0,1,5.38-.89c0,.51,0,1,0,1.52a30.42,30.42,0,0,0-5.05.84,25.09,25.09,0,0,0-6.34,2.5,22.59,22.59,0,0,0-5.26,4,19.11,19.11,0,0,0-5.34,11.46A19.64,19.64,0,0,0,12,57.83c.06.15.13.29.2.43.22.45.46.9.72,1.34l.29.49a17.55,17.55,0,0,0,4.19,4.6c.43.33.88.64,1.34.93l.45.27a17.66,17.66,0,0,0,3.9,1.7c.46.14.93.26,1.41.37,0,.52.09,1.05.14,1.57-.67-.13-1.34-.3-2-.49a19.51,19.51,0,0,1-4.84-2.22Zm15-36.42c.07.75.14,1.51.23,2.25l.15,1.11.08.56.13.67L33.26,36l.38,1.26.19.63.23.59.47,1.18c.12.27.25.53.37.79a43.85,43.85,0,0,0-5.4,7.07,37.73,37.73,0,0,0-2.54,5c-.22,0-.44,0-.67,0l-1.2.15-1.2.16c-.4.06-.8.16-1.2.24a22.4,22.4,0,0,0-2.38.6,28.12,28.12,0,0,0-7.95,3.76,19.28,19.28,0,0,1-1.57-9.75A18.63,18.63,0,0,1,16,36.62a22.14,22.14,0,0,1,5.15-3.89,25,25,0,0,1,6.23-2.46,30.5,30.5,0,0,1,5-.82C32.36,29.67,32.38,29.9,32.39,30.13Zm8.69-.66v-.08c0-.52-.06-1-.08-1.54,0-.69,0-1.37,0-2.05a25,25,0,0,1,.58-4.7q.16-.75.39-1.47c0-.15.09-.29.14-.44a14.84,14.84,0,0,1,3.5-5.9,14.49,14.49,0,0,1,5.48-3.47,21.51,21.51,0,0,1,13.58,0,14.53,14.53,0,0,1,5.49,3.47,14.93,14.93,0,0,1,3.5,5.91l-.8.12-.71.13a13.33,13.33,0,0,0-3.07-5.1,13.13,13.13,0,0,0-4.92-3.11,20,20,0,0,0-12.56,0,13.09,13.09,0,0,0-4.91,3.11,13.35,13.35,0,0,0-3.08,5.1c0,.15-.09.3-.14.44-.15.48-.28,1-.4,1.47a23.17,23.17,0,0,0-.56,4.49c0,.74,0,1.5,0,2.27,0,.41,0,.82.06,1.23l0,.33c0,.15,0,.31.05.47,0,.33.06.66.1,1l.12.89.06.45.08.34.08.38-1.31,1-.1-.32-.16-.77-.08-.39-.06-.46-.13-.93c-.06-.49-.1-1-.15-1.46C41.11,29.73,41.1,29.6,41.08,29.47Zm22.17-1.89c1.21.71,2.42,1.44,3.61,2.19l.09.06q.81.51,1.62,1.05l.48.33c1,.69,2.07,1.41,3.08,2.16a13.58,13.58,0,0,1-.52,1.51c-1.43-1.07-2.89-2.09-4.36-3.06l-.48-.31-1.61-1C63.09,29.22,61,28,58.84,26.87c-.31-.17-.64-.32-1-.49-.56-.28-1.12-.56-1.7-.82l-.53-.25C54.13,24.63,52.57,24,51,23.44a48.65,48.65,0,0,0-7.47-2c.12-.5.25-1,.4-1.46a50.85,50.85,0,0,1,7.57,2c2,.72,4,1.52,5.88,2.42l.51.26c.56.27,1.12.55,1.67.85l0,0c.65.32,1.24.66,1.84,1Zm17,12.94c-.24.49-.5,1-.76,1.41-.35.62-.71,1.22-1.09,1.8-.9,1.38-1.86,2.68-2.85,3.91-.32.41-.65.8-1,1.19l-.3.36c-.43.51-.87,1-1.32,1.51-1.92,2.13-3.91,4.12-5.94,6l-1.3,1.19-1.2-1c.49-.44,1-.88,1.46-1.34,2-1.88,4-3.84,5.86-5.93.49-.54,1-1.09,1.44-1.64.1-.12.19-.25.29-.36.33-.39.65-.79,1-1.19.91-1.14,1.78-2.33,2.6-3.59.44-.68.87-1.39,1.27-2.12.25-.46.49-.93.72-1.42.07-.14.15-.29.22-.44a22.05,22.05,0,0,0,1.49-4.57l.12-.61.07-.54.15-1.07c.09-.72.15-1.44.22-2.16,0-.21,0-.42,0-.64.5,0,1,0,1.51.08,0,.22,0,.45,0,.67-.07.75-.14,1.5-.23,2.24l-.15,1.1-.07.55-.14.67a22.68,22.68,0,0,1-1.85,5.43Zm11,23.24a7.47,7.47,0,0,1,1.15.3,17.7,17.7,0,0,1,3.69,1.56,17.15,17.15,0,0,1-3.63,1.54c-.25.07-.49.18-.75.23l-.46.1c0-.59,0-1.17.06-1.75S91.35,64.42,91.31,63.76ZM91.09,68l.19,0,.61-.13a7.49,7.49,0,0,0,.77-.23,17.73,17.73,0,0,0,3.94-1.71c.47.29.93.6,1.37.93a19,19,0,0,1-4.87,2.23c-.64.19-1.3.35-2,.48a3.89,3.89,0,0,1-.47.09c-.51.1-1,.17-1.55.23a24.29,24.29,0,0,1-3,.15,16.53,16.53,0,0,1-3.8-.55q-.74-.18-1.47-.42l-.45-.14-1-.36a39.67,39.67,0,0,1-3.95-1.79c.55-.3,1.1-.59,1.66-.86.94.46,1.88.88,2.82,1.24l.63.23.45.15c.49.16,1,.31,1.48.44a15.69,15.69,0,0,0,3.64.55,5.41,5.41,0,0,0,.8,0l.84,0a11.49,11.49,0,0,0,1.45-.14l.2,0,.82-.1.52-.12ZM88.42,78.2l-1.18,0h-.41a7.11,7.11,0,0,1-.8,0,26.11,26.11,0,0,1-6.2-.93l-1.48-.44-.44-.15-1.39-.49a52.68,52.68,0,0,1-8-4l-.8-.5,1.32-1,.26.16a50.93,50.93,0,0,0,7.76,3.84l1.52.53.44.14c.48.16,1,.3,1.47.43a24.45,24.45,0,0,0,5.56.81l1.39,0c.55,0,1.09,0,1.63-.1l.51,0a28.75,28.75,0,0,0,5.47-1.07,26.13,26.13,0,0,0,7.44-3.6q.39.66.72,1.35A27.56,27.56,0,0,1,95.49,77a12,12,0,0,1-1.17.34l-1.17.26L92,77.81,90.78,78c-.59.07-1.19.16-1.78.2l-.51,0Zm-9.69,1.08a32.07,32.07,0,0,1-2.59,3.63l-.3.36c-.32.39-.66.78-1,1.16a48.65,48.65,0,0,1-4.92,4.69l-1.18,1-.12.09-.24.19q-2.91,2.25-6.09,4.24c-.79.5-1.6,1-2.41,1.46l-.42-.23-1.1-.62c1-.62,2.11-1.24,3.13-1.89,2.08-1.31,4.08-2.7,6-4.17l.22-.17.14-.11,1.18-1a47.33,47.33,0,0,0,4.89-4.69c.35-.39.68-.78,1-1.17l.3-.37a33,33,0,0,0,2.26-3.19c.24-.39.46-.79.68-1.19.49.16,1,.31,1.48.45C79.34,78.26,79.05,78.78,78.73,79.28ZM72.29,98.52l.07.34.06.44.12.89c0,.27.06.53.08.8l-1.4-.32-1.61-.46q1.33-.9,2.64-1.86C72.26,98.41,72.28,98.46,72.29,98.52Zm-2.93,2.1,1.74.49,1.57.37c0,.15,0,.31,0,.47l.06,1.09c-.69-.14-1.37-.3-2-.46l-1.81-.51c-.48-.13-1-.3-1.42-.46l-.37-.13-.18-.07c-.6-.21-1.19-.43-1.79-.66a46.21,46.21,0,0,1-5-2.28c-.56-.28-1.14-.6-1.71-.92l-.61-.34-1.1-.62-.43-.25-.45-.28c-.83-.48-1.66-1-2.46-1.49q-3.15-2-6-4.21c.29-.41.59-.81.91-1.21q2.82,2.19,5.93,4.14c1,.66,2.11,1.29,3.18,1.92l.12.07.34.19,1.34.76.19.11c.51.28,1,.55,1.49.79a44.88,44.88,0,0,0,5.86,2.6l.86.32.94.32.56.18Zm-26.13-.48.12-.89.06-.43.08-.34s0-.09,0-.13q1.32,1,2.64,1.86l-1.65.47-1.36.31C43.16,100.71,43.19,100.43,43.23,100.14Zm-.12-2.09c0,.11,0,.23-.08.34l-.07.35-.06.45-.13.9c0,.33-.07.67-.1,1-.52.11-1,.21-1.55.29.05-.5.09-1,.15-1.49L41.4,99l.06-.46.09-.39c.07-.36.15-.71.25-1.07,0-.16.08-.32.13-.48a15.18,15.18,0,0,1,.54-1.51,22.19,22.19,0,0,1,1.65-3.31c.53-.89,1.12-1.77,1.74-2.63.29-.41.6-.81.91-1.21l.28-.36c.48-.6,1-1.2,1.48-1.78a61.38,61.38,0,0,1,5.41-5.41c.47-.43,1-.84,1.47-1.26.29-.25.59-.49.89-.73.42.31.82.63,1.22.95-.38.31-.77.62-1.14.94s-1,.81-1.43,1.23a59.79,59.79,0,0,0-5.28,5.28c-.5.57-1,1.15-1.45,1.73-.09.12-.18.25-.28.37-.31.4-.61.8-.9,1.21-.58.8-1.13,1.61-1.62,2.44A21,21,0,0,0,43.71,96a15.81,15.81,0,0,0-.48,1.53C43.18,97.72,43.15,97.88,43.11,98.05Zm-7.72-7.44c.23-.5.47-1,.72-1.45s.59-1.09.9-1.61a45.25,45.25,0,0,1,2.91-4.28c.32-.41.63-.82.95-1.22l.3-.36c.38-.46.76-.92,1.16-1.37a66.91,66.91,0,0,1,6.13-6.13c.41-.38.84-.74,1.27-1.1l.12.09,1.09.87c-.49.42-1,.83-1.48,1.27a68,68,0,0,0-6,6q-.66.75-1.29,1.53l-.29.37c-.32.4-.64.8-1,1.21a44,44,0,0,0-2.62,3.89c-.38.65-.75,1.31-1.1,2-.24.47-.46,1-.68,1.46-.07.15-.14.3-.2.45a23.83,23.83,0,0,0-1.41,4.64l-.12.6-.08.53-.14,1.07c-.09.72-.15,1.45-.22,2.17,0,.22,0,.44,0,.66H34c-.4,0-.79,0-1.19-.07,0-.24,0-.47,0-.71.07-.74.13-1.49.23-2.23l.15-1.1.08-.56.12-.64a25.47,25.47,0,0,1,1.76-5.52C35.25,90.92,35.32,90.76,35.39,90.61ZM24.46,67.48q-.64-.15-1.26-.33a17.23,17.23,0,0,1-3.58-1.53,17.32,17.32,0,0,1,3.73-1.57,7.85,7.85,0,0,1,1.11-.29c0,.64-.06,1.28-.07,1.92S24.42,66.88,24.46,67.48Zm.33-4.26-.31.06a8.63,8.63,0,0,0-1.26.33,17.56,17.56,0,0,0-4,1.74c-.47-.29-.93-.59-1.38-.93a19.14,19.14,0,0,1,5-2.26,13.46,13.46,0,0,1,1.69-.42l.15,0,.47-.1.23,0,.88-.11.44-.06.43-.06a8.7,8.7,0,0,1,.89,0l.89,0,.44,0a2.88,2.88,0,0,1,.42,0,17.23,17.23,0,0,1,3.68.54c.49.13,1,.26,1.47.42l.44.15,1.12.4a40.86,40.86,0,0,1,3.83,1.75c-.55.3-1.11.59-1.66.86-.9-.44-1.81-.85-2.71-1.2l-.74-.27-.45-.15c-.49-.17-1-.31-1.48-.44a16,16,0,0,0-3.54-.55l-.37,0-.42,0-.84,0a7.69,7.69,0,0,0-.83,0l-.73.1H26.4l-.82.1c-.21,0-.42.08-.63.13ZM37,52.07a34.86,34.86,0,0,1,2.84-4l.3-.37q.49-.57,1-1.14A48.52,48.52,0,0,1,46.06,42l1-.8.19-.15.37-.28a82.12,82.12,0,0,1,8.3-5.55l.54.3,1,.56c-1.1.64-2.19,1.29-3.25,2-2,1.23-3.83,2.54-5.63,3.92l-.37.28-.19.15-1,.8a46.18,46.18,0,0,0-4.91,4.65c-.35.38-.69.76-1,1.15l-.3.36a31.9,31.9,0,0,0-2.53,3.55c-.21.36-.41.72-.61,1.09-.49-.16-1-.31-1.49-.45C36.41,53,36.67,52.54,37,52.07ZM43.51,32.9l0-.17-.07-.32L43.35,32l-.12-.89c0-.28-.07-.55-.09-.83,1,.22,2,.48,3,.78C45.27,31.63,44.39,32.25,43.51,32.9Zm-.42-3.13c0-.15,0-.3,0-.45L43,28.21a42.33,42.33,0,0,1,5.27,1.43l.5.17.06,0c.6.21,1.19.44,1.78.67a44.1,44.1,0,0,1,5.09,2.34q1.11.58,2.19,1.2l1.53.87.46.27a82.59,82.59,0,0,1,8.18,5.47c-.3.4-.62.79-.94,1.18q-2.62-2-5.47-3.8c-1.08-.69-2.18-1.35-3.29-2h0l-.47-.27-1.22-.69-.3-.17c-.47-.26-.94-.52-1.38-.73a44.91,44.91,0,0,0-6-2.67c-.25-.09-.49-.19-.74-.27s-.71-.24-1.07-.36c-.18-.06-.36-.13-.55-.18C45.47,30.33,44.28,30,43.09,29.77Zm21.1,27.51,1.2.95.37.3,1.15.88q-.68.42-1.35.87l-.93-.72-.37-.29-1.2-1c-.94-.76-1.88-1.55-2.82-2.35s-1.6-1.37-2.39-2.05l-1.15-1-.34-.31c-.7-.62-1.4-1.24-2.09-1.87-1.92-1.78-3.77-3.61-5.48-5.5-.52-.57-1-1.15-1.5-1.73l1-.79.21-.16c.46.56.94,1.12,1.44,1.67,1.67,1.85,3.49,3.65,5.39,5.4.72.66,1.46,1.32,2.2,2l.34.31,1.15,1c.73.64,1.47,1.28,2.22,1.91C62.21,55.66,63.2,56.48,64.19,57.28ZM80.61,63.9l-.69.26c-.92.35-1.84.76-2.75,1.21l-.53.25c-.54.27-1.08.56-1.62.86a65.16,65.16,0,0,0-6.4,4.1l-1.32,1-.1.08-.29.22-.86.66,0,0c-.38-.34-.78-.65-1.17-1l.71-.54.38-.3.35-.26.95-.69a70.48,70.48,0,0,1,6.24-4.1c.51-.29,1-.58,1.54-.85l.49-.26a41.73,41.73,0,0,1,3.87-1.77l1.07-.38C80.52,62.87,80.58,63.38,80.61,63.9Zm.07,1.8c0,.39,0,.78,0,1.16l-.48-.17c-.82-.31-1.64-.68-2.46-1.07.8-.38,1.59-.73,2.39-1l.55-.2C80.66,64.82,80.68,65.26,80.68,65.7ZM57.88,95l-.11-.07c-1.11-.65-2.21-1.3-3.28-2-2.06-1.29-4-2.67-5.9-4.11.46-.58.93-1.16,1.42-1.72a60.15,60.15,0,0,1,5.24-5.23c.46-.43,1-.82,1.43-1.23s.8-.66,1.2-1c.42.34.84.67,1.25,1s1,.81,1.42,1.23a58.89,58.89,0,0,1,5.24,5.24c.48.55.94,1.11,1.39,1.67-1.89,1.46-3.87,2.85-6,4.15-1.07.68-2.17,1.33-3.28,2Zm8.25-8.15a58.37,58.37,0,0,0-5.28-5.27c-.45-.43-1-.82-1.43-1.24s-.78-.65-1.17-1a3.36,3.36,0,0,1-.29-.24l-.08,0c-.4-.32-.8-.65-1.21-1l-.21-.16-.76-.58-.38-.28-.2-.15c-.2-.16-.28-.21-.42-.33l-1.55-1.32L51.65,74l-.35-.28-1.16-.92,0,0-.37-.28-.86-.66L50.21,71l.7.54.16.12.21.17,1.21,1,.11.09,1.52,1.24,1.55,1.32a3.1,3.1,0,0,0,.35.27l.19.15.39.29.78.59c.17.12.34.26.5.39l1,.81.2.16.36.3c.32.25.63.5.94.77.48.42,1,.82,1.46,1.26a60,60,0,0,1,5.41,5.41q.75.85,1.44,1.74c-.38.32-.77.64-1.17,1C67.09,87.93,66.62,87.36,66.13,86.8Zm-31-19.46.58-.21c1-.36,1.91-.79,2.87-1.25l.53-.26c.54-.27,1.08-.56,1.61-.85l1.44-.83c1.68-1,3.34-2.1,5-3.27l1.31-1h0l.39-.29,1.1-.84,1.15,1-.89.69-.39.29-.46.35-.83.61c-1.82,1.33-3.68,2.58-5.57,3.71l-.67.38c-.51.3-1,.58-1.54.86l-.5.26a37.38,37.38,0,0,1-4,1.81l-.95.34C35.24,68.38,35.18,67.86,35.15,67.34Zm-.07-1.68c0-.43,0-.85.05-1.28l.59.22c.78.3,1.56.65,2.34,1-.83.4-1.66.77-2.49,1.08l-.44.16C35.11,66.46,35.09,66.06,35.08,65.66Zm8.7-15.9c1.9,2.09,3.88,4.05,5.91,5.92.49.45,1,.89,1.49,1.33l.34.31,1.14,1q1.61,1.41,3.21,2.76c.66.56,1.33,1.13,2,1.69.4.32.79.65,1.2,1l.36.3.4.31-1.23,1L58.25,65l-.37-.3-1.19-1c-.61-.5-1.21-1-1.79-1.51-1.14-1-2.29-2-3.44-3l-1.14-1L50,58c-.43-.39-.87-.77-1.3-1.17-2.06-1.89-4.07-3.88-6-6-.43-.48-.86-1-1.28-1.46.32-.39.66-.78,1-1.15C42.84,48.7,43.31,49.23,43.78,49.76Zm14.1,16.15-.36-.29.36-.28.36.28ZM42.32,51.08c2,2.15,4,4.15,6,6.05l1.26,1.12-1.17.9-.83-.52a52.5,52.5,0,0,0-8-4c-.48-.19-1-.36-1.48-.53.19-.34.37-.68.57-1a30.42,30.42,0,0,1,2.43-3.42C41.49,50.15,41.9,50.62,42.32,51.08ZM38.65,74.86A49.65,49.65,0,0,0,46.42,71l.3-.19c.15-.08.29-.17.43-.26l1.38-.86c1.67-1.08,3.29-2.22,4.87-3.39l.92-.71c.41-.32.83-.63,1.24-1l.37-.29.39-.31,1.2,1-.37.29-.37.29-1.22,1-1.26,1c-1.45,1.08-2.94,2.13-4.48,3.13-.45.3-.9.59-1.36.87L48,71.8c-.28.18-.56.36-.85.53a51.72,51.72,0,0,1-8,3.94c-.44.17-.89.32-1.34.47-.24-.45-.45-.91-.66-1.37C37.68,75.21,38.17,75,38.65,74.86Zm.7,1.84a51,51,0,0,0,8.08-4l1-.62.92.7c-.41.34-.81.68-1.21,1A69.09,69.09,0,0,0,42,80c-.37.43-.74.87-1.1,1.31a30.83,30.83,0,0,1-2.19-3.12c-.22-.35-.41-.7-.61-1.06C38.51,77,38.93,76.86,39.35,76.7Zm33,4.66a65.34,65.34,0,0,0-6-6c-.49-.46-1-.88-1.51-1.31L64.75,74l-.29-.23c-.39-.34-.79-.67-1.19-1l-.14-.11c-.55-.44-1.09-.89-1.65-1.3L60,70.21l-1.53-1.29-.56-.46-1-.86-.15-.12-.37-.29-.39-.32,1.22-1,.37.29.27.22.09.07,1.2,1,.33.28,1.53,1.29,1.46,1.1c.57.42,1.12.88,1.68,1.32l.4.33,1.19,1,.06,0,.3.26c.45.37.89.74,1.32,1.14a68.32,68.32,0,0,1,6.13,6.14q.57.64,1.11,1.32c-.32.39-.65.78-1,1.16C73.19,82.35,72.77,81.85,72.34,81.36Zm1.49-1.3a67.89,67.89,0,0,0-6.18-6.17c-.4-.38-.82-.73-1.24-1.09l.92-.7c.32.2.63.4,1,.59a51.36,51.36,0,0,0,8.07,4c.43.16.87.32,1.32.47-.2.37-.4.74-.63,1.1a30,30,0,0,1-2.16,3.08C74.54,80.9,74.19,80.48,73.83,80.06ZM77,56.44a51.33,51.33,0,0,0-7.75,3.85L69,60.4l-.42.27-1.38.86c-1.72,1.1-3.38,2.27-5,3.48l-.8.61-1.24,1-.37.29-.4.32-1.19-1,.36-.29.37-.3,1.23-1,1.13-.86c1.49-1.12,3-2.19,4.61-3.23l1.35-.87.42-.26.72-.44a52.17,52.17,0,0,1,8-4l1.48-.53c.24.46.46.91.67,1.38C78,56.05,77.49,56.24,77,56.44Zm-.71-1.84a52.05,52.05,0,0,0-8.05,4l-.88.55-1.23-.94,1.24-1.15c2-1.92,4-3.91,6-6.05.42-.48.85-1,1.27-1.46a33,33,0,0,1,2.55,3.58q.28.48.54,1ZM55.61,49.28c-1.89-1.74-3.7-3.54-5.36-5.37-.49-.54-1-1.09-1.42-1.64,1.78-1.36,3.64-2.66,5.59-3.88,1.07-.68,2.17-1.34,3.27-2l.19-.11.24.13c1.1.65,2.2,1.31,3.27,2q2.83,1.78,5.43,3.77c-.47.55-.95,1.11-1.44,1.66C63.71,45.7,61.9,47.51,60,49.28c-.71.67-1.44,1.33-2.17,2C57.09,50.61,56.34,50,55.61,49.28ZM29.29,53l.63,0a26.14,26.14,0,0,1,6,.93c.5.13,1,.28,1.48.44l.44.14,1.55.55a52.44,52.44,0,0,1,8,4c.23.13.45.27.67.41-.44.33-.87.65-1.31,1l-.14-.08a50.29,50.29,0,0,0-7.74-3.85c-.54-.21-1.1-.41-1.66-.59l-.44-.15q-.73-.23-1.47-.42a24.26,24.26,0,0,0-5.39-.81l-.6,0-.56,0-.4,0-.73,0c-.3,0-.6,0-.9.05l-.23,0-.28,0-.85.11-1.12.14c-.38.06-.75.16-1.12.23a21.38,21.38,0,0,0-2.23.56,26.23,26.23,0,0,0-7.6,3.64c-.26-.44-.49-.89-.71-1.34a27.43,27.43,0,0,1,7.88-3.75,21.25,21.25,0,0,1,2.35-.59c.39-.08.78-.17,1.18-.24l1.18-.15,1.18-.15a3.25,3.25,0,0,1,.44,0l.5,0h.25l1.17,0h.6Zm6.65,24.36c-.24-.46-.46-.92-.66-1.39a25.94,25.94,0,0,1-1.88-6.49c-.07-.5-.13-1-.18-1.51,0-.15,0-.31,0-.46,0-.6-.07-1.21-.07-1.82s0-1.26.07-1.89c.49.13,1,.28,1.49.45,0,.48-.05,1-.05,1.44s0,.91.05,1.36l0,.48c0,.51.09,1,.17,1.53a23.73,23.73,0,0,0,1.88,6.48c.2.47.42.92.66,1.38.07.14.15.27.23.41.21.39.42.77.66,1.15a28.2,28.2,0,0,0,2.28,3.23c-.33.4-.64.81-1,1.23A35.59,35.59,0,0,1,37,79.24c-.3-.49-.58-1-.85-1.5ZM79.83,53.92c.23.46.46.92.66,1.39a25.43,25.43,0,0,1,1.87,6.48c.08.51.14,1,.18,1.52,0,.15,0,.31,0,.46,0,.64.07,1.29.07,1.94s0,1.18-.06,1.77c-.5-.13-1-.29-1.5-.46,0-.44,0-.87,0-1.31s0-1,0-1.49l0-.47c0-.52-.09-1-.17-1.54A23.91,23.91,0,0,0,79,55.73c-.21-.46-.43-.92-.66-1.37-.07-.14-.16-.28-.23-.41-.19-.35-.38-.71-.59-1.05a32.15,32.15,0,0,0-2.65-3.7c.33-.39.66-.79,1-1.19a34.33,34.33,0,0,1,3,4.1c.28.46.54.92.78,1.39C79.69,53.64,79.76,53.78,79.83,53.92ZM74.5,31.32l-.13.93-.07.46-.08.38c-.07.36-.17.72-.28,1.09,0,.15-.09.31-.14.47a14.92,14.92,0,0,1-.58,1.47,22.42,22.42,0,0,1-1.73,3.12c-.58.89-1.22,1.77-1.89,2.63-.31.4-.62.79-.94,1.18l-.3.36c-.49.59-1,1.18-1.52,1.76-1.71,1.91-3.56,3.75-5.48,5.55-.66.62-1.35,1.24-2,1.86l-1.15-1c.72-.65,1.44-1.3,2.15-2,1.89-1.78,3.71-3.6,5.39-5.47.5-.55,1-1.12,1.46-1.68l.3-.36c.32-.39.63-.79.94-1.18.64-.83,1.25-1.67,1.8-2.51A20.08,20.08,0,0,0,72,35.16a12.89,12.89,0,0,0,.54-1.49c0-.16.09-.32.13-.48l.09-.39.07-.32.06-.45.12-.89c.05-.33.08-.66.11-1l1.53-.29h0C74.6,30.35,74.56,30.83,74.5,31.32Zm-2-.24-.12.89-.06.44-.08.3a1.16,1.16,0,0,1,0,.18c-.87-.64-1.75-1.26-2.63-1.86,1-.3,2-.56,3-.78Zm-20.9-9.5a50,50,0,0,0-7.57-2A12.85,12.85,0,0,1,47,14.67a12.53,12.53,0,0,1,4.75-3,19.44,19.44,0,0,1,12.25,0,12.49,12.49,0,0,1,4.74,3,12.79,12.79,0,0,1,3,4.87,50.19,50.19,0,0,0-7.52,2,60.93,60.93,0,0,0-6.3,2.61A62.06,62.06,0,0,0,51.64,21.58ZM41.93,34.67h0l1.28-1,.39-.3c1-.76,2.06-1.48,3.11-2.19.46.15.93.3,1.39.47l.41.15c-1.49,1-3,2-4.4,3.08l-.38.29-.87.67-.37.3a59,59,0,0,0-5.21,4.69c-.37.38-.74.76-1.1,1.15l-.32.36a41.81,41.81,0,0,0-4.68,6.22,35,35,0,0,0-2.05,3.94h-.45l-1.2,0h0a36.48,36.48,0,0,1,2.43-4.79,43.27,43.27,0,0,1,5.22-6.85l.33-.37c.37-.39.75-.77,1.13-1.15A62.49,62.49,0,0,1,41.93,34.67Zm-16.83,35c-.06-.53-.11-1-.15-1.57l0-.48c0-.63-.06-1.27-.07-1.91s0-1.34.07-2c.25,0,.49-.12.74-.16l.79-.1c-.05.76-.08,1.52-.08,2.27s0,1.45.08,2.17c0,.16,0,.31,0,.47,0,.51.09,1,.16,1.54a30.41,30.41,0,0,0,1,4.72c.21.73.45,1.45.71,2.16.18.51.39,1,.6,1.52.07.16.13.31.2.46a36,36,0,0,0,2.11,4,41.33,41.33,0,0,0,4.55,6c-.26.48-.5,1-.73,1.45A43.07,43.07,0,0,1,30,83.54a37.87,37.87,0,0,1-2.48-4.88c-.07-.15-.13-.31-.2-.47-.21-.51-.4-1-.58-1.56s-.36-1.09-.52-1.64A31.6,31.6,0,0,1,25.1,69.63Zm4.46,14.15a44.4,44.4,0,0,0,5.29,6.92A26.36,26.36,0,0,0,33,96.51l-.13.65-.08.56-.15,1.11c-.09.75-.16,1.5-.23,2.26,0,.23,0,.47,0,.71a31.23,31.23,0,0,1-5.13-.87A25.3,25.3,0,0,1,21,98.44a22.13,22.13,0,0,1-5.11-3.93,18.63,18.63,0,0,1-5.13-11.23,19.38,19.38,0,0,1,1.59-9.6,28.11,28.11,0,0,0,7.72,3.69c.39.12.79.26,1.18.36l1.2.26,1.19.26c.4.07.8.11,1.2.16.71.11,1.41.18,2.1.22A37.11,37.11,0,0,0,29.56,83.78Zm23.09,20c-1.21-.71-2.42-1.43-3.62-2.19l-.22-.14c-.54-.34-1.07-.68-1.61-1l-.48-.33c-1-.7-2.08-1.43-3.1-2.18.13-.5.28-1,.47-1.54q2.17,1.64,4.43,3.1l.48.31.84.54.76.48c2.12,1.3,4.23,2.53,6.46,3.69.27.15.55.28.82.42.56.29,1.13.56,1.7.83l.53.24q2.37,1.06,4.81,1.92c.68.23,1.35.48,2,.68l2.07.58c1.07.25,2.12.51,3.2.71-.12.5-.25,1-.4,1.46-1.07-.2-2.12-.46-3.17-.7L66.53,110c-.71-.19-1.4-.46-2.1-.69a61.17,61.17,0,0,1-6-2.47l-.51-.26c-.51-.25-1-.5-1.52-.77l-.18-.09c-.59-.31-1.15-.61-1.7-.92Zm11.63,6c.7.23,1.4.49,2.12.69l2.15.61c1,.25,2.09.5,3.14.7a12.79,12.79,0,0,1-3,4.87,12.51,12.51,0,0,1-4.75,3,18.2,18.2,0,0,1-6.13,1,18.65,18.65,0,0,1-6.12-1,12.51,12.51,0,0,1-4.74-3,12.84,12.84,0,0,1-2.93-4.84c1-.2,2.06-.44,3.08-.68l2.16-.61c.72-.19,1.41-.46,2.12-.69a59.89,59.89,0,0,0,6.45-2.67A59.81,59.81,0,0,0,64.28,109.72Zm9.55-13.15-.12.1-1.17.89-.4.3c-1,.75-2,1.48-3.09,2.18l-1.27-.42-.53-.2q2.25-1.47,4.42-3.1l.38-.29.73-.55.52-.43a59.89,59.89,0,0,0,5.26-4.73c.37-.38.73-.77,1.09-1.16l.33-.37a41.35,41.35,0,0,0,4.51-6,36.59,36.59,0,0,0,2.14-4.07l.62,0,1,0a36.86,36.86,0,0,1-2.52,4.93,43,43,0,0,1-5.07,6.65c-.11.12-.22.25-.34.37-.37.4-.75.78-1.13,1.17A65.51,65.51,0,0,1,73.83,96.57ZM90.67,61.62c.06.52.11,1,.14,1.56a3.87,3.87,0,0,1,0,.48c0,.69.07,1.39.07,2.08s0,1.23-.07,1.85l-.62.14-.8.1h-.1c0-.7.07-1.41.08-2.11s0-1.55-.08-2.33c0-.15,0-.31,0-.46,0-.52-.09-1-.16-1.54a31.11,31.11,0,0,0-.93-4.57q-.33-1.17-.75-2.31c-.19-.52-.4-1-.61-1.54-.07-.15-.13-.31-.2-.46a37.63,37.63,0,0,0-2-3.89,41.77,41.77,0,0,0-4.78-6.34c.27-.45.53-.92.77-1.4a43.73,43.73,0,0,1,5.3,7,37.46,37.46,0,0,1,2.4,4.73c.06.16.13.31.19.47.21.51.4,1,.58,1.55s.4,1.21.57,1.82A31.9,31.9,0,0,1,90.67,61.62Zm-4.38-14a43.35,43.35,0,0,0-5.47-7.17,23.83,23.83,0,0,0,2-5.71l.14-.68.08-.56.15-1.11c.09-.74.16-1.5.23-2.25,0-.23,0-.46,0-.69a31,31,0,0,1,5,.84,25.48,25.48,0,0,1,6.22,2.47,22.19,22.19,0,0,1,5.14,3.9A18.6,18.6,0,0,1,105,47.85a19.35,19.35,0,0,1-1.57,9.71,28.26,28.26,0,0,0-7.89-3.74,20.73,20.73,0,0,0-2.38-.6c-.4-.09-.8-.18-1.2-.25l-1.2-.16c-.65-.08-1.29-.17-1.93-.21A38.86,38.86,0,0,0,86.29,47.61Zm19.15.19a19,19,0,0,0-5.32-11.46,22.55,22.55,0,0,0-5.24-4,25.64,25.64,0,0,0-6.34-2.51,29.84,29.84,0,0,0-5.1-.85c-.15,0-.3,0-.46,0-.5,0-1-.06-1.51-.08a35.26,35.26,0,0,0-6.78.51l-.13,0-1.42.26-.47.1c-1.19.25-2.37.56-3.55.93-.53-.36-1.07-.71-1.62-1.06a42.48,42.48,0,0,1,5.28-1.43c.15,0,.31-.06.46-.09l1.07-.2.45-.07a37.57,37.57,0,0,1,6.76-.48c.51,0,1,0,1.51.08l.46,0a32.91,32.91,0,0,1,5.43.9A27.17,27.17,0,0,1,95.61,31a24,24,0,0,1,5.6,4.26,20.53,20.53,0,0,1,5.73,12.37A21.2,21.2,0,0,1,105,58.76l-.65-.51-.58-.42A19.8,19.8,0,0,0,105.44,47.8Zm-71-31.65A23,23,0,0,1,39.7,7.52a22.78,22.78,0,0,1,8.6-5.47,29.66,29.66,0,0,1,19.16,0,22.78,22.78,0,0,1,8.6,5.47,23.06,23.06,0,0,1,5.29,8.63c.29.83.54,1.67.75,2.51h-.17c-.47,0-.93,0-1.4,0a20.68,20.68,0,0,0-.61-2A21.56,21.56,0,0,0,75,8.57a21.28,21.28,0,0,0-8-5.1,28.17,28.17,0,0,0-18.14,0,21.43,21.43,0,0,0-8,5.1,21.82,21.82,0,0,0-4.94,8.08c-.23.66-.43,1.32-.61,2l-.12.46c-.12.51-.23,1-.32,1.52l-.09.49c-.15.75-.21,1.49-.31,2.24s-.13,1.49-.13,2.23,0,1.2,0,1.79,0,1,0,1.51l0,.46c0,.22,0,.43,0,.64q.09,1.08.21,2.16l.15,1.07.07.54.12.6.26,1.2.34,1.15.18.58.21.54.44,1.1,0,.06c-.38.37-.76.75-1.13,1.15-.1-.21-.19-.41-.29-.61l-.46-1.16-.23-.58-.19-.62-.37-1.23-.27-1.3L33.3,34l-.08-.55-.15-1.1c-.09-.74-.15-1.49-.22-2.24,0-.22,0-.45,0-.67l0-.46c0-.5,0-1-.05-1.51s0-1.28,0-1.92.09-1.55.14-2.33.17-1.56.32-2.35c0-.06,0-.13,0-.19.08-.51.19-1,.31-1.53,0-.15.06-.31.1-.46A25.13,25.13,0,0,1,34.42,16.15ZM.61,46.78a28.84,28.84,0,0,1,2.55-9.32,29.17,29.17,0,0,1,5.49-7.95,32.32,32.32,0,0,1,7.55-5.73,35.21,35.21,0,0,1,8.64-3.42,41.4,41.4,0,0,1,8.24-1.21c-.12.51-.22,1-.31,1.53a39.05,39.05,0,0,0-7.56,1.15,34,34,0,0,0-8.28,3.27,31.1,31.1,0,0,0-7.2,5.46,27.83,27.83,0,0,0-5.2,7.53,27.55,27.55,0,0,0-2.42,8.84A27.87,27.87,0,0,0,5.82,63.85c.08.14.17.28.26.42s.09.16.14.24c.23.37.49.74.74,1.11a26,26,0,0,0,4.73,5.09q.38.32.75.6l.46.33.37.27a26.06,26.06,0,0,0,7.39,3.58,29.43,29.43,0,0,0,5.53,1.1c.18.53.37,1,.57,1.57-.61,0-1.22-.11-1.84-.2-.4-.06-.79-.1-1.19-.17l-1.18-.25-1.17-.26c-.39-.1-.78-.23-1.16-.35a27.63,27.63,0,0,1-7.67-3.67L12.18,73l-.65-.47L11,72.06A27.29,27.29,0,0,1,6.08,67c-.33-.44-.64-.89-.94-1.35-.07-.1-.14-.2-.2-.3a.75.75,0,0,1-.07-.12A29.27,29.27,0,0,1,.61,46.78ZM33.08,112.1a41.41,41.41,0,0,1-8.46-1.28A35.59,35.59,0,0,1,16,107.36a32.26,32.26,0,0,1-7.52-5.8A29.17,29.17,0,0,1,4.87,66.05c.3.45.62.9,1,1.34A27.74,27.74,0,0,0,4.44,92.94a27.43,27.43,0,0,0,5.14,7.58A30.73,30.73,0,0,0,16.74,106,33.86,33.86,0,0,0,25,109.36a39.72,39.72,0,0,0,7.78,1.21l.47,0,.48,0,1.06,0a46.6,46.6,0,0,0,6.79-.5l.84-.13.65-.11.46-.08c1-.2,2.09-.45,3.13-.69l2.08-.59c.7-.18,1.37-.45,2-.67q2.48-.86,4.86-1.94l.49.26,1.23.62a58.88,58.88,0,0,1-6.09,2.49c-.7.23-1.39.5-2.1.69l-2.14.6c-1,.24-2.07.49-3.11.69l-.46.08-.8.14-.71.11a48.68,48.68,0,0,1-6.85.54l-1.43,0h-.12Zm48.26,3a24.76,24.76,0,0,1-2.14,4.55A22.55,22.55,0,0,1,76,123.75a22.87,22.87,0,0,1-8.61,5.46,29.74,29.74,0,0,1-19.16,0,22.65,22.65,0,0,1-8.59-5.48,23.17,23.17,0,0,1-5.27-8.63c-.29-.82-.54-1.65-.75-2.48h0l1.56,0c.18.65.37,1.31.6,2a21.74,21.74,0,0,0,4.93,8.08,21.34,21.34,0,0,0,8,5.11,28.17,28.17,0,0,0,18.14,0,20.89,20.89,0,0,0,11-8.88,23,23,0,0,0,2-4.27c.24-.67.44-1.35.62-2l.12-.46c.12-.51.23-1,.32-1.51l.09-.47c.15-.75.21-1.5.31-2.24s.13-1.49.14-2.23,0-1.22,0-1.83,0-1,0-1.51c0-.15,0-.3,0-.46s0-.4,0-.6c-.06-.73-.13-1.45-.22-2.17l-.14-1.07L81,97.53l-.12-.6a23.76,23.76,0,0,0-1.43-4.7c.39-.38.77-.76,1.15-1.16a26.28,26.28,0,0,1,1.77,5.59l.12.63.08.56L82.7,99c.08.74.15,1.49.22,2.23,0,.22,0,.43,0,.65s0,.3,0,.46c0,.5,0,1,0,1.51s0,1.29,0,2-.09,1.55-.15,2.32-.17,1.57-.32,2.35l0,.17c-.09.51-.19,1-.31,1.53,0,.15-.07.31-.11.46A25.68,25.68,0,0,1,81.34,115.13ZM115.17,84.3a28.9,28.9,0,0,1-7.93,17.31,32.71,32.71,0,0,1-7.53,5.78,35.56,35.56,0,0,1-8.62,3.45,41.61,41.61,0,0,1-8.4,1.26c.11-.51.22-1,.3-1.53a39.63,39.63,0,0,0,7.71-1.19A34.14,34.14,0,0,0,99,106.07a30.74,30.74,0,0,0,7.17-5.51,27.28,27.28,0,0,0,7.53-16.41A27.92,27.92,0,0,0,110,67.39l-.26-.42-.23-.37c-.21-.33-.43-.66-.66-1a25.66,25.66,0,0,0-4.73-5.09c-.28-.24-.58-.47-.88-.7l-.32-.23-.38-.27A26.1,26.1,0,0,0,95,55.71a19,19,0,0,0-2.22-.56l-1.12-.24-1.13-.15-.91-.11c-.18-.53-.37-1.06-.57-1.57.56,0,1.12.11,1.68.19l1.18.15c.4.07.79.16,1.18.25a19.08,19.08,0,0,1,2.34.59A27.36,27.36,0,0,1,103.21,58c.13.08.25.18.38.27l.51.36q.36.27.72.57a27.25,27.25,0,0,1,4.87,5.08c.32.45.64.89.94,1.35l.1.16c.06.09.11.18.16.27A29.27,29.27,0,0,1,115.17,84.3Z"/></svg>