<?xml version="1.0" encoding="utf-8"?>
<!-- Generator: Adobe Illustrator 26.4.1, SVG Export Plug-In . SVG Version: 6.00 Build 0)  -->
<svg version="1.1" id="レイヤー_1" xmlns="http://www.w3.org/2000/svg" xmlns:xlink="http://www.w3.org/1999/xlink" x="0px"
	 y="0px" viewBox="0 0 1199 101" style="enable-background:new 0 0 1199 101;" xml:space="preserve">
<style type="text/css">
	.st0{fill:#343434;}
	.st1{fill:#641611;}
	.st2{enable-background:new    ;}
	.st3{fill:#F7F5F1;}
	.st4{clip-path:url(#SVGID_00000025412676975249255380000016503017849129831612_);}
	.st5{fill:#500F0F;}
</style>
<g transform="translate(-360 -3747)">
	<g transform="translate(0 -22)">
		<g transform="translate(510 3820)">
			<path class="st0" d="M266,0.5H0v-1h266V0.5z"/>
		</g>
		<path class="st1" d="M360,3790h150v60H360V3790z"/>
		<g class="st2">
			<path class="st3" d="M406.7,3826.5c0,0.8-0.2,1.2-0.7,1.4c-0.5,0.2-1.5,0.2-2.8,0.2c-0.1-0.3-0.3-0.9-0.4-1.2c1,0,2.1,0,2.4,0
				c0.3,0,0.4-0.1,0.4-0.4v-3.9c-1.8,1-3.6,2.1-5,2.8l-0.5-1.1c1.3-0.7,3.5-1.8,5.5-2.9v-5.9h-5v-1.2h6.2V3826.5z M401.7,3817.1
				c0.9,0.9,1.9,2.1,2.4,2.8l-1,0.7c-0.5-0.8-1.5-2-2.4-3L401.7,3817.1z M413.9,3826.5c0,0.8-0.2,1.2-0.8,1.4
				c-0.6,0.2-1.6,0.2-3,0.2c0-0.3-0.2-0.9-0.4-1.2c1.1,0.1,2.3,0,2.6,0c0.3,0,0.4-0.1,0.4-0.4v-4.2c-1.7,1-3.5,2-4.9,2.8l-0.6-1.1
				c1.3-0.7,3.5-1.8,5.5-2.9v-5.5h-5.1v-1.2h6.3V3826.5z M408.7,3817c0.9,0.9,2,2.1,2.5,2.8l-1,0.7c-0.5-0.8-1.6-2-2.4-2.9
				L408.7,3817z"/>
			<path class="st3" d="M432.3,3814.7v13.4h-1.2v-1h-10.5v1h-1.2v-13.4H432.3z M420.6,3815.9v4.4h4.5v-4.4H420.6z M420.6,3825.9h4.5
				v-4.5h-4.5V3825.9z M431.1,3815.9h-4.8v4.4h4.8V3815.9z M431.1,3825.9v-4.5h-4.8v4.5H431.1z"/>
			<path class="st3" d="M451.2,3826.6v1.1h-14v-1.1h6.4v-3.2h-4.7v-1.1h10.9v1.1h-5.1v3.2H451.2z M443,3816.3
				c-0.3,2.8-1.3,4.5-5,5.3c-0.1-0.3-0.4-0.8-0.7-1c3.4-0.7,4.2-2,4.4-4.3h-3.1v2.1h-1.2v-3.2h6.1v-1.7h1.2v1.7h6.2v2.8h-1.2v-1.8
				h-3.2v3.2c0,0.4,0.1,0.5,0.7,0.5h2c0.5,0,0.6-0.2,0.6-1.3c0.2,0.2,0.7,0.4,1,0.4c-0.1,1.5-0.4,1.9-1.5,1.9h-2.3
				c-1.4,0-1.7-0.3-1.7-1.5v-3.2H443z"/>
			<path class="st3" d="M457.9,3820.6c-0.6-0.5-1.7-1.2-2.7-1.7l0.7-0.9c1,0.4,2.2,1.1,2.8,1.6L457.9,3820.6z M467.1,3819.4
				c0.7,1.3,1.9,2.6,3.1,3.2c-0.3,0.2-0.6,0.6-0.8,0.9c-0.8-0.5-1.6-1.3-2.3-2.2v3.3h-4.9v1.9c0,0.4,0.2,0.5,1.2,0.5h3.5
				c0.8,0,1-0.2,1.1-1.8c0.3,0.2,0.7,0.4,1.1,0.4c-0.2,2-0.5,2.4-2,2.4h-3.6c-1.8,0-2.3-0.3-2.3-1.6v-2.9h4.9v-1.7h-4.2v-0.6
				c-0.7,1-1.5,1.8-2.3,2.4c-0.1-0.2-0.3-0.4-0.5-0.6c-0.7,1.6-1.6,3.4-2.3,4.8l-1.1-0.7c0.8-1.2,1.8-3.3,2.6-5.1l0.7,0.5
				c1.1-0.7,2.2-2,2.8-3.3h-2.8v-1.1h2.8v-1.9h-2.1v-1.1h2.1v-1.8h1.2v1.8h3.1v-1.8h1.2v1.8h2.4v1.1h-2.4v1.9h2.8v1.1H467.1z
				 M458.7,3816.4c-0.6-0.6-1.7-1.3-2.7-1.8l0.7-0.9c0.9,0.4,2.1,1.1,2.7,1.7L458.7,3816.4z M466.9,3821.1c-0.4-0.5-0.7-1.1-0.9-1.6
				h-3c-0.2,0.6-0.6,1.1-0.9,1.6H466.9z M462.9,3818.4h3.1v-1.9h-3.1V3818.4z"/>
		</g>
		<path class="st0" d="M777,3791v58h118v-58H777 M776,3790h120v60H776V3790z"/>
		<g class="st2">
			<path class="st0" d="M810,3821.3h5.7v6.8h-1.2v-0.7h-3.3v0.9H810V3821.3z M811.1,3822.4v3.8h3.3v-3.8H811.1z M821,3819.6h-8.7
				v-5.3h8.7V3819.6z M819.8,3815.4h-6.4v3h6.4V3815.4z M823.3,3821.3v6.9h-1.2v-0.8h-3.6v0.9h-1.2v-7H823.3z M822.2,3826.2v-3.8
				h-3.6v3.8H822.2z"/>
			<path class="st0" d="M830.8,3814.5v5.4c0,3-0.2,6.1-2.3,8.5c-0.2-0.3-0.7-0.6-1-0.8c1.9-2.1,2.1-4.9,2.1-7.6v-5.4H830.8z
				 M835.9,3815.1v11.7h-1.2v-11.7H835.9z M841.2,3814.4v13.8H840v-13.8H841.2z"/>
			<path class="st0" d="M845.9,3827c0.6-0.8,0.8-2.2,0.8-3.6l0.7,0.1c-0.1,1.5-0.3,3-0.9,3.9L845.9,3827z M852.9,3821.5
				c0,0,0,0.3,0,0.5c-0.2,3.9-0.4,5.3-0.8,5.8c-0.2,0.3-0.5,0.4-0.9,0.4c-0.3,0-0.9,0-1.5,0c0-0.3-0.1-0.7-0.3-1c0.6,0,1.1,0,1.3,0
				s0.3,0,0.5-0.2c0.2-0.2,0.3-0.8,0.4-2l-0.5,0.2c-0.2-0.6-0.5-1.4-0.9-2.1l0.6-0.2c0.4,0.6,0.7,1.3,0.9,1.9
				c0.1-0.6,0.1-1.4,0.2-2.4h-5v-8.2h5.9v1h-2.3v1.4h2v0.9h-2v1.4h2v1h-2v1.5H852.9z M847.9,3815.3v1.4h1.6v-1.4H847.9z
				 M849.4,3817.6h-1.6v1.4h1.6V3817.6z M847.9,3821.5h1.6v-1.5h-1.6V3821.5z M848.5,3823.6c0.2,0.9,0.3,2.1,0.3,2.9l-0.7,0.1
				c0-0.8-0.1-2-0.2-2.9L848.5,3823.6z M849.7,3826.1c-0.1-0.7-0.3-1.8-0.6-2.6l0.6-0.1c0.3,0.8,0.6,1.9,0.7,2.5L849.7,3826.1z
				 M857.6,3820.8c0.5,2.9,1.4,5.4,3.2,6.5c-0.3,0.2-0.6,0.7-0.8,1c-2-1.4-3-4.1-3.5-7.5h-1.5c0,2.4-0.3,5.5-1.8,7.5
				c-0.2-0.2-0.7-0.5-0.9-0.6c1.5-2.1,1.6-5,1.6-7.3v-6h6.2v6.5H857.6z M855.1,3815.4v4.3h4v-4.3H855.1z"/>
		</g>
		<g class="st2">
			<path class="st0" d="M620.9,3837.9c-0.2,1.1-0.5,2.3-0.9,3c-0.1-0.1-0.5-0.3-0.7-0.3c0.4-0.7,0.6-1.8,0.8-2.9L620.9,3837.9z
				 M623.1,3834.8c0.5,0.8,1,1.8,1.2,2.4l-0.7,0.3c0-0.2-0.1-0.4-0.2-0.7l-1,0.1v5h-0.8v-4.9l-2,0.1l-0.1-0.8c0.2,0,0.5,0,0.8,0
				c0.3-0.3,0.5-0.7,0.8-1.1c-0.4-0.5-1-1.2-1.6-1.7l0.5-0.6c0.1,0.1,0.2,0.2,0.4,0.3c0.4-0.7,0.8-1.6,1.1-2.2l0.8,0.3
				c-0.4,0.8-0.9,1.8-1.4,2.4c0.3,0.3,0.5,0.6,0.7,0.8c0.5-0.8,0.9-1.5,1.3-2.2l0.8,0.3c-0.7,1.1-1.7,2.5-2.5,3.6
				c0.6,0,1.3-0.1,1.9-0.1c-0.2-0.4-0.4-0.7-0.6-1.1L623.1,3834.8z M623.4,3837.7c0.3,0.7,0.7,1.7,0.8,2.3l-0.7,0.2
				c-0.1-0.6-0.4-1.6-0.8-2.3L623.4,3837.7z M630.2,3833.6c-0.2,5.4-0.4,7.2-0.9,7.8c-0.3,0.3-0.5,0.4-1,0.5c-0.4,0-1.1,0-1.8,0
				c0-0.3-0.1-0.6-0.3-0.9c0.8,0.1,1.5,0.1,1.8,0.1c0.2,0,0.4,0,0.5-0.2c0.4-0.4,0.6-2.2,0.8-6.9h-3.9c-0.3,0.6-0.7,1.2-1.1,1.7
				c-0.2-0.1-0.6-0.4-0.8-0.5c0.9-1,1.7-2.6,2.1-4.1l0.9,0.2c-0.2,0.7-0.4,1.3-0.7,2h4.4V3833.6z M626.8,3838.9
				c-0.3-0.7-0.9-1.9-1.6-2.8l0.7-0.3c0.7,0.8,1.4,2,1.7,2.7L626.8,3838.9z"/>
			<path class="st0" d="M638.2,3838.6H637v2.4h-1v-2.4h-3.8v-0.7l3.7-5.6h1.2v5.5h1.2V3838.6z M636,3837.7v-2.7c0-0.4,0-1.1,0.1-1.6
				h0c-0.2,0.4-0.5,0.9-0.7,1.3l-2,3H636z"/>
			<path class="st0" d="M639.8,3840l0.5-0.7c0.5,0.5,1.1,1,2.2,1c1,0,1.9-0.8,1.9-2.1c0-1.3-0.7-2-1.8-2c-0.6,0-1,0.2-1.5,0.5
				l-0.6-0.4l0.3-4.1h4.3v0.9h-3.3l-0.2,2.5c0.4-0.2,0.8-0.3,1.3-0.3c1.5,0,2.7,0.9,2.7,2.8s-1.4,3-2.9,3
				C641.2,3841.2,640.4,3840.6,639.8,3840z"/>
			<path class="st0" d="M651.9,3831.5c-0.9,2-2.3,3.8-3.8,4.9c-0.2-0.2-0.5-0.5-0.8-0.7c1.5-1,2.8-2.7,3.6-4.5L651.9,3831.5z
				 M656.7,3835.5c0,0,0,0.3,0,0.4c-0.2,3.7-0.3,5.1-0.8,5.5c-0.3,0.3-0.5,0.4-0.9,0.4c-0.4,0-1.1,0-1.9,0c0-0.3-0.1-0.6-0.3-0.9
				c0.8,0.1,1.5,0.1,1.8,0.1c0.3,0,0.4,0,0.5-0.2c0.3-0.3,0.5-1.5,0.6-4.5h-3.1c-0.3,2.4-1.1,4.5-4.1,5.6c-0.1-0.2-0.4-0.6-0.6-0.8
				c2.8-0.9,3.5-2.8,3.8-4.9h-2.4v-0.9H656.7z M655.1,3831.2c0.8,1.6,2.3,3.4,3.6,4.3c-0.2,0.2-0.6,0.5-0.7,0.8
				c-1.3-1.1-2.8-3-3.7-4.8L655.1,3831.2z"/>
		</g>
		<g transform="translate(1365.667 3825.065) rotate(180)">
			<path class="st0" d="M5,10.5l-5.3-5.3l0.7-0.7l5.3,5.3L5,10.5z"/>
			<path class="st0" d="M0.4,5.7L-0.4,5L5-0.4l0.7,0.7L0.4,5.7z"/>
		</g>
		<g transform="translate(598 3797.283)">
			<path class="st0" d="M26.3,3.6H0.7C0.3,3.6,0,3.9,0,4.3v7.8c0,0.4,0.3,0.7,0.7,0.7h2.9c-0.1,0.2-0.1,0.3-0.1,0.5
				c0,0.8,0.7,1.5,1.5,1.5s1.5-0.7,1.5-1.5c0-0.2,0-0.4-0.1-0.5H7C7,13,7,13.2,7,13.4c0,0.8,0.7,1.5,1.5,1.4s1.5-0.7,1.4-1.5
				c0-0.2,0-0.3-0.1-0.5h7.4c-0.3,0.8,0.1,1.6,0.8,1.9c0.8,0.3,1.6-0.1,1.9-0.8c0.1-0.3,0.1-0.7,0-1h0.7c-0.1,0.2-0.1,0.3-0.1,0.5
				c0,0.8,0.7,1.5,1.5,1.4c0.8,0,1.5-0.7,1.4-1.5c0-0.2,0-0.3-0.1-0.5h2.9c0.4,0,0.7-0.3,0.7-0.7c0,0,0,0,0,0V4.3
				C27,3.9,26.7,3.6,26.3,3.6L26.3,3.6 M24.1,5.1h1.4c0.2,0,0.4,0.2,0.4,0.4v1.3h-2.1V5.5C23.7,5.3,23.9,5.1,24.1,5.1 M19.1,5.1h2.6
				c0.2,0,0.4,0.2,0.4,0.4v1.3h-3.4V5.5C18.7,5.3,18.8,5.1,19.1,5.1 M14.5,5.1h2.6c0.2,0,0.4,0.2,0.4,0.4v1.3h-3.4V5.5
				C14.1,5.3,14.3,5.1,14.5,5.1 M9.9,5.1h2.6c0.2,0,0.4,0.2,0.4,0.4c0,0,0,0,0,0v1.3H9.5V5.5C9.5,5.3,9.7,5.1,9.9,5.1 M5.3,5.1h2.6
				c0.2,0,0.4,0.2,0.4,0.4v1.3H4.9V5.5C4.9,5.3,5.1,5.1,5.3,5.1 M1.6,5.1h1.4c0.2,0,0.4,0.2,0.4,0.4v1.3H1.2V5.5
				C1.2,5.3,1.4,5.1,1.6,5.1 M2.9,8.9H1.6c-0.2,0-0.4-0.2-0.4-0.4V7.3h2.1v1.2C3.3,8.8,3.1,8.9,2.9,8.9 M7.9,8.9H5.3
				c-0.2,0-0.4-0.2-0.4-0.4c0,0,0,0,0,0V7.3h3.4v1.2C8.3,8.8,8.2,8.9,7.9,8.9 M12.5,8.9H9.9c-0.2,0-0.4-0.2-0.4-0.4V7.3h3.4v1.2
				C12.9,8.8,12.7,8.9,12.5,8.9C12.5,8.9,12.5,8.9,12.5,8.9 M17.1,8.9h-2.7c-0.2,0-0.4-0.2-0.4-0.4V7.3h3.4v1.2
				C17.5,8.8,17.3,8.9,17.1,8.9 M21.7,8.9h-2.6c-0.2,0-0.4-0.2-0.4-0.4V7.3h3.4v1.2C22.1,8.8,21.9,8.9,21.7,8.9 M25.4,8.9h-1.4
				c-0.2,0-0.4-0.2-0.4-0.4V7.3h2.1v1.2C25.8,8.8,25.6,8.9,25.4,8.9"/>
			<path class="st0" d="M9.9,1.5L7.7,0.1C7.7,0,7.6,0,7.5,0C7.4,0,7.3,0,7.2,0.1L5.1,1.5C4.9,1.6,4.9,1.8,5,2C5,2,5.1,2,5.1,2.1
				l1.6,1H5.7c-0.1,0-0.2,0.1-0.2,0.2v0.9c0,0.1,0.1,0.2,0.2,0.2h3.5c0.1,0,0.2-0.1,0.2-0.2V3.3c0-0.1-0.1-0.2-0.2-0.2H8.3l1.6-1
				C10,2,10.1,1.8,10,1.6C9.9,1.5,9.9,1.5,9.9,1.5 M7.5,3L5.7,1.8l1.8-1.2l1.8,1.2L7.5,3z"/>
			<path class="st0" d="M21.9,1.5l-2.1-1.4C19.7,0,19.6,0,19.5,0c-0.1,0-0.2,0-0.2,0.1l-2.1,1.4C17,1.6,16.9,1.8,17,2
				c0,0,0.1,0.1,0.1,0.1l1.6,1h-0.9c-0.1,0-0.2,0.1-0.2,0.2c0,0,0,0,0,0v0.9c0,0.1,0.1,0.2,0.2,0.2l0,0h3.5c0.1,0,0.2-0.1,0.2-0.2
				c0,0,0,0,0,0V3.3c0-0.1-0.1-0.2-0.2-0.2c0,0,0,0,0,0h-0.9l1.6-1C22.1,2,22.1,1.8,22,1.6C22,1.5,21.9,1.5,21.9,1.5 M19.5,3
				l-1.8-1.2l1.8-1.2l1.8,1.2L19.5,3z"/>
		</g>
		<g transform="translate(-1 1492)">
			<path class="st1" d="M1368,2278v99h191v-99H1368 M1367,2277h193v101h-193V2277z"/>
			<g transform="translate(1388.929 2289.99)">
				<g>
					<defs>
						<rect id="SVGID_1_" x="0" y="0" width="149.1" height="72.5"/>
					</defs>
					<clipPath id="SVGID_00000094600588766579148070000014652332671980783781_">
						<use xlink:href="#SVGID_1_"  style="overflow:visible;"/>
					</clipPath>
					<g style="clip-path:url(#SVGID_00000094600588766579148070000014652332671980783781_);">
						<path class="st5" d="M90.3,19.4c1-1.7,1.5-3.6,1.3-5.6c-0.2-1.9-1-3.8-2.4-5.2C88.6,8,87.8,7.4,87,6.9c-0.8-0.5-1.7-0.8-2.6-1
							c-0.8-0.2-1.7-0.3-2.5-0.4c-0.1-0.3-0.1-0.5-0.2-0.8c-0.2-0.5-0.4-0.9-0.6-1.4C80.2,2,78.9,1,77.4,0.5c-1.9-0.6-3.9-0.6-5.7,0
							c-1,0.3-1.9,0.9-2.6,1.6c-0.4,0.4-0.7,0.8-1,1.2c-0.3,0.4-0.5,0.9-0.6,1.4c-0.1,0.3-0.2,0.5-0.2,0.8c-0.8,0-1.7,0.2-2.5,0.4
							c-0.9,0.2-1.8,0.6-2.6,1c-0.8,0.5-1.6,1-2.3,1.7c-1.4,1.4-2.2,3.2-2.4,5.2c-0.2,1.9,0.3,3.9,1.3,5.6l0,0
							c-1,1.6-1.5,3.6-1.3,5.5c0.2,2,1,3.8,2.4,5.2c0.7,0.7,1.4,1.3,2.3,1.7c0.8,0.5,1.7,0.8,2.6,1c0.8,0.2,1.7,0.3,2.6,0.4
							c0.1,0.3,0.1,0.5,0.2,0.8c0.3,1,0.9,1.9,1.6,2.6c0.7,0.7,1.6,1.3,2.6,1.7c1.9,0.6,3.9,0.6,5.7,0c1.5-0.5,2.7-1.5,3.5-2.9
							c0.3-0.4,0.5-0.9,0.6-1.4c0.1-0.3,0.2-0.5,0.2-0.8c0.9,0,1.7-0.2,2.5-0.4c0.9-0.2,1.8-0.6,2.6-1c0.8-0.5,1.6-1,2.3-1.7
							c1.4-1.4,2.2-3.2,2.4-5.2C91.8,23,91.3,21,90.3,19.4L90.3,19.4 M81.9,5.7c0.8,0,1.6,0.2,2.5,0.4c0.9,0.2,1.7,0.6,2.5,1
							c0.8,0.5,1.6,1,2.2,1.7c1.3,1.4,2.2,3.2,2.4,5.1c0.2,1.9-0.3,3.8-1.3,5.4c-0.1-0.1-0.2-0.3-0.3-0.4c0.9-1.5,1.3-3.2,1.1-5
							c-0.2-1.8-1-3.5-2.2-4.8c-0.6-0.6-1.3-1.2-2.1-1.6c-0.8-0.4-1.6-0.8-2.4-1c-0.7-0.2-1.5-0.3-2.2-0.3l-0.1,0l-0.2,0
							c-0.1,0-0.2,0-0.3,0c-0.7,0-1.3,0-2,0.1c-0.1,0-0.2,0-0.3,0c0,0-0.1,0-0.1,0l-0.1,0c-0.7,0.1-1.5,0.3-2.2,0.6
							c-0.5,0.2-0.9,0.4-1.4,0.6c0,0-0.1,0-0.1-0.1c-0.1-0.1-0.3-0.1-0.4-0.2c0.6-0.3,1.2-0.5,1.8-0.7C77.2,6.2,78,6,78.7,5.9l0.1,0
							c0.1,0,0.1,0,0.2,0l0.3,0c0.7-0.1,1.3-0.2,2-0.2c0.1,0,0.2,0,0.4,0h0.1L81.9,5.7 M86.5,19.1c0.1,0.1,0.3,0.2,0.4,0.3
							c0.5,0.4,0.9,0.8,1.2,1.4c0,0,0.1,0.1,0.1,0.1c0.1,0.1,0.1,0.3,0.2,0.4c0,0,0,0.1,0.1,0.1c0.5,1,0.7,2.1,0.6,3.3
							c-0.1,1.4-0.7,2.7-1.7,3.7c-1,1-2.2,1.7-3.6,2.1c-0.5,0.1-1.1,0.2-1.6,0.3c0-0.1,0-0.3,0-0.4c0.5,0,1-0.1,1.5-0.3
							c1.3-0.3,2.5-1,3.4-1.9c0.9-0.9,1.4-2.1,1.6-3.4c0.1-1-0.1-2-0.5-2.9c0,0,0-0.1-0.1-0.1c-0.1-0.1-0.1-0.3-0.2-0.4
							c0-0.1-0.1-0.1-0.1-0.2c-0.3-0.5-0.7-1-1.2-1.3c-0.1-0.1-0.3-0.2-0.4-0.3c0,0-0.1-0.1-0.1-0.1c-0.4-0.2-0.8-0.4-1.2-0.5
							c-0.1,0-0.3-0.1-0.4-0.1c0-0.2,0-0.3,0-0.5c0.2,0,0.4,0.1,0.6,0.1c0.5,0.2,1,0.4,1.5,0.7C86.4,19,86.5,19.1,86.5,19.1
							 M82.1,29.9c0-0.2,0-0.4-0.1-0.7l0-0.3l0-0.2l0-0.2c-0.1-0.6-0.3-1.2-0.6-1.7c0.6-0.6,1.1-1.3,1.6-2c0.3-0.5,0.6-1,0.8-1.5
							c0.2,0,0.4,0,0.6-0.1l0.4,0L85,23l0.4-0.1c0.1,0,0.2-0.1,0.3-0.1c0.8-0.2,1.6-0.6,2.3-1.1c0.4,0.9,0.6,1.9,0.5,2.8
							c-0.1,1.2-0.7,2.4-1.5,3.3c-0.9,0.9-2.1,1.6-3.3,1.9c-0.5,0.1-1,0.2-1.5,0.3C82.1,30,82.1,29.9,82.1,29.9 M79.3,32.9
							c0,0,0,0.1,0,0.1c-0.2,0.7-0.6,1.3-1,1.7c-0.5,0.5-1,0.8-1.6,1c-1.3,0.4-2.7,0.4-4,0c-0.6-0.2-1.2-0.6-1.6-1
							c-0.5-0.5-0.8-1.1-1-1.7l0.2,0c0.1,0,0.2,0,0.3,0c0.2,0.6,0.5,1.1,0.9,1.5c0.4,0.4,0.9,0.7,1.5,0.9c1.2,0.4,2.5,0.4,3.7,0
							c0.5-0.2,1-0.5,1.5-0.9c0.4-0.4,0.7-0.9,0.9-1.5c0,0,0-0.1,0-0.1c0-0.1,0.1-0.3,0.1-0.4c0.1-0.4,0.2-0.9,0.2-1.3
							c0-0.2,0-0.4,0-0.7c0-0.1,0-0.2,0-0.4c0,0,0-0.1,0-0.1s0-0.1,0-0.1c0-0.1,0-0.2,0-0.3l0-0.3l0-0.1l0-0.1c0,0,0-0.1,0-0.1
							c0.1-0.1,0.3-0.2,0.4-0.3c0,0.1,0.1,0.2,0.1,0.3l0,0.1l0,0.1l0,0.3c0,0.1,0,0.3,0,0.4c0,0,0,0.1,0,0.1v0c0,0.2,0,0.3,0,0.5
							c0,0.2,0,0.4,0,0.6c0,0.5-0.1,0.9-0.2,1.4C79.4,32.7,79.3,32.8,79.3,32.9 M70,30.5c-0.1,0-0.2,0-0.4,0.1l-0.1,0
							c-0.7,0.1-1.3,0.2-2,0.1h-0.1c-0.1,0-0.2,0-0.4,0l-0.1,0c-0.6,0-1.1-0.1-1.6-0.3c-1.4-0.3-2.6-1.1-3.6-2.1
							c-1-1-1.5-2.3-1.7-3.7c-0.1-1.1,0.1-2.2,0.6-3.2c0.1,0,0.1,0.1,0.2,0.1c0.1,0.1,0.1,0.1,0.2,0.2c-0.4,0.9-0.6,1.9-0.5,2.9
							c0.1,1.3,0.7,2.5,1.6,3.4c0.9,0.9,2.1,1.6,3.4,1.9c0.5,0.1,1,0.2,1.5,0.3c0,0,0.1,0,0.1,0c0.1,0,0.2,0,0.4,0h0.1
							c0.7,0,1.3,0,2-0.1l0,0c0.2,0,0.3-0.1,0.5-0.1l0.1,0l0.4-0.1l0.5-0.1c0,0,0.1,0,0.1,0c0.2,0.1,0.3,0.2,0.5,0.3
							c-0.1,0-0.3,0.1-0.4,0.1l-0.5,0.2c-0.2,0-0.4,0.1-0.6,0.1L70,30.5 M62.6,19.7c-0.1-0.1-0.3-0.2-0.4-0.3
							C61.7,19,61.3,18.5,61,18c0,0,0-0.1-0.1-0.1c-0.1-0.1-0.2-0.3-0.2-0.4c0,0,0-0.1-0.1-0.1c-0.5-1-0.7-2.2-0.6-3.3
							c0.1-1.4,0.7-2.7,1.7-3.6c0.5-0.5,1-0.9,1.7-1.3c0.6-0.3,1.3-0.6,2-0.8c0.5-0.1,1.1-0.2,1.6-0.3c0,0.1,0,0.3,0,0.4
							c-0.5,0-1,0.1-1.5,0.2c-0.7,0.2-1.3,0.4-1.9,0.7c-0.6,0.3-1.1,0.7-1.6,1.2c-0.9,0.9-1.5,2.1-1.6,3.4c-0.1,1,0.1,2,0.5,3
							c0,0,0,0.1,0.1,0.1c0.1,0.1,0.1,0.3,0.2,0.4c0,0,0.1,0.1,0.1,0.1c0.3,0.5,0.7,1,1.2,1.4c0.1,0.1,0.3,0.2,0.4,0.3
							c0,0,0.1,0.1,0.1,0.1c0.4,0.2,0.7,0.4,1.2,0.5c0.1,0,0.3,0.1,0.4,0.1c0,0.2,0,0.3,0,0.5c-0.2,0-0.4-0.1-0.6-0.1
							c-0.5-0.2-1-0.4-1.4-0.7L62.6,19.7 M67,8.9c0,0.2,0,0.4,0.1,0.7l0,0.3l0,0.2l0,0.2l0.1,0.4l0.1,0.4l0.1,0.2l0.1,0.2l0.1,0.3
							c0,0.1,0.1,0.2,0.1,0.2c-0.6,0.6-1.1,1.3-1.6,2.1c-0.3,0.5-0.5,1-0.8,1.5c-0.1,0-0.1,0-0.2,0l-0.4,0l-0.4,0
							c-0.1,0-0.2,0-0.4,0.1c-0.2,0-0.5,0.1-0.7,0.2c-0.8,0.2-1.6,0.6-2.3,1.1c-0.4-0.9-0.6-1.9-0.5-2.9c0.1-1.2,0.7-2.4,1.5-3.3
							c0.4-0.5,1-0.8,1.5-1.1c0.6-0.3,1.2-0.6,1.8-0.7c0.5-0.1,1-0.2,1.5-0.2C67,8.8,67,8.8,67,8.9 M69.6,8.7
							C69.6,8.7,69.6,8.7,69.6,8.7c0-0.2,0-0.3,0-0.5c0-0.2,0-0.4,0-0.6c0-0.5,0.1-0.9,0.2-1.4c0-0.1,0.1-0.3,0.1-0.4
							c0,0,0-0.1,0-0.1c0.2-0.7,0.6-1.2,1-1.7c0.5-0.5,1-0.8,1.6-1c1.3-0.4,2.7-0.4,4,0c0.6,0.2,1.2,0.6,1.6,1
							c0.5,0.5,0.8,1.1,1,1.7l-0.2,0c-0.1,0-0.1,0-0.2,0c-0.2-0.6-0.5-1.1-0.9-1.5c-0.4-0.4-0.9-0.7-1.5-0.9c-1.2-0.4-2.5-0.4-3.7,0
							c-0.5,0.2-1,0.5-1.5,0.9c-0.4,0.4-0.7,0.9-0.9,1.5c0,0,0,0.1,0,0.1c0,0.1-0.1,0.3-0.1,0.4C70.1,6.7,70,7.2,70,7.6
							c0,0.2,0,0.4,0,0.7c0,0.1,0,0.2,0,0.4l0,0.1c0,0,0,0.1,0,0.1c0,0.1,0,0.2,0,0.3l0,0.3l0,0.1l0,0.1l0,0.1
							c-0.1,0.1-0.3,0.2-0.4,0.3l0-0.1l0-0.2l0-0.1l0-0.1l0-0.3c0-0.1,0-0.3,0-0.4C69.6,8.8,69.6,8.7,69.6,8.7 M76.2,8.1
							c0.4,0.2,0.7,0.4,1.1,0.6l0,0c0.2,0.1,0.3,0.2,0.5,0.3l0.1,0.1c0.3,0.2,0.6,0.4,0.9,0.6c0,0.2-0.1,0.3-0.2,0.4
							c-0.4-0.3-0.9-0.6-1.3-0.9l-0.1-0.1C77,9.2,76.9,9.1,76.7,9c-0.6-0.4-1.2-0.7-1.9-1.1c-0.1-0.1-0.2-0.1-0.3-0.1
							c-0.2-0.1-0.3-0.2-0.5-0.2l-0.2-0.1c-0.5-0.2-0.9-0.4-1.4-0.6c-0.7-0.3-1.5-0.5-2.2-0.6c0-0.1,0.1-0.3,0.1-0.4
							C71.2,6,72,6.2,72.7,6.5c0.6,0.2,1.2,0.4,1.7,0.7l0.2,0.1c0.2,0.1,0.3,0.2,0.5,0.3l0,0c0.2,0.1,0.4,0.2,0.5,0.3L76.2,8.1z
							 M81.2,12c-0.1,0.1-0.1,0.3-0.2,0.4c-0.1,0.2-0.2,0.4-0.3,0.5c-0.3,0.4-0.6,0.8-0.8,1.2c-0.1,0.1-0.2,0.2-0.3,0.4l-0.1,0.1
							c-0.1,0.1-0.3,0.3-0.4,0.4c-0.6,0.6-1.2,1.2-1.8,1.8c-0.1,0.1-0.3,0.2-0.4,0.4c-0.1-0.1-0.2-0.2-0.4-0.3
							c0.1-0.1,0.3-0.3,0.4-0.4c0.6-0.6,1.2-1.1,1.7-1.8c0.1-0.2,0.3-0.3,0.4-0.5c0,0,0.1-0.1,0.1-0.1c0.1-0.1,0.2-0.2,0.3-0.3
							c0.3-0.3,0.5-0.7,0.8-1.1c0.1-0.2,0.3-0.4,0.4-0.6c0.1-0.1,0.1-0.3,0.2-0.4c0,0,0-0.1,0.1-0.1c0.2-0.4,0.3-0.9,0.4-1.4l0-0.2
							l0-0.2l0-0.3c0-0.2,0-0.4,0.1-0.6c0-0.1,0-0.1,0-0.2c0.1,0,0.3,0,0.4,0c0,0.1,0,0.1,0,0.2c0,0.2,0,0.4-0.1,0.7l0,0.3l0,0.2
							l0,0.2c-0.1,0.6-0.3,1.1-0.5,1.6C81.2,11.9,81.2,11.9,81.2,12 M84.4,18.8c0.1,0,0.2,0.1,0.3,0.1c0.4,0.1,0.7,0.3,1.1,0.5
							c-0.3,0.2-0.7,0.3-1.1,0.5c-0.1,0-0.1,0.1-0.2,0.1l-0.1,0c0-0.2,0-0.3,0-0.5C84.5,19.2,84.5,19,84.4,18.8 M84.4,20.1
							L84.4,20.1l0.2,0c0.1,0,0.2,0,0.2-0.1c0.4-0.1,0.8-0.3,1.2-0.5c0.1,0.1,0.3,0.2,0.4,0.3C86,20,85.5,20.2,85,20.4
							c-0.2,0.1-0.4,0.1-0.6,0.1l-0.1,0c-0.2,0-0.3,0-0.5,0.1c-0.3,0-0.6,0-0.9,0c-0.4,0-0.8-0.1-1.1-0.2c-0.1,0-0.3-0.1-0.4-0.1
							l-0.1,0c-0.1,0-0.2-0.1-0.3-0.1c-0.4-0.2-0.8-0.3-1.2-0.5c0.2-0.1,0.3-0.2,0.5-0.3c0.3,0.1,0.6,0.3,0.8,0.4
							c0.1,0,0.1,0,0.2,0.1l0.1,0c0.1,0,0.3,0.1,0.4,0.1c0.4,0.1,0.7,0.2,1.1,0.2c0.1,0,0.2,0,0.2,0l0.2,0c0.1,0,0.3,0,0.4,0l0.1,0
							l0.2,0L84.4,20.1L84.4,20.1z M83.6,23.1l-0.3,0c0,0-0.1,0-0.1,0c-0.1,0-0.2,0-0.2,0c-0.6,0-1.2-0.1-1.8-0.3
							c-0.1,0-0.3-0.1-0.4-0.1l-0.1,0c-0.1,0-0.3-0.1-0.4-0.1c-0.8-0.3-1.6-0.7-2.4-1.2c-0.1,0-0.2-0.1-0.2-0.1
							c0.1-0.1,0.3-0.2,0.4-0.3l0.1,0c0.7,0.4,1.5,0.8,2.3,1.1c0.1,0.1,0.3,0.1,0.4,0.2l0.1,0c0.1,0,0.3,0.1,0.4,0.1
							c0.5,0.1,1.1,0.2,1.6,0.2c0.1,0,0.3,0,0.4,0c0.2,0,0.3,0,0.5,0l0.1,0c0.5-0.1,1.1-0.2,1.6-0.3c0.8-0.2,1.5-0.6,2.2-1.1
							c0.1,0.1,0.1,0.3,0.2,0.4c-0.7,0.5-1.5,0.8-2.3,1.1c-0.1,0-0.2,0.1-0.3,0.1L85,22.9L84.6,23l-0.4,0c-0.2,0-0.4,0-0.5,0.1
							C83.7,23.1,83.7,23.1,83.6,23.1L83.6,23.1 M80.7,23.4c-0.2,0.4-0.5,0.7-0.8,1.1l-0.1,0.1c-0.1,0.1-0.2,0.2-0.3,0.3
							c-0.5,0.5-0.9,1-1.5,1.4c-0.1,0.1-0.2,0.2-0.3,0.3l0,0l-0.1,0.1c-0.6,0.4-1.2,0.9-1.8,1.3c-0.2,0.1-0.5,0.3-0.7,0.4L75,28.3
							l-0.3-0.2c0.3-0.2,0.6-0.4,0.9-0.6c0.6-0.4,1.2-0.8,1.8-1.2l0.1,0l0,0c0.1-0.1,0.2-0.2,0.3-0.3c0.5-0.4,1-0.9,1.4-1.4
							c0.1-0.1,0.2-0.2,0.3-0.3c0,0,0.1-0.1,0.1-0.1c0.2-0.3,0.5-0.6,0.7-0.9c0.1-0.1,0.1-0.2,0.2-0.4c0.1,0,0.3,0.1,0.4,0.1
							C80.9,23.1,80.8,23.3,80.7,23.4 M78.8,29.1l0,0.1l0,0.1l0,0.3c0,0.1,0,0.2,0,0.2l-0.4-0.1L78,29.6
							C78.3,29.4,78.6,29.2,78.8,29.1C78.8,29.1,78.8,29.1,78.8,29.1 M78,29.7l0.5,0.1c0.2,0,0.3,0.1,0.5,0.1c0,0,0,0.1,0,0.1
							c0,0.1,0,0.2,0,0.3c-0.2,0-0.4-0.1-0.6-0.1l-0.5-0.2c-0.1,0-0.3-0.1-0.4-0.1l-0.1,0l-0.1,0c-0.2-0.1-0.4-0.1-0.5-0.2
							c-0.5-0.2-1-0.4-1.5-0.7c-0.2-0.1-0.3-0.2-0.5-0.3l-0.2-0.1l-0.3-0.2l-0.1-0.1L74,28.4c-0.2-0.1-0.5-0.3-0.7-0.4
							c-0.6-0.4-1.2-0.8-1.8-1.2c0.1-0.1,0.2-0.2,0.3-0.4c0.6,0.4,1.1,0.8,1.8,1.2c0.3,0.2,0.6,0.4,0.9,0.6l0,0l0.1,0.1l0.4,0.2
							l0.1,0c0.1,0.1,0.3,0.2,0.4,0.2c0.6,0.3,1.1,0.6,1.7,0.8c0.1,0,0.2,0.1,0.3,0.1s0.2,0.1,0.3,0.1C77.8,29.7,77.8,29.7,78,29.7
							C77.9,29.7,77.9,29.7,78,29.7 M70.3,29.6l0-0.3l0-0.1l0-0.1c0,0,0,0,0,0c0.3,0.2,0.5,0.4,0.8,0.5l-0.5,0.1l-0.4,0.1
							C70.2,29.7,70.3,29.6,70.3,29.6 M70.2,28.9c0,0,0,0.1,0,0.1l0,0.1l0,0.1l0,0.3c0,0.1,0,0.2,0,0.3c-0.2,0-0.3,0.1-0.5,0.1
							c0-0.1,0-0.3,0-0.4l0-0.3l0-0.1l0-0.1c0-0.1,0-0.2,0.1-0.3c0,0,0-0.1,0-0.1c0-0.1,0.1-0.3,0.2-0.4c0.1-0.3,0.3-0.7,0.5-1
							c0.2-0.3,0.3-0.5,0.5-0.8c0.1-0.1,0.2-0.2,0.3-0.4l0.1-0.1c0.1-0.2,0.3-0.4,0.4-0.5c0.5-0.6,1-1.1,1.6-1.6
							c0.1-0.1,0.3-0.2,0.4-0.4c0.1-0.1,0.2-0.1,0.3-0.2c0.1,0.1,0.2,0.2,0.4,0.3c-0.1,0.1-0.2,0.2-0.3,0.3
							c-0.1,0.1-0.3,0.2-0.4,0.4c-0.6,0.5-1.1,1-1.6,1.6c-0.1,0.2-0.3,0.3-0.4,0.5c0,0-0.1,0.1-0.1,0.1c-0.1,0.1-0.2,0.2-0.3,0.4
							c-0.2,0.2-0.3,0.5-0.5,0.7c-0.2,0.3-0.4,0.7-0.5,1c-0.1,0.1-0.1,0.3-0.1,0.5C70.3,28.8,70.2,28.9,70.2,28.9 M68,26.7
							c0.1-0.1,0.1-0.3,0.2-0.4c0.1-0.2,0.2-0.3,0.3-0.5c0.3-0.4,0.5-0.9,0.9-1.3c0.1-0.1,0.2-0.2,0.3-0.4c0,0,0.1-0.1,0.1-0.1
							c0.1-0.1,0.2-0.3,0.3-0.4c0.6-0.6,1.2-1.2,1.8-1.8c0.1-0.1,0.2-0.2,0.4-0.3l0,0l0.3,0.3c-0.1,0.1-0.3,0.2-0.4,0.4
							c-0.6,0.6-1.2,1.1-1.8,1.8c-0.1,0.1-0.3,0.3-0.4,0.5c0,0-0.1,0.1-0.1,0.1c-0.1,0.1-0.2,0.2-0.3,0.4c-0.3,0.4-0.5,0.8-0.8,1.1
							c-0.1,0.2-0.2,0.4-0.3,0.6c-0.1,0.1-0.1,0.3-0.2,0.4c0,0,0,0.1-0.1,0.1c-0.2,0.4-0.3,0.9-0.4,1.4l0,0.2l0,0.2l0,0.3
							c0,0.2,0,0.4-0.1,0.6c0,0.1,0,0.1,0,0.2h-0.1c-0.1,0-0.2,0-0.4,0c0-0.1,0-0.1,0-0.2c0-0.2,0-0.4,0.1-0.7l0-0.3l0-0.2l0-0.2
							c0.1-0.6,0.3-1.1,0.5-1.6C67.9,26.8,67.9,26.8,68,26.7 M64.7,19.9c-0.1,0-0.2-0.1-0.4-0.1c-0.4-0.1-0.7-0.3-1.1-0.5
							c0.3-0.2,0.7-0.4,1.1-0.5c0.1,0,0.2-0.1,0.3-0.1c0,0.2,0,0.4,0,0.6S64.7,19.7,64.7,19.9 M64.8,18.6L64.8,18.6
							c-0.2,0-0.3,0.1-0.5,0.1c-0.4,0.1-0.8,0.3-1.2,0.5c-0.1-0.1-0.3-0.2-0.4-0.3c0.5-0.3,1-0.5,1.5-0.7c0.2-0.1,0.3-0.1,0.5-0.1
							l0,0l0.1,0c0,0,0,0,0.1,0l0.3,0l0.1,0l0.1,0c0.1,0,0.2,0,0.3,0l0.3,0l0.1,0c0,0,0.1,0,0.1,0c0.4,0,0.7,0.1,1.1,0.2
							c0.1,0,0.3,0.1,0.4,0.1l0.1,0c0.1,0,0.2,0.1,0.3,0.1c0.4,0.2,0.8,0.3,1.1,0.5c-0.2,0.1-0.3,0.2-0.5,0.3
							c-0.3-0.1-0.5-0.2-0.8-0.4c-0.1,0-0.1-0.1-0.2-0.1c0,0-0.1,0-0.1,0c-0.1,0-0.3-0.1-0.4-0.1c-0.3-0.1-0.7-0.1-1-0.2
							c0,0-0.1,0-0.1,0l-0.1,0l-0.2,0c-0.1,0-0.2,0-0.2,0l-0.2,0h0l-0.2,0C65,18.6,64.9,18.6,64.8,18.6L64.8,18.6 M68.4,15.4
							c0.3-0.4,0.5-0.8,0.8-1.2c0,0,0.1-0.1,0.1-0.1c0.1-0.1,0.2-0.2,0.3-0.3c0.5-0.5,0.9-0.9,1.5-1.4c0.1-0.1,0.2-0.2,0.3-0.2
							l0.1,0l0.1-0.1c0.8-0.6,1.6-1.1,2.4-1.6l0.2,0.1l0.3,0.2c-0.3,0.2-0.6,0.4-1,0.6c-0.6,0.4-1.1,0.7-1.7,1.2l-0.1,0.1l-0.1,0
							c-0.1,0.1-0.2,0.2-0.3,0.2c-0.5,0.4-1,0.9-1.4,1.4c-0.1,0.1-0.2,0.2-0.3,0.3c0,0-0.1,0.1-0.1,0.1c-0.3,0.3-0.5,0.7-0.7,1
							c-0.1,0.1-0.1,0.2-0.2,0.3c-0.1,0-0.3-0.1-0.4-0.1C68.3,15.6,68.3,15.5,68.4,15.4 M70.3,9.7L70.3,9.7l0-0.1l0-0.1l0-0.3
							c0-0.1,0-0.2,0-0.2c0.3,0.1,0.6,0.1,0.9,0.2C70.9,9.3,70.6,9.5,70.3,9.7 M70.2,8.8c0,0,0-0.1,0-0.1c0-0.1,0-0.2,0-0.3
							c0.5,0.1,1,0.2,1.6,0.4c0,0,0.1,0,0.1,0l0,0c0.2,0.1,0.4,0.1,0.5,0.2c0.5,0.2,1,0.4,1.5,0.7c0.2,0.1,0.4,0.2,0.6,0.4
							c0.2,0.1,0.3,0.2,0.5,0.3l0.1,0.1c0.8,0.5,1.6,1,2.4,1.6c-0.1,0.1-0.2,0.2-0.3,0.3c-0.5-0.4-1.1-0.8-1.6-1.1
							c-0.3-0.2-0.6-0.4-1-0.6l0,0l-0.1-0.1l-0.4-0.2l-0.1-0.1c-0.1-0.1-0.3-0.2-0.4-0.2c-0.6-0.3-1.2-0.6-1.8-0.8
							c-0.1,0-0.1-0.1-0.2-0.1c-0.1,0-0.2-0.1-0.3-0.1c-0.1,0-0.1,0-0.2-0.1C70.9,9,70.6,8.9,70.2,8.8 M76.4,16.9
							c0.1,0.1,0.2,0.2,0.4,0.3l0.1,0.1c0.1,0.1,0.2,0.2,0.3,0.3c-0.1,0.1-0.3,0.2-0.4,0.3c-0.1-0.1-0.2-0.1-0.3-0.2l-0.1-0.1
							c-0.1-0.1-0.2-0.2-0.4-0.3c-0.3-0.2-0.6-0.5-0.8-0.7c-0.2-0.2-0.5-0.4-0.7-0.6c-0.1-0.1-0.2-0.2-0.3-0.3l-0.1-0.1
							c-0.2-0.2-0.4-0.4-0.6-0.6c-0.6-0.5-1.1-1.1-1.6-1.6c-0.2-0.2-0.3-0.3-0.4-0.5c0.1-0.1,0.2-0.2,0.3-0.2l0.1,0
							c0.1,0.2,0.3,0.3,0.4,0.5c0.5,0.5,1,1.1,1.6,1.6c0.2,0.2,0.4,0.4,0.6,0.6l0.1,0.1l0.3,0.3c0.2,0.2,0.4,0.4,0.7,0.6
							C75.9,16.4,76.1,16.7,76.4,16.9 M81.3,18.9c-0.1,0-0.1,0-0.2,0.1c-0.3,0.1-0.5,0.2-0.8,0.4c-0.1,0-0.1,0-0.2,0.1
							c-0.2,0.1-0.3,0.2-0.5,0.3c-0.7,0.4-1.3,0.8-1.9,1.2c-0.1,0.1-0.3,0.2-0.4,0.3l0,0l-0.1,0.1c-0.1,0.1-0.2,0.1-0.3,0.2l0,0
							c-0.1-0.1-0.2-0.2-0.3-0.3c0.1-0.1,0.1-0.1,0.2-0.2l0.1-0.1l0.1-0.1c0.1-0.1,0.2-0.1,0.3-0.2c0.6-0.4,1.2-0.8,1.8-1.2
							c0.2-0.1,0.3-0.2,0.5-0.3l0.1-0.1c0.4-0.2,0.8-0.4,1.1-0.5c0.1,0,0.2-0.1,0.3-0.1C81.3,18.6,81.3,18.7,81.3,18.9 M81.3,19.4
							c0,0.1,0,0.2,0,0.3l-0.1-0.1c-0.2-0.1-0.5-0.2-0.7-0.3c0.2-0.1,0.5-0.2,0.7-0.3c0.1,0,0.1,0,0.2-0.1
							C81.3,19.1,81.3,19.3,81.3,19.4 M74.6,28L74.6,28c-0.4-0.2-0.7-0.4-1-0.6c-0.6-0.4-1.2-0.8-1.7-1.2c0.1-0.2,0.3-0.3,0.4-0.5
							c0.5-0.5,1-1.1,1.5-1.5c0.1-0.1,0.3-0.2,0.4-0.4c0.1-0.1,0.2-0.2,0.4-0.3c0.1,0.1,0.2,0.2,0.4,0.3c0.1,0.1,0.3,0.2,0.4,0.4
							c0.5,0.5,1.1,1,1.5,1.5c0.1,0.2,0.3,0.3,0.4,0.5c-0.6,0.4-1.1,0.8-1.8,1.2C75.2,27.6,74.9,27.8,74.6,28L74.6,28z M77,25.6
							c-0.5-0.6-1-1.1-1.6-1.6c-0.1-0.1-0.3-0.2-0.4-0.4c-0.1-0.1-0.2-0.2-0.3-0.3l-0.1-0.1l0,0c-0.1-0.1-0.2-0.2-0.4-0.3L74.2,23
							l-0.2-0.2l-0.1-0.1l-0.1,0c-0.1,0-0.1-0.1-0.1-0.1l-0.5-0.4l-0.4-0.4l-0.1-0.1l-0.3-0.3l0,0l-0.1-0.1l-0.3-0.2
							c0.1-0.1,0.3-0.2,0.4-0.3l0.2,0.2l0,0l0.1,0.1l0.4,0.3l0,0l0.4,0.4l0.5,0.4c0,0,0.1,0,0.1,0.1l0.1,0l0.1,0.1l0.2,0.2
							c0.1,0,0.1,0.1,0.1,0.1l0.3,0.2l0.1,0c0,0,0.1,0.1,0.1,0.1c0.1,0.1,0.2,0.1,0.3,0.2c0.1,0.1,0.3,0.2,0.4,0.4
							c0.6,0.5,1.1,1,1.6,1.6c0.1,0.2,0.3,0.3,0.4,0.5c-0.1,0.1-0.2,0.2-0.3,0.3C77.3,26,77.2,25.8,77,25.6 M67.9,19.9l0.2-0.1
							c0.3-0.1,0.6-0.2,0.8-0.4l0.2-0.1c0.2-0.1,0.3-0.2,0.5-0.3c0.1-0.1,0.3-0.2,0.4-0.2c0.5-0.3,1-0.6,1.5-1
							c0.1-0.1,0.3-0.2,0.4-0.3l0,0l0.1-0.1c0.1-0.1,0.2-0.2,0.3-0.2c0.1,0.1,0.2,0.2,0.3,0.3l-0.3,0.2l-0.1,0.1L72.1,18
							c-0.1,0.1-0.2,0.1-0.2,0.2c-0.5,0.4-1.1,0.8-1.6,1.1c-0.1,0-0.1,0.1-0.2,0.1c-0.2,0.1-0.3,0.2-0.5,0.3l-0.1,0.1
							c-0.4,0.2-0.8,0.4-1.2,0.5c-0.1,0-0.2,0.1-0.3,0.1C67.9,20.2,67.9,20,67.9,19.9 M67.8,19.4c0-0.1,0-0.3,0-0.4
							c0.1,0,0.1,0,0.2,0.1c0.2,0.1,0.5,0.2,0.7,0.3c-0.2,0.1-0.5,0.2-0.7,0.3l-0.1,0C67.8,19.6,67.8,19.5,67.8,19.4 M70.4,14.7
							c0.6,0.6,1.1,1.2,1.7,1.8c0.1,0.1,0.3,0.3,0.4,0.4l0.1,0.1c0.1,0.1,0.2,0.2,0.3,0.3c0.3,0.3,0.6,0.5,0.9,0.8
							c0.2,0.2,0.4,0.3,0.6,0.5c0.1,0.1,0.2,0.2,0.4,0.3l0.1,0.1l0.1,0.1c-0.1,0.1-0.2,0.2-0.4,0.3l-0.1-0.1l-0.1-0.1
							c-0.1-0.1-0.2-0.2-0.4-0.3c-0.2-0.1-0.4-0.3-0.5-0.4c-0.3-0.3-0.7-0.6-1-0.9c-0.1-0.1-0.2-0.2-0.3-0.3l-0.1-0.1
							c-0.1-0.1-0.3-0.2-0.4-0.3c-0.6-0.6-1.2-1.1-1.8-1.8c-0.1-0.1-0.3-0.3-0.4-0.4c0.1-0.1,0.2-0.2,0.3-0.3
							C70.1,14.4,70.3,14.5,70.4,14.7 M74.6,19.4l-0.1-0.1l0.1-0.1l0.1,0.1L74.6,19.4 M70,15.1c0.6,0.6,1.2,1.2,1.8,1.8
							c0.1,0.1,0.2,0.2,0.4,0.3c-0.1,0.1-0.2,0.2-0.3,0.3c-0.1-0.1-0.2-0.1-0.2-0.2c-0.8-0.5-1.6-0.9-2.4-1.2
							C69,16.1,68.9,16,68.7,16c0.1-0.1,0.1-0.2,0.2-0.3c0.2-0.4,0.5-0.7,0.7-1C69.7,14.8,69.9,14.9,70,15.1 M68.9,22.1
							c0.8-0.3,1.6-0.7,2.3-1.1l0.1-0.1l0.1-0.1c0.1-0.1,0.3-0.2,0.4-0.3c0.5-0.3,1-0.7,1.4-1c0.1-0.1,0.2-0.1,0.3-0.2
							c0.1-0.1,0.2-0.2,0.4-0.3L74,19l0.1-0.1c0.1,0.1,0.2,0.2,0.4,0.3l-0.1,0.1l-0.1,0.1c-0.1,0.1-0.2,0.2-0.4,0.3
							c-0.1,0.1-0.2,0.2-0.4,0.3c-0.4,0.3-0.9,0.6-1.3,0.9c-0.1,0.1-0.3,0.2-0.4,0.3l-0.1,0.1c-0.1,0.1-0.2,0.1-0.3,0.2
							c-0.8,0.5-1.5,0.8-2.4,1.2c-0.1,0-0.3,0.1-0.4,0.1c-0.1-0.1-0.1-0.3-0.2-0.4C68.6,22.2,68.7,22.2,68.9,22.1 M69.1,22.6
							c0.8-0.3,1.6-0.7,2.4-1.2c0.1-0.1,0.2-0.1,0.3-0.2l0.3,0.2c-0.1,0.1-0.2,0.2-0.4,0.3c-0.6,0.6-1.3,1.2-1.8,1.8
							c-0.1,0.1-0.2,0.3-0.3,0.4c-0.2-0.3-0.5-0.6-0.6-0.9c-0.1-0.1-0.1-0.2-0.2-0.3C68.8,22.7,69,22.7,69.1,22.6 M78.8,24
							c-0.6-0.6-1.1-1.2-1.8-1.8c-0.1-0.1-0.3-0.3-0.4-0.4l0,0c0,0-0.1,0-0.1-0.1c-0.1-0.1-0.2-0.2-0.4-0.3l0,0
							c-0.2-0.1-0.3-0.3-0.5-0.4l-0.4-0.3l-0.5-0.4l-0.2-0.1L74.3,20l0,0l-0.1-0.1L74,19.7c0.1-0.1,0.2-0.2,0.4-0.3l0.1,0.1l0.1,0.1
							l0,0l0.4,0.3L75,20l0.4,0.4l0.4,0.3c0.2,0.1,0.3,0.3,0.5,0.4c0,0,0.1,0.1,0.1,0.1c0.1,0.1,0.2,0.2,0.4,0.3l0,0l0.1,0.1
							c0.1,0.1,0.3,0.2,0.4,0.3c0.6,0.6,1.2,1.2,1.8,1.8c0.1,0.1,0.2,0.3,0.3,0.4c-0.1,0.1-0.2,0.2-0.3,0.3
							C79.1,24.3,79,24.2,78.8,24 M79.3,23.6c-0.6-0.6-1.2-1.3-1.8-1.8c-0.1-0.1-0.2-0.2-0.4-0.3c0.1-0.1,0.2-0.1,0.3-0.2
							c0.1,0.1,0.2,0.1,0.3,0.2c0.8,0.5,1.6,0.9,2.4,1.2c0.1,0,0.3,0.1,0.4,0.1c-0.1,0.1-0.1,0.2-0.2,0.3c-0.2,0.3-0.4,0.6-0.6,0.9
							C79.5,23.9,79.4,23.8,79.3,23.6 M80.2,16.7c-0.8,0.3-1.6,0.7-2.3,1.1l-0.1,0l-0.1,0.1c-0.1,0.1-0.3,0.2-0.4,0.3
							c-0.5,0.3-1,0.7-1.5,1l-0.2,0.2c-0.1,0.1-0.2,0.2-0.4,0.3l-0.1,0.1L75,19.8l-0.4-0.3l0.1-0.1l0.1-0.1c0.1-0.1,0.2-0.2,0.4-0.3
							s0.2-0.2,0.3-0.3c0.4-0.3,0.9-0.6,1.4-1c0.1-0.1,0.3-0.2,0.4-0.3l0.1-0.1c0.1,0,0.1-0.1,0.2-0.1c0.8-0.5,1.5-0.8,2.4-1.2
							c0.1-0.1,0.3-0.1,0.4-0.2c0.1,0.1,0.1,0.3,0.2,0.4C80.5,16.5,80.4,16.6,80.2,16.7 M80,16.1c-0.8,0.3-1.6,0.7-2.4,1.2
							c-0.1,0.1-0.2,0.1-0.3,0.2c-0.1-0.1-0.2-0.2-0.4-0.3c0.1-0.1,0.2-0.2,0.4-0.3c0.6-0.6,1.2-1.2,1.8-1.8
							c0.1-0.1,0.3-0.3,0.4-0.4c0.3,0.3,0.5,0.7,0.8,1.1c0.1,0.1,0.1,0.2,0.2,0.3C80.3,16,80.1,16.1,80,16.1 M73.9,14.6
							c-0.6-0.5-1.1-1-1.6-1.6c-0.1-0.2-0.3-0.3-0.4-0.5c0.5-0.4,1.1-0.8,1.6-1.1c0.3-0.2,0.6-0.4,1-0.6l0.1,0l0.1,0
							c0.3,0.2,0.7,0.4,1,0.6c0.6,0.4,1.1,0.7,1.6,1.1c-0.1,0.2-0.3,0.3-0.4,0.5c-0.5,0.5-1,1.1-1.6,1.6c-0.2,0.2-0.4,0.4-0.6,0.6
							C74.3,14.9,74.1,14.7,73.9,14.6 M66.1,15.6c0.1,0,0.1,0,0.2,0c0.6,0,1.2,0.1,1.8,0.3c0.1,0,0.3,0.1,0.4,0.1l0.1,0
							c0.2,0.1,0.3,0.1,0.5,0.2c0.8,0.3,1.6,0.7,2.4,1.2c0.1,0,0.1,0.1,0.2,0.1c-0.1,0.1-0.3,0.2-0.4,0.3l0,0
							c-0.7-0.4-1.5-0.8-2.3-1.1c-0.2-0.1-0.3-0.1-0.5-0.2l-0.1,0c-0.1,0-0.3-0.1-0.4-0.1c-0.5-0.1-1.1-0.2-1.6-0.2
							c-0.1,0-0.1,0-0.2,0l-0.2,0l-0.1,0l-0.2,0c-0.1,0-0.2,0-0.3,0l-0.1,0l-0.1,0l-0.3,0l-0.3,0c-0.1,0-0.2,0-0.3,0.1
							c-0.2,0-0.4,0.1-0.7,0.2c-0.8,0.2-1.6,0.6-2.2,1.1c-0.1-0.1-0.1-0.3-0.2-0.4c0.7-0.5,1.5-0.9,2.3-1.1c0.2-0.1,0.5-0.1,0.7-0.2
							c0.1,0,0.2-0.1,0.3-0.1l0.3,0l0.3,0c0,0,0.1,0,0.1,0l0.1,0h0.1l0.3,0L66.1,15.6L66.1,15.6z M68.1,22.8
							c-0.1-0.1-0.1-0.3-0.2-0.4c-0.3-0.6-0.5-1.3-0.6-1.9c0-0.1,0-0.3-0.1-0.4c0,0,0-0.1,0-0.1c0-0.2,0-0.4,0-0.5s0-0.4,0-0.6
							c0.1,0,0.3,0.1,0.4,0.1c0,0.1,0,0.3,0,0.4s0,0.3,0,0.4c0,0,0,0.1,0,0.1c0,0.2,0,0.3,0,0.5c0.1,0.7,0.3,1.3,0.6,1.9
							c0.1,0.1,0.1,0.3,0.2,0.4c0,0,0,0.1,0.1,0.1c0.1,0.1,0.1,0.2,0.2,0.3c0.2,0.3,0.4,0.7,0.7,1c-0.1,0.1-0.2,0.2-0.3,0.4
							c-0.3-0.3-0.5-0.7-0.8-1.1c-0.1-0.1-0.2-0.3-0.3-0.4C68.1,22.9,68.1,22.9,68.1,22.8 M81.1,15.9c0.1,0.1,0.1,0.3,0.2,0.4
							c0.3,0.6,0.5,1.3,0.6,1.9c0,0.1,0,0.3,0.1,0.4c0,0,0,0.1,0,0.1c0,0.2,0,0.4,0,0.6c0,0.2,0,0.3,0,0.5c-0.1,0-0.3-0.1-0.4-0.1
							c0-0.1,0-0.3,0-0.4c0-0.1,0-0.3,0-0.4c0,0,0-0.1,0-0.1c0-0.2,0-0.3,0-0.5c-0.1-0.7-0.3-1.3-0.6-1.9c-0.1-0.1-0.1-0.3-0.2-0.4
							c0,0,0-0.1-0.1-0.1c-0.1-0.1-0.1-0.2-0.2-0.3c-0.2-0.4-0.5-0.7-0.8-1.1c0.1-0.1,0.2-0.2,0.3-0.4c0.3,0.4,0.6,0.8,0.9,1.2
							c0.1,0.1,0.2,0.3,0.2,0.4C81,15.8,81,15.9,81.1,15.9 M79.5,9.2l0,0.3l0,0.1l0,0.1c0,0.1-0.1,0.2-0.1,0.3c0,0,0,0.1,0,0.1
							c0,0.1-0.1,0.3-0.2,0.4c-0.1,0.3-0.3,0.6-0.5,0.9c-0.2,0.3-0.4,0.5-0.6,0.8c-0.1,0.1-0.2,0.2-0.3,0.3l-0.1,0.1
							c-0.1,0.2-0.3,0.3-0.4,0.5c-0.5,0.6-1.1,1.1-1.6,1.6c-0.2,0.2-0.4,0.4-0.6,0.6c-0.1-0.1-0.2-0.2-0.3-0.3
							c0.2-0.2,0.4-0.4,0.6-0.6c0.6-0.5,1.1-1.1,1.6-1.6c0.1-0.2,0.3-0.3,0.4-0.5l0.1-0.1c0.1-0.1,0.2-0.2,0.3-0.3
							c0.2-0.2,0.4-0.5,0.5-0.7c0.2-0.3,0.4-0.6,0.5-1c0.1-0.1,0.1-0.3,0.2-0.4c0,0,0-0.1,0-0.1s0-0.1,0-0.1l0-0.1l0-0.1l0-0.3
							c0-0.1,0-0.2,0-0.3c0.2,0,0.3-0.1,0.5-0.1l0,0C79.5,9,79.5,9.1,79.5,9.2 M78.9,9.2l0,0.3l0,0.1l0,0.1c0,0,0,0,0,0.1
							c-0.3-0.2-0.5-0.4-0.8-0.5c0.3-0.1,0.6-0.2,0.9-0.2C78.9,9,78.9,9.1,78.9,9.2 M72.7,6.4c-0.7-0.3-1.5-0.5-2.2-0.6
							c0.2-0.5,0.5-1,0.9-1.4c0.4-0.4,0.9-0.7,1.4-0.9c1.2-0.4,2.4-0.4,3.6,0c0.5,0.2,1,0.5,1.4,0.9c0.4,0.4,0.7,0.9,0.9,1.4
							c-0.8,0.1-1.5,0.3-2.2,0.6c-0.6,0.2-1.3,0.5-1.9,0.8C74,6.9,73.4,6.6,72.7,6.4 M69.9,10.2L69.9,10.2c0.1-0.1,0.3-0.2,0.4-0.3
							l0.1-0.1c0.3-0.2,0.6-0.4,0.9-0.6c0.1,0,0.3,0.1,0.4,0.1l0.1,0c-0.4,0.3-0.9,0.6-1.3,0.9l-0.1,0.1c-0.1,0.1-0.2,0.1-0.3,0.2
							c0,0-0.1,0.1-0.1,0.1c-0.5,0.4-1.1,0.9-1.5,1.4c-0.1,0.1-0.2,0.2-0.3,0.3l-0.1,0.1c-0.5,0.6-1,1.2-1.4,1.8
							c-0.2,0.4-0.4,0.8-0.6,1.2l-0.1,0l-0.4,0h0c0.2-0.5,0.4-1,0.7-1.4c0.4-0.7,1-1.4,1.5-2c0,0,0.1-0.1,0.1-0.1
							c0.1-0.1,0.2-0.2,0.3-0.3C68.8,11.2,69.3,10.7,69.9,10.2 M64.9,20.6c0-0.2,0-0.3,0-0.5c0,0,0-0.1,0-0.1c0-0.2,0-0.4,0-0.6
							s0-0.4,0-0.6c0.1,0,0.1,0,0.2,0l0.2,0c0,0.2,0,0.4,0,0.7s0,0.4,0,0.6c0,0,0,0.1,0,0.1c0,0.2,0,0.3,0,0.5
							c0.1,0.5,0.2,0.9,0.3,1.4c0.1,0.2,0.1,0.4,0.2,0.6c0.1,0.2,0.1,0.3,0.2,0.4c0,0,0,0.1,0.1,0.1c0.2,0.4,0.4,0.8,0.6,1.2
							c0.4,0.6,0.8,1.2,1.3,1.8c-0.1,0.1-0.1,0.3-0.2,0.4c-0.6-0.6-1.1-1.3-1.5-2c-0.3-0.5-0.5-0.9-0.7-1.4c0,0,0-0.1-0.1-0.1
							c-0.1-0.2-0.1-0.3-0.2-0.5s-0.1-0.3-0.2-0.5C65,21.6,64.9,21.1,64.9,20.6 M66.2,24.7c0.5,0.7,1,1.4,1.6,2
							c-0.3,0.5-0.4,1.1-0.6,1.7l0,0.2l0,0.2l0,0.3c0,0.2,0,0.4-0.1,0.7c0,0.1,0,0.1,0,0.2c-0.5,0-1-0.1-1.5-0.3
							c-0.6-0.2-1.3-0.4-1.8-0.7c-0.6-0.3-1.1-0.7-1.5-1.2c-0.9-0.9-1.4-2.1-1.5-3.3c-0.1-1,0.1-1.9,0.5-2.8
							c0.7,0.5,1.5,0.8,2.3,1.1c0.1,0,0.2,0.1,0.3,0.1l0.4,0.1l0.4,0.1c0.1,0,0.2,0,0.4,0c0.2,0,0.4,0.1,0.6,0.1
							C65.6,23.7,65.9,24.3,66.2,24.7 M73,30.6c-0.4-0.2-0.7-0.4-1.1-0.6l-0.1,0c-0.2-0.1-0.3-0.2-0.5-0.3l-0.1-0.1
							c-0.3-0.2-0.6-0.4-0.9-0.6c0-0.2,0.1-0.3,0.1-0.5c0.4,0.3,0.9,0.6,1.3,0.9l0.1,0.1c0.1,0.1,0.2,0.1,0.2,0.2l0.2,0.1
							c0.6,0.4,1.2,0.7,1.9,1.1c0.1,0,0.2,0.1,0.2,0.1c0.2,0.1,0.3,0.2,0.5,0.2l0.2,0.1c0.5,0.2,0.9,0.4,1.4,0.6
							c0.2,0.1,0.4,0.1,0.6,0.2l0.6,0.2c0.3,0.1,0.6,0.1,0.9,0.2c0,0.1-0.1,0.3-0.1,0.4c-0.3-0.1-0.6-0.1-0.9-0.2l-0.6-0.2
							c-0.2-0.1-0.4-0.1-0.6-0.2c-0.6-0.2-1.2-0.5-1.8-0.7c-0.1,0-0.1-0.1-0.2-0.1c-0.2-0.1-0.3-0.1-0.4-0.2l-0.1,0
							c-0.2-0.1-0.3-0.2-0.5-0.3L73,30.6z M76.4,32.4c0.2,0.1,0.4,0.1,0.6,0.2l0.6,0.2c0.3,0.1,0.6,0.1,0.9,0.2
							c-0.2,0.5-0.5,1-0.9,1.4c-0.4,0.4-0.9,0.7-1.4,0.9c-1.2,0.4-2.4,0.4-3.6,0c-0.5-0.2-1-0.5-1.4-0.9C71,34,70.7,33.5,70.5,33
							c0.3-0.1,0.6-0.1,0.9-0.2l0.6-0.2c0.2-0.1,0.4-0.1,0.6-0.2c0.6-0.2,1.3-0.5,1.9-0.8C75.2,31.9,75.8,32.2,76.4,32.4 M79.3,28.5
							L79.3,28.5c-0.2,0.1-0.3,0.2-0.4,0.3c0,0-0.1,0.1-0.1,0.1c-0.3,0.2-0.6,0.4-0.9,0.6c-0.1,0-0.3-0.1-0.4-0.1l-0.2-0.1
							c0.4-0.3,0.9-0.6,1.3-0.9l0.1-0.1c0.1-0.1,0.1-0.1,0.2-0.2c0.1,0,0.1-0.1,0.2-0.1c0.5-0.4,1.1-0.9,1.6-1.4
							c0.1-0.1,0.2-0.2,0.3-0.3l0.1-0.1c0.5-0.5,0.9-1.1,1.3-1.8c0.2-0.4,0.4-0.8,0.6-1.2l0.2,0l0.3,0c-0.2,0.5-0.5,1-0.7,1.5
							c-0.4,0.7-0.9,1.4-1.5,2c0,0-0.1,0.1-0.1,0.1c-0.1,0.1-0.2,0.2-0.3,0.3C80.4,27.6,79.8,28.1,79.3,28.5 M84.2,18.2
							c0,0.2,0,0.3,0,0.5c0,0,0,0.1,0,0.1c0,0.2,0,0.4,0,0.6c0,0.2,0,0.4,0,0.5l-0.2,0l-0.2,0h0c0-0.2,0-0.4,0-0.6
							c0-0.2,0-0.5,0-0.7c0,0,0-0.1,0-0.1c0-0.2,0-0.3,0-0.5c-0.1-0.5-0.1-0.9-0.3-1.3c-0.1-0.2-0.1-0.5-0.2-0.7
							c-0.1-0.2-0.1-0.3-0.2-0.5c0,0,0-0.1-0.1-0.1c-0.2-0.4-0.4-0.8-0.6-1.1c-0.4-0.7-0.9-1.3-1.4-1.9c0.1-0.1,0.2-0.3,0.2-0.4
							c0.6,0.6,1.1,1.3,1.6,2.1c0.3,0.4,0.5,0.9,0.7,1.4c0,0,0,0.1,0.1,0.1c0.1,0.2,0.1,0.3,0.2,0.5c0.1,0.2,0.1,0.4,0.2,0.5
							C84.1,17.2,84.2,17.7,84.2,18.2 M82.9,14.1c-0.5-0.8-1-1.5-1.6-2.1c0.3-0.5,0.5-1.1,0.6-1.7l0-0.2l0-0.2l0-0.3
							c0-0.2,0-0.4,0.1-0.7c0-0.1,0-0.1,0-0.2c0.5,0,1,0.1,1.5,0.2c0.6,0.2,1.3,0.4,1.8,0.7c0.6,0.3,1.1,0.7,1.5,1.2
							c0.9,0.9,1.4,2.1,1.5,3.3c0.1,1,0,2-0.4,2.9c-0.7-0.5-1.5-0.9-2.3-1.1c-0.2-0.1-0.5-0.1-0.7-0.2c-0.1,0-0.2-0.1-0.4-0.1
							l-0.4,0c-0.2,0-0.4-0.1-0.6-0.1C83.5,15,83.2,14.5,82.9,14.1 M88.6,14.1c-0.1-1.3-0.7-2.5-1.6-3.4c-0.5-0.5-1-0.9-1.5-1.2
							c-0.6-0.3-1.2-0.6-1.9-0.7c-0.5-0.1-1-0.2-1.5-0.3l-0.1,0c-0.1,0-0.3,0-0.4,0c-0.7,0-1.3,0-2,0.1l0,0c-0.1,0-0.3,0.1-0.4,0.1
							l-0.1,0c-0.4,0.1-0.7,0.2-1,0.3c-0.2-0.1-0.3-0.2-0.5-0.3c0.5-0.2,1-0.3,1.6-0.4l0.1,0c0.1,0,0.2,0,0.3-0.1c0,0,0.1,0,0.1,0
							c0.7-0.1,1.3-0.2,2-0.1c0.1,0,0.3,0,0.4,0c0,0,0.1,0,0.1,0c0.5,0,1.1,0.1,1.6,0.3c0.7,0.2,1.4,0.4,2,0.8
							c0.6,0.3,1.2,0.8,1.7,1.3c1,1,1.6,2.3,1.7,3.7c0.1,1.1-0.1,2.3-0.6,3.3c-0.1-0.1-0.1-0.1-0.2-0.2s-0.1-0.1-0.2-0.1
							C88.6,16.2,88.7,15.1,88.6,14.1 M67.7,4.8c0.3-1,0.9-1.8,1.6-2.5c0.7-0.7,1.6-1.3,2.5-1.6c1.8-0.6,3.8-0.6,5.7,0
							c1,0.3,1.8,0.9,2.5,1.6c0.7,0.7,1.2,1.6,1.6,2.5c0.1,0.2,0.2,0.5,0.2,0.7h-0.1c-0.1,0-0.3,0-0.4,0c-0.1-0.2-0.1-0.4-0.2-0.6
							c-0.3-0.9-0.8-1.7-1.5-2.4C79,1.9,78.1,1.3,77.2,1c-1.7-0.6-3.6-0.6-5.4,0c-0.9,0.3-1.7,0.8-2.4,1.5c-0.7,0.7-1.2,1.5-1.5,2.4
							c-0.1,0.2-0.1,0.4-0.2,0.6c0,0,0,0.1,0,0.1c0,0.1-0.1,0.3-0.1,0.4c0,0,0,0.1,0,0.1c0,0.2-0.1,0.4-0.1,0.7s0,0.4,0,0.7
							c0,0.2,0,0.4,0,0.5c0,0.1,0,0.3,0,0.4c0,0,0,0.1,0,0.1l0,0.2c0,0.2,0,0.4,0.1,0.6l0,0.3l0,0.2l0,0.2l0.1,0.4l0.1,0.3L68,11
							l0.1,0.2l0.1,0.3l0,0c-0.1,0.1-0.2,0.2-0.3,0.3c0-0.1-0.1-0.1-0.1-0.2l-0.1-0.3l-0.1-0.2L67.5,11l-0.1-0.4l-0.1-0.4l0-0.2
							l0-0.2l0-0.3c0-0.2,0-0.4-0.1-0.7c0-0.1,0-0.1,0-0.2c0,0,0-0.1,0-0.1c0-0.1,0-0.3,0-0.4c0-0.2,0-0.4,0-0.6c0-0.2,0-0.5,0-0.7
							s0-0.5,0.1-0.7c0,0,0,0,0-0.1c0-0.2,0.1-0.3,0.1-0.4c0,0,0-0.1,0-0.1C67.5,5.3,67.6,5,67.7,4.8 M57.7,13.8
							c0.2-1.9,1-3.7,2.4-5.1C60.7,8,61.4,7.5,62.3,7c0.8-0.4,1.7-0.8,2.6-1c0.8-0.2,1.6-0.3,2.4-0.4c0,0.2-0.1,0.3-0.1,0.5
							c-0.8,0-1.5,0.2-2.2,0.3c-0.9,0.2-1.7,0.5-2.4,1c-0.8,0.4-1.5,1-2.1,1.6c-1.3,1.3-2.1,3-2.2,4.8c-0.2,1.7,0.2,3.5,1.1,5
							c0,0,0.1,0.1,0.1,0.1c0,0,0,0,0,0.1c0.1,0.1,0.1,0.2,0.2,0.3c0.4,0.6,0.9,1.1,1.4,1.5c0.1,0.1,0.1,0.1,0.2,0.2
							c0,0,0.1,0.1,0.1,0.1l0.1,0.1c0.7,0.5,1.4,0.8,2.2,1.1c0.5,0.2,1.1,0.3,1.6,0.3c0.1,0.2,0.1,0.3,0.2,0.5c-0.2,0-0.4,0-0.5-0.1
							c-0.1,0-0.2,0-0.3,0l-0.3-0.1l-0.3-0.1c-0.1,0-0.2-0.1-0.3-0.1c-0.8-0.2-1.6-0.6-2.3-1.1c0,0-0.1-0.1-0.1-0.1
							c-0.1,0-0.1-0.1-0.2-0.1s-0.1-0.1-0.2-0.1c-0.5-0.4-1-0.9-1.4-1.5c-0.1-0.1-0.2-0.3-0.3-0.4c0,0,0-0.1-0.1-0.1l0,0
							C57.9,17.6,57.5,15.7,57.7,13.8 M67.2,33.1c-0.8,0-1.7-0.2-2.5-0.4c-0.9-0.2-1.7-0.6-2.5-1c-0.8-0.5-1.6-1-2.2-1.7
							c-1.3-1.4-2.2-3.2-2.3-5.1c-0.2-1.9,0.3-3.8,1.3-5.4c0.1,0.1,0.2,0.3,0.3,0.4c-0.9,1.5-1.3,3.2-1.1,4.9
							c0.2,1.8,0.9,3.5,2.2,4.8c0.6,0.6,1.3,1.2,2.1,1.6c0.8,0.4,1.6,0.8,2.4,1c0.8,0.2,1.5,0.3,2.3,0.4l0.1,0l0.1,0
							c0.1,0,0.2,0,0.3,0c0.7,0,1.3,0,2-0.1l0.2,0c0.1,0,0.1,0,0.2,0c0,0,0.1,0,0.1,0c0.3-0.1,0.6-0.1,0.9-0.2l0.6-0.2
							c0.2-0.1,0.4-0.1,0.6-0.2c0.5-0.2,1-0.4,1.4-0.6l0.1,0.1c0.1,0.1,0.2,0.1,0.4,0.2c-0.6,0.3-1.2,0.5-1.8,0.7
							c-0.2,0.1-0.4,0.1-0.6,0.2l-0.6,0.2c-0.3,0.1-0.6,0.1-0.9,0.2l-0.1,0c-0.1,0-0.2,0-0.2,0l-0.2,0c-0.7,0.1-1.3,0.2-2,0.2
							c-0.1,0-0.3,0-0.4,0h0L67.2,33.1 M81.5,34c-0.2,0.5-0.4,0.9-0.6,1.3c-0.3,0.4-0.6,0.8-0.9,1.2c-0.7,0.7-1.6,1.3-2.5,1.6
							c-1.8,0.6-3.8,0.6-5.7,0c-1-0.3-1.8-0.9-2.5-1.6c-0.7-0.7-1.2-1.6-1.6-2.5c-0.1-0.2-0.2-0.5-0.2-0.7l0,0c0.2,0,0.3,0,0.5,0
							c0.1,0.2,0.1,0.4,0.2,0.6c0.3,0.9,0.8,1.7,1.5,2.4c0.7,0.7,1.5,1.2,2.4,1.5c1.7,0.6,3.6,0.6,5.4,0c1.4-0.5,2.5-1.4,3.2-2.6
							c0.2-0.4,0.4-0.8,0.6-1.3c0.1-0.2,0.1-0.4,0.2-0.6c0,0,0-0.1,0-0.1c0-0.1,0.1-0.3,0.1-0.4c0,0,0-0.1,0-0.1
							c0-0.2,0.1-0.4,0.1-0.7s0-0.4,0-0.7c0-0.2,0-0.4,0-0.5c0-0.1,0-0.3,0-0.4l0-0.1c0-0.1,0-0.1,0-0.2c0-0.2,0-0.4-0.1-0.6l0-0.3
							l0-0.2l0-0.2c-0.1-0.5-0.2-0.9-0.4-1.4c0.1-0.1,0.2-0.2,0.3-0.3c0.2,0.5,0.4,1.1,0.5,1.6l0,0.2l0,0.2l0,0.3
							c0,0.2,0,0.4,0.1,0.7c0,0.1,0,0.1,0,0.2l0,0.1c0,0.1,0,0.3,0,0.4c0,0.2,0,0.4,0,0.6c0,0.2,0,0.5,0,0.7s-0.1,0.5-0.1,0.7
							c0,0,0,0,0,0c0,0.2-0.1,0.3-0.1,0.5c0,0,0,0.1,0,0.1C81.6,33.5,81.6,33.8,81.5,34 M91.5,24.9c-0.2,1.9-1,3.7-2.3,5.1
							c-0.7,0.7-1.4,1.3-2.2,1.7c-0.8,0.4-1.7,0.8-2.5,1c-0.8,0.2-1.6,0.3-2.5,0.4c0-0.2,0.1-0.3,0.1-0.5c0.8,0,1.5-0.2,2.3-0.4
							c0.9-0.2,1.7-0.5,2.4-1c0.8-0.4,1.5-1,2.1-1.6c1.3-1.3,2.1-3,2.2-4.8c0.2-1.7-0.2-3.5-1.1-4.9c0,0-0.1-0.1-0.1-0.1
							s0-0.1-0.1-0.1c-0.1-0.1-0.1-0.2-0.2-0.3c-0.4-0.6-0.9-1.1-1.4-1.5c-0.1-0.1-0.2-0.1-0.3-0.2c0,0-0.1,0-0.1-0.1l-0.1-0.1
							c-0.7-0.5-1.4-0.8-2.2-1.1c-0.2-0.1-0.4-0.1-0.7-0.2c-0.1,0-0.2,0-0.3-0.1l-0.3,0l-0.3,0c-0.1-0.2-0.1-0.3-0.2-0.5
							c0.2,0,0.3,0,0.5,0.1l0.4,0c0.1,0,0.2,0,0.3,0.1c0.2,0,0.5,0.1,0.7,0.2c0.8,0.2,1.6,0.6,2.3,1.1l0.1,0.1
							c0.1,0,0.1,0.1,0.1,0.1c0.1,0.1,0.1,0.1,0.2,0.2c0.5,0.4,1,0.9,1.4,1.5c0.1,0.1,0.2,0.3,0.3,0.4l0,0c0,0,0,0.1,0,0.1
							C91.2,21.1,91.7,23,91.5,24.9"/>
						<path class="st5" d="M3.8,54L7,58c0.2,0.3,0.3,0.5,0.3,0.5c0,0.1-0.1,0.2-0.2,0.3v0.1h3v-0.1c-0.2-0.1-0.4-0.2-0.6-0.4
							c-0.2-0.2-0.4-0.4-0.6-0.6l-3.9-5l4.2-3.7c0.2-0.2,0.4-0.3,0.6-0.3v-0.1H6.4v0.1c0,0,0.1,0,0.1,0.1c0.1,0.1,0.1,0.2,0.1,0.3
							c0,0.1-0.1,0.3-0.2,0.3c-0.1,0.1-0.2,0.2-0.4,0.4l-4,3.5v-4.1c0-0.1,0.1-0.3,0.2-0.4c0.1,0,0.1-0.1,0.2-0.1v-0.1H0v0.1
							c0.2,0,0.4,0.2,0.4,0.5v9.1c0,0.2-0.2,0.5-0.4,0.5v0.1h2.5v-0.1c-0.1,0-0.1-0.1-0.2-0.1c-0.1-0.1-0.2-0.2-0.2-0.4v-2.9L3.8,54
							z"/>
						<path class="st5" d="M19.7,57.9c0.1,0.2,0.1,0.4,0.2,0.6c0,0.1-0.1,0.2-0.2,0.3c0,0-0.1,0-0.1,0v0.1h2.9v-0.1
							c-0.1-0.1-0.2-0.1-0.3-0.2c-0.1-0.1-0.2-0.2-0.3-0.4l-3.7-8.1c-0.1-0.2-0.1-0.3-0.2-0.4c0-0.1-0.1-0.2-0.1-0.4
							c0-0.2,0.1-0.3,0.2-0.4c0.1,0,0.1-0.1,0.2-0.1v-0.1h-2.8v0.1c0.1,0,0.1,0.1,0.2,0.1c0.1,0.1,0.2,0.2,0.2,0.4
							c0,0.2,0,0.3-0.1,0.4c-0.1,0.1-0.1,0.3-0.2,0.5L12.3,58c-0.1,0.2-0.2,0.4-0.3,0.5c-0.1,0.1-0.2,0.2-0.3,0.3v0.1h2.3v-0.1
							c-0.2,0-0.3-0.2-0.3-0.4c0-0.2,0.1-0.5,0.2-0.7l0.7-1.5H19L19.7,57.9z M14.9,55.1l1.9-4.2l1.7,4.2H14.9z"/>
						<path class="st5" d="M30.3,58.8l3.5-7.2h0.3v6.8c0,0.3-0.2,0.5-0.5,0.5c0,0,0,0,0,0v0.1h2.5v-0.1c-0.1,0-0.1-0.1-0.2-0.1
							c-0.1-0.1-0.2-0.2-0.2-0.4v-9.1c0-0.1,0.1-0.3,0.2-0.4c0.1,0,0.1-0.1,0.2-0.1v-0.1h-3v0.1c0.1,0,0.2,0.2,0.2,0.3
							c0,0.1,0,0.2-0.1,0.3c0,0.1-0.1,0.2-0.2,0.4l-2.7,5.4l-2.7-5.4c-0.1-0.1-0.1-0.2-0.2-0.3c0-0.1-0.1-0.2-0.1-0.3
							c0-0.1,0.1-0.2,0.2-0.3c0,0,0.1,0,0.1-0.1v-0.1h-3.1v0.1c0.1,0,0.1,0,0.2,0.1c0.1,0.1,0.2,0.2,0.2,0.4v9.1
							c0,0.1-0.1,0.3-0.2,0.4c-0.1,0-0.1,0.1-0.2,0.1v0.1h2.4v-0.1c-0.4,0-0.5-0.3-0.5-0.5v-6.8h0.3L30.3,58.8z"/>
						<path class="st5" d="M49.1,58.9c0.2,0,0.3,0.2,0.3,0.3h0v-2.4h-0.1c0,0.1-0.1,0.3-0.2,0.3c-0.2,0.1-0.3,0.2-0.5,0.2h-6.1v-3
							h3.7c0.2,0,0.4,0,0.6,0.2c0.2,0.1,0.3,0.3,0.3,0.6h0v-2.8h0c0,0.2-0.1,0.4-0.3,0.6c-0.2,0.1-0.4,0.1-0.6,0.1h-3.7v-2.8h6
							c0.2,0,0.4,0,0.6,0.1c0.1,0.1,0.2,0.2,0.2,0.3h0.1v-2.3h-0.1c0,0.1-0.1,0.2-0.2,0.3c-0.2,0.1-0.4,0.2-0.6,0.2h-8.1v0.1
							c0.2,0.1,0.3,0.3,0.3,0.5v9.1c0,0.1,0,0.3-0.1,0.4c-0.1,0-0.1,0.1-0.2,0.1v0.1h8.2C48.8,58.9,48.9,58.9,49.1,58.9"/>
						<path class="st5" d="M60.8,57.9c0.2,0.2,0.3,0.4,0.3,0.6c0,0.1-0.1,0.3-0.2,0.3v0.1h2.6v-0.1c-0.2-0.1-0.4-0.3-0.3-0.5v-9.1
							c0-0.2,0.1-0.4,0.3-0.5v-0.1h-2.4v0.1c0.3,0,0.5,0.2,0.5,0.5c0,0,0,0,0,0V56l-5.4-6.2c-0.3-0.4-0.4-0.6-0.4-0.7
							c0-0.1,0-0.2,0.1-0.3v-0.1h-2.8v0.1c0.2,0.1,0.4,0.3,0.3,0.5v9.1c0,0.2-0.1,0.4-0.3,0.5v0.1h2.4v-0.1c-0.2,0-0.4-0.2-0.4-0.5
							v-7L60.8,57.9z"/>
						<path class="st5" d="M75.8,49.8c-0.5-0.4-1.2-0.8-1.8-1c-1.3-0.4-2.7-0.4-3.9,0c-0.7,0.2-1.3,0.5-1.8,1c-0.6,0.4-1,1-1.3,1.6
							c-0.7,1.5-0.7,3.2,0,4.6c0.3,0.6,0.8,1.2,1.3,1.6c0.5,0.4,1.2,0.7,1.8,0.9c1.3,0.4,2.7,0.4,3.9,0c0.7-0.2,1.3-0.5,1.8-0.9
							c0.6-0.4,1-1,1.3-1.6c0.7-1.5,0.7-3.2,0-4.6C76.8,50.8,76.4,50.3,75.8,49.8 M75.6,55.3c-0.2,0.4-0.5,0.8-0.9,1.2
							c-0.4,0.3-0.8,0.6-1.3,0.7c-0.9,0.3-1.9,0.3-2.8,0c-0.5-0.2-0.9-0.4-1.3-0.7c-0.4-0.3-0.7-0.7-0.9-1.2c-0.5-1-0.5-2.1,0-3.1
							c0.2-0.4,0.5-0.8,0.9-1.2c1.6-1.3,3.8-1.3,5.4,0c0.4,0.3,0.7,0.7,0.9,1.2C76.1,53.2,76.1,54.4,75.6,55.3"/>
						<path class="st5" d="M83.2,48.7h-2.7v0.1c0.3,0,0.5,0.2,0.5,0.5c0,0,0,0,0,0v9.1c0,0.3-0.2,0.5-0.5,0.5c0,0,0,0,0,0v0.1h2.7
							v-0.1c-0.3,0-0.5-0.2-0.5-0.5c0,0,0,0,0,0v-9.1C82.7,49,82.9,48.8,83.2,48.7C83.2,48.8,83.2,48.8,83.2,48.7L83.2,48.7z"/>
						<path class="st5" d="M101.7,48.7h-2.5v0.1c0.2,0,0.4,0.2,0.4,0.5v3.5h-6.1v-3.5c0-0.1,0-0.3,0.1-0.4c0.1,0,0.1-0.1,0.2-0.1
							v-0.1h-2.4v0.1c0.2,0.1,0.4,0.3,0.3,0.5v9.1c0,0.2-0.1,0.4-0.3,0.5v0.1h2.4v-0.1c-0.1,0-0.1-0.1-0.2-0.1
							c-0.1-0.1-0.2-0.2-0.1-0.4v-3.9h6.1v3.9c0,0.2-0.2,0.5-0.4,0.5v0.1h2.5v-0.1c-0.1,0-0.1-0.1-0.2-0.1c-0.1-0.1-0.2-0.2-0.1-0.4
							v-9.1c0-0.1,0-0.3,0.1-0.4C101.5,48.8,101.6,48.8,101.7,48.7L101.7,48.7z"/>
						<path class="st5" d="M114.8,56.1c0.7-1.5,0.7-3.2,0-4.6c-0.3-0.6-0.8-1.2-1.3-1.6c-0.5-0.4-1.2-0.8-1.8-1
							c-1.3-0.4-2.7-0.4-3.9,0c-0.7,0.2-1.3,0.5-1.8,1c-0.6,0.4-1,1-1.3,1.6c-0.7,1.5-0.7,3.2,0,4.6c0.3,0.6,0.8,1.2,1.3,1.6
							c0.5,0.4,1.2,0.7,1.8,0.9c1.3,0.4,2.7,0.4,3.9,0c0.7-0.2,1.3-0.5,1.8-0.9C114.1,57.3,114.5,56.7,114.8,56.1 M112.4,56.5
							c-0.4,0.3-0.8,0.6-1.3,0.7c-0.9,0.3-1.9,0.3-2.8,0c-0.5-0.2-0.9-0.4-1.3-0.7c-0.4-0.3-0.7-0.7-0.9-1.2c-0.5-1-0.5-2.1,0-3.1
							c0.2-0.4,0.5-0.8,0.9-1.2c1.6-1.3,3.8-1.3,5.4,0c0.4,0.3,0.7,0.7,0.9,1.2c0.5,1,0.5,2.1,0,3.1
							C113.1,55.8,112.8,56.2,112.4,56.5"/>
						<path class="st5" d="M125.1,50.2c0.1,0,0.3,0,0.4,0.1c0.1,0.1,0.2,0.2,0.2,0.4h0v-2.5h0c0,0.1-0.1,0.3-0.2,0.4
							c-0.1,0.1-0.3,0.1-0.4,0.1h-8c-0.1,0-0.3,0-0.4-0.1c-0.1-0.1-0.2-0.2-0.2-0.4h0v2.5h0c0-0.1,0.1-0.3,0.2-0.4
							c0.1-0.1,0.3-0.1,0.4-0.1h3.1v8.1c0,0.1,0,0.3-0.1,0.4c-0.1,0-0.1,0.1-0.2,0.1v0.1h2.5v-0.1c-0.2,0-0.4-0.2-0.4-0.5v-8.1
							H125.1z"/>
						<path class="st5" d="M137,58.9c0.2,0,0.3,0.2,0.3,0.3h0v-2.4h-0.1c0,0.1-0.1,0.3-0.2,0.3c-0.2,0.1-0.3,0.2-0.5,0.2h-6.1v-3
							h3.7c0.2,0,0.4,0,0.6,0.2c0.2,0.1,0.3,0.3,0.3,0.6h0v-2.8h0c0,0.2-0.1,0.4-0.3,0.6c-0.2,0.1-0.4,0.1-0.6,0.1h-3.7v-2.8h6
							c0.2,0,0.4,0,0.6,0.1c0.1,0.1,0.2,0.2,0.2,0.3h0.1v-2.3h-0.1c0,0.1-0.1,0.2-0.2,0.3c-0.2,0.1-0.4,0.2-0.6,0.2h-8.1v0.1
							c0.2,0.1,0.3,0.3,0.3,0.5v9.1c0,0.2-0.1,0.4-0.3,0.5v0.1h8.2C136.7,58.9,136.8,58.9,137,58.9"/>
						<path class="st5" d="M148.8,58.9c0.2,0,0.3,0.2,0.3,0.3h0v-2.4h-0.1c0,0.1-0.1,0.3-0.2,0.3c-0.2,0.1-0.3,0.2-0.5,0.2h-6.1
							v-8.1c0-0.2,0.1-0.4,0.5-0.5v-0.1h-2.8v0.1c0.5,0,0.5,0.3,0.5,0.5v9.1c0,0.2-0.1,0.4-0.5,0.5v0.1h8.4
							C148.5,58.9,148.7,58.9,148.8,58.9"/>
						<path class="st5" d="M91.8,71.1c0,0.3,0,0.6-0.1,0.8c-0.1,0.2-0.2,0.3-0.4,0.3c-0.1,0-0.2,0.1-0.3,0.1c-0.1,0-0.2,0-0.2-0.1
							c-0.1-0.1-0.1-0.1-0.1-0.2c0-0.1,0.1-0.1,0.3-0.2c0.2-0.1,0.3-0.2,0.5-0.3c0.1-0.1,0.2-0.3,0.3-0.4L91.8,71.1z M91.9,67h0.1
							v-0.2c0-0.2,0-0.3-0.1-0.5c0.2,0,0.5,0.1,0.7,0.1c0.1,0,0.2,0,0.2,0.1c0,0,0,0.1-0.1,0.1s-0.1,0.1-0.1,0.1V67h0.3
							c0.1-0.1,0.1-0.1,0.2-0.2c0.1-0.1,0.2-0.2,0.2-0.2c0.1,0,0.2,0.1,0.3,0.2c0.1,0.1,0.1,0.2,0.2,0.2c0,0.1,0,0.1-0.1,0.1h-1.1
							v0.6h0.4c0.1,0,0.1-0.1,0.2-0.2c0.1-0.1,0.2-0.2,0.2-0.2c0.1,0,0.1,0.1,0.3,0.2s0.2,0.2,0.2,0.2c0,0.1,0,0.1-0.1,0.1H93v0.5
							c0,0.1,0,0.1,0.1,0.1c0.1,0,0.1,0,0.2,0c0.1,0,0.1,0,0.1-0.1c0.1-0.2,0.1-0.3,0.1-0.5h0.1l0,0.2c0,0.1,0.1,0.2,0.2,0.3
							c0.1,0.1,0.1,0.1,0.1,0.2c0,0.1,0,0.1-0.1,0.2c-0.2,0.1-0.4,0.1-0.6,0.1h-0.3c0,0-0.1,0-0.1,0c0,0,0,0,0,0s0,0.1-0.1,0.1
							s-0.1,0.1-0.1,0.1v0.2h0.2c0.1,0,0.1-0.1,0.2-0.2c0.1-0.1,0.2-0.2,0.2-0.2c0.1,0,0.2,0.1,0.3,0.2c0.1,0.1,0.2,0.2,0.2,0.2
							c0,0.1,0,0.1-0.1,0.1h-1v0.6c0.4,0,0.8-0.1,1.1-0.1l0,0.1c-0.7,0.3-1.5,0.6-2.3,0.7c-0.1,0-0.1,0-0.1,0.1c0,0,0,0.1,0,0.1
							c0,0.1,0,0.1-0.1,0.1c-0.1,0-0.2-0.1-0.3-0.4c0-0.1-0.1-0.2-0.1-0.4c0.4,0,0.8,0,1.2-0.1v-0.6H92c-0.4,0-0.7,0-0.8,0L91,69.3
							c0.3,0,0.6,0.1,0.9,0h0.1v-0.2c0-0.2,0-0.3-0.1-0.5c0.2,0,0.4,0.1,0.7,0.1c-0.1-0.1-0.1-0.2-0.1-0.3v-0.7h-0.4
							c0,0.2-0.1,0.3-0.1,0.5c-0.1,0.1-0.1,0.2-0.2,0.3c-0.1,0.1-0.2,0.2-0.4,0.2c-0.2,0.1-0.4,0.2-0.7,0.2l-0.1-0.1
							c0.1,0,0.2-0.1,0.3-0.2c0.1-0.1,0.2-0.2,0.3-0.3c0.1-0.1,0.1-0.2,0.2-0.3c0-0.1,0.1-0.2,0.1-0.4c-0.3,0-0.6,0-0.7,0l-0.1-0.3
							c0.3,0,0.6,0.1,0.9,0.1H92v-0.6h-0.1c-0.4,0-0.7,0-0.8,0L91,66.9C91.3,67,91.6,67,91.9,67 M93.2,71.5c0.1,0.1,0.2,0.3,0.2,0.4
							c0,0.1,0,0.3-0.1,0.4c-0.1,0.1-0.2,0.1-0.3,0.1c-0.1,0-0.2,0-0.2-0.1c-0.1-0.1-0.1-0.3-0.1-0.4c0-0.3,0-0.5-0.1-0.8l0.1,0
							C92.9,71.2,93.1,71.3,93.2,71.5 M94.6,67.5c0-0.1,0-0.3,0-0.4c0-0.2,0-0.5,0-0.8c0.2,0,0.4,0.1,0.6,0.1c0.2,0,0.4,0.1,0.4,0.1
							s-0.1,0.1-0.2,0.1s-0.1,0.1-0.1,0.1c0,0.3,0,0.5,0,0.8h0.3l0.2-0.2c0-0.1,0.1-0.1,0.2-0.1c0.1,0,0.2,0.1,0.3,0.2
							c0.1,0.1,0.2,0.2,0.2,0.3c0,0,0,0.1-0.1,0.2s-0.1,0.1-0.1,0.2V70c0,0.1,0,0.2,0,0.2s0,0,0.1,0l0.1,0c0,0,0.1-0.1,0.1-0.2
							s0.1-0.3,0.1-0.6l0.1,0l0,0.4c0,0.1,0,0.2,0.1,0.3c0.1,0.1,0.1,0.1,0.1,0.2c0,0.1-0.1,0.2-0.2,0.3c-0.1,0.1-0.3,0.1-0.5,0.1
							c-0.3,0-0.5,0-0.5-0.1c-0.1,0-0.2-0.2-0.2-0.6v-2.5h-0.4c0,0.5,0,0.9-0.1,1.1c0,0,0,0.1,0,0.1c0.1,0.1,0.2,0.2,0.3,0.3
							c0.1,0.1,0.1,0.3,0.1,0.5c0,0.1,0,0.1-0.1,0.2c0,0.1-0.1,0.1-0.2,0.1c-0.1,0-0.2-0.1-0.3-0.4c0,0.1-0.1,0.1-0.1,0.2
							c-0.1,0.3-0.3,0.5-0.5,0.7c-0.3,0.2-0.6,0.4-1,0.6l-0.1-0.1c0.3-0.2,0.6-0.5,0.8-0.9c0.2-0.3,0.3-0.6,0.4-0.9c0,0,0-0.1,0-0.2
							c-0.2-0.2-0.4-0.4-0.6-0.6l0-0.1c0.2,0.1,0.4,0.1,0.6,0.2c0-0.2,0-0.5,0-0.8c-0.2,0-0.4,0-0.5,0l-0.1-0.3
							C94.1,67.5,94.3,67.5,94.6,67.5 M94.8,71.5c0.1,0.1,0.2,0.3,0.2,0.4c0,0.1,0,0.2-0.1,0.3c-0.1,0.1-0.2,0.1-0.3,0.1
							c-0.1,0-0.1,0-0.2-0.1c0,0-0.1-0.1-0.1-0.4c0-0.3-0.1-0.5-0.2-0.8l0.1-0.1C94.4,71.2,94.6,71.3,94.8,71.5 M96.5,71.5
							c0.1,0.1,0.2,0.3,0.2,0.5c0,0.1-0.1,0.2-0.1,0.3c-0.1,0.1-0.1,0.1-0.2,0.1c-0.1,0-0.2-0.1-0.2-0.3c-0.1-0.3-0.2-0.6-0.5-0.9
							l0.1-0.1C96,71.2,96.2,71.3,96.5,71.5"/>
						<path class="st5" d="M100.3,67.8c-0.2,0.9-0.4,1.7-0.5,2.2c-0.1,0.3-0.1,0.7-0.2,1.1c0,0.1,0,0.3,0,0.4c0,0.2,0.1,0.4,0.1,0.6
							c0,0.1,0,0.2-0.1,0.2c-0.1,0.1-0.2,0.1-0.2,0.1c-0.1,0-0.2,0-0.3-0.1c-0.1-0.1-0.1-0.1-0.1-0.2c0-0.1,0-0.3,0-0.4
							c0-0.1,0-0.2,0-0.3c0-0.1,0-0.2-0.1-0.3c-0.2-0.1-0.3-0.2-0.5-0.2l0-0.1c0.2,0,0.4,0,0.6-0.1c0.1-0.1,0.2-0.2,0.2-0.3l0.9-2.6
							L100.3,67.8z M99.4,68.4c0.1,0.1,0.2,0.2,0.2,0.4c0,0.1-0.1,0.2-0.1,0.3c-0.1,0.1-0.1,0.1-0.2,0.1c-0.1,0-0.2-0.1-0.2-0.3
							c-0.1-0.3-0.3-0.6-0.5-0.8l0.1-0.1C98.9,68.1,99.2,68.3,99.4,68.4 M99.9,66.7c0.1,0.1,0.2,0.2,0.2,0.4c0,0.1-0.1,0.2-0.1,0.3
							c-0.1,0.1-0.1,0.1-0.2,0.1c-0.1,0-0.2-0.1-0.2-0.3c-0.1-0.3-0.3-0.6-0.5-0.8l0.1-0.1C99.4,66.5,99.7,66.6,99.9,66.7
							 M101.8,66.5c0.2,0.1,0.3,0.1,0.3,0.2s-0.1,0.1-0.2,0.1s-0.2,0-0.2,0.1c0,0.1-0.1,0.2-0.1,0.3h2c0.1-0.1,0.1-0.1,0.2-0.2
							c0.2-0.2,0.3-0.3,0.3-0.3s0.2,0.1,0.4,0.3c0.1,0.1,0.2,0.2,0.2,0.2c0,0.1,0,0.1-0.1,0.1h-3.1c-0.1,0.1-0.2,0.2-0.3,0.4
							c0,0,0,0.1-0.1,0.1c0.2,0.1,0.4,0.2,0.5,0.3h1.6c0.1-0.1,0.1-0.1,0.2-0.2c0.1-0.1,0.1-0.1,0.2-0.1c0.2,0,0.3,0.1,0.4,0.2
							c0.2,0.1,0.2,0.2,0.2,0.3c0,0,0,0.1-0.1,0.1s-0.1,0.1-0.1,0.2c0,0.3,0,0.7-0.1,1h0c0-0.1,0.1-0.2,0.1-0.3
							c0.1-0.1,0.1-0.2,0.2-0.2s0.1,0.1,0.2,0.2c0.1,0.1,0.1,0.2,0.2,0.4c0,0.1,0,0.1-0.1,0.1c0,0,0,0,0,0H104c0,0.3,0,0.5-0.1,0.8
							c0,0.2-0.1,0.4-0.1,0.6h0.2c0-0.1,0.1-0.2,0.1-0.3c0.1-0.2,0.1-0.3,0.2-0.3s0.1,0.1,0.2,0.3c0.1,0.1,0.1,0.2,0.2,0.4
							c0,0.1,0,0.1-0.1,0.1h-0.8c0,0.2-0.1,0.3-0.1,0.5c-0.1,0.2-0.2,0.3-0.4,0.4c-0.1,0.1-0.2,0.1-0.4,0.1c-0.1,0-0.1-0.1-0.2-0.2
							c-0.1-0.2-0.3-0.3-0.8-0.5l0-0.1c0.3,0,0.6,0.1,0.8,0.1c0.1,0,0.2-0.1,0.3-0.2c0-0.1,0-0.1,0-0.2h-2.1l0,0.2
							c0,0.1-0.1,0.1-0.3,0.1c-0.2,0-0.3,0-0.3-0.1c0.1-0.7,0.2-1.3,0.3-1.8c-0.2,0-0.4,0-0.6,0l-0.1-0.3c0.2,0,0.5,0.1,0.7,0.1
							c0.1-0.5,0.1-1.1,0.2-1.6c-0.2,0.2-0.3,0.3-0.5,0.4l-0.1-0.1c0.2-0.3,0.4-0.6,0.5-0.9c0.1-0.3,0.2-0.7,0.3-1.1
							C101.4,66.4,101.6,66.4,101.8,66.5 M101.8,71.2l0.2-1.4h-0.7l-0.2,1.4H101.8z M102,69.6l0.2-1.3h-0.6l-0.2,1.3H102z
							 M102.4,71.2h0.8c0-0.2,0.1-0.5,0.1-0.8c0-0.2,0-0.4,0-0.6h-0.8L102.4,71.2z M102.6,69.6h0.7c0-0.5,0-0.9,0-1.3h-0.6
							L102.6,69.6z"/>
						<path class="st5" d="M50.4,71.9c-0.1-0.1-0.1-0.1-0.1-0.2c0,0,0-0.2,0-0.7h-0.1l-0.2,0.7c-0.1,0.2-0.3,0.3-0.5,0.2
							c-0.2,0-0.5,0-0.9,0c-0.3,0-0.7,0-1,0c-0.1,0-0.2-0.2-0.2-0.3v-0.4H49v0c0,0.1,0,0.2,0.2,0.2c0.1,0,0.1,0,0.2,0
							c0.2,0,0.3-0.1,0.3-0.2c0-0.3,0-0.5,0-0.7v-0.5c0-0.1,0-0.1,0.1-0.2c0.1-0.1,0.1-0.1,0.1-0.2s-0.1-0.1-0.3-0.3
							c-0.1-0.1-0.2-0.1-0.3-0.1c-0.1,0-0.1,0-0.1,0.1c-0.1,0.1-0.2,0.1-0.2,0.2h-1.4v-0.5h1.2c0,0.1,0.1,0.2,0.2,0.2
							c0.1,0,0.1,0,0.2,0c0.2,0,0.3-0.1,0.3-0.2c0-0.3,0-0.5,0-0.7V68c0-0.1,0-0.1,0.1-0.2c0.1-0.1,0.1-0.1,0.1-0.2
							s-0.1-0.1-0.3-0.3c-0.1-0.1-0.2-0.1-0.3-0.2c-0.1,0-0.1,0-0.2,0.1c-0.1,0.1-0.2,0.1-0.2,0.2h-0.9c0.2-0.1,0.4-0.2,0.6-0.3
							c0.1,0,0.1-0.1,0.2-0.1c0.1,0,0.2-0.1,0.2-0.1s-0.1-0.2-0.3-0.3c-0.1-0.1-0.2-0.1-0.3-0.2c0,0-0.1,0-0.2,0.1
							c0,0-0.1,0.1-0.2,0.2h-1.1c0.2-0.1,0.2-0.2,0.3-0.2c0.1-0.1,0.3-0.1,0.3-0.2s0-0.1-0.1-0.2s-0.6-0.3-0.6-0.3
							c-0.1,0.1-0.1,0.2-0.2,0.3c-0.6,0.8-1.3,1.5-2.1,2.1v0.1c0.4-0.1,0.8-0.3,1.1-0.5v0.6c0,0.3,0,0.5-0.1,0.8
							c0,0.1,0.1,0.2,0.2,0.2c0.1,0,0.1,0,0.2,0c0.2,0,0.3-0.1,0.3-0.2h1.2v0.5h-1.4c-0.2-0.1-0.5-0.2-0.7-0.3
							c0,0.2,0.1,0.3,0.1,0.5v1.3c0,0.1,0,0.2,0,0.3c0,0.1,0.1,0.2,0.2,0.2c0.1,0,0.1,0,0.2,0c0.2,0,0.3-0.1,0.3-0.2v-0.2h1.5v0.6
							c0,0.2,0.1,0.4,0.2,0.5c0.1,0.1,0.3,0.1,0.4,0.1c0.2,0,0.6,0,1.2,0c0.3,0,0.6,0,1,0c0.3,0,0.5,0,0.7-0.1
							c0.1,0,0.2-0.2,0.2-0.3C50.5,72,50.5,71.9,50.4,71.9 M46.8,71.1h-1.5v-0.5h1.5L46.8,71.1z M46.8,70.3h-1.5v-0.5h1.5L46.8,70.3
							z M49,71.1h-1.5v-0.5H49L49,71.1z M49,70.3h-1.5v-0.5H49L49,70.3z M48.7,69h-1.2v-0.6h1.2L48.7,69z M48.7,68.2h-1.2v-0.5h1.2
							L48.7,68.2z M46.8,69h-1.2v-0.6h1.2L46.8,69z M46.8,68.2h-1.2v-0.5h1.2L46.8,68.2z M47.3,67.5h-1.7l-0.1-0.1
							c0.3-0.2,0.5-0.4,0.7-0.5h1.4C47.5,67.1,47.4,67.3,47.3,67.5"/>
						<path class="st5" d="M55.1,67.1c-0.7,0-1.4,0.2-1.9,0.7c-0.6,0.5-1,1.3-1,2c0,0.5,0.1,1,0.4,1.4c0.2,0.4,0.7,0.6,1.1,0.4
							c0.1-0.1,0.2-0.2,0.3-0.3c0.4-0.5,0.7-1.1,0.8-1.7c0.1-0.4,0.2-0.9,0.3-1.4c0-0.3-0.1-0.6-0.2-0.8c0,0,0.1,0,0.1,0
							c0.5,0,1,0.2,1.3,0.6c0.4,0.4,0.5,0.9,0.5,1.5c0,0.6-0.2,1.3-0.6,1.7c-0.3,0.2-0.6,0.5-0.9,0.6c-0.1,0.1-0.2,0.1-0.3,0.2
							c-0.1,0-0.1,0.1-0.1,0.1s0,0.1,0.1,0.1c0.2,0,0.5-0.1,0.7-0.2c1.1-0.2,1.9-1.3,1.8-2.4c0-0.5-0.2-1-0.5-1.4
							C56.6,67.4,55.8,67.1,55.1,67.1 M54.2,69.7c-0.3,0.8-0.6,1.2-0.9,1.2c-0.2,0-0.3-0.1-0.4-0.4c-0.1-0.3-0.2-0.6-0.2-0.9
							c0-0.5,0.2-1,0.5-1.4c0.3-0.5,0.9-0.8,1.4-0.8c0,0.1,0,0.2,0,0.3C54.7,68.4,54.5,69.1,54.2,69.7"/>
						<path class="st5" d="M64.7,69.1c0,0-0.1,0.1-0.3,0.3c-0.1,0.1-0.1,0.2-0.2,0.3h-0.5V68H65c0.1,0,0.1,0,0.1-0.1c0,0,0,0,0,0
							c0,0-0.1-0.1-0.3-0.3s-0.3-0.3-0.4-0.3c0,0-0.1,0.1-0.3,0.3c-0.1,0.1-0.1,0.2-0.2,0.2h-0.3v-1c0-0.1,0.1-0.1,0.1-0.2
							c0.1,0,0.2-0.1,0.2-0.2s-0.1-0.1-0.3-0.1c-0.3,0-0.5-0.1-0.7-0.1C63,66.6,63,67,63,67.4v0.4h-1.4c0-0.3,0-0.6,0-1
							c0-0.1,0-0.1,0.2-0.1s0.2-0.1,0.2-0.2s-0.1-0.1-0.4-0.2c-0.2,0-0.4-0.1-0.7-0.1c0,0.3,0,0.5,0,0.7v0.9h-0.5
							c-0.3,0-0.6,0-0.9-0.1l0.1,0.3c0.2,0,0.4,0,0.8,0h0.5c0,0.8,0,1.3-0.1,1.8h-0.7c-0.3,0-0.6,0-0.9,0l0.1,0.3c0.2,0,0.4,0,0.8,0
							h0.7c0,0.2,0,0.3-0.1,0.5c-0.1,0.4-0.3,0.7-0.5,1.1c-0.2,0.4-0.5,0.7-0.9,0.9l0.1,0.1c0.5-0.3,0.9-0.6,1.3-1
							c0.3-0.3,0.5-0.7,0.6-1.1c0-0.2,0.1-0.3,0.1-0.5H63v1.2c0,0.3,0,0.7,0,1.1c0,0.1,0,0.2,0.1,0.2c0,0,0,0,0,0c0.1,0,0.1,0,0.2,0
							c0.2,0,0.3-0.1,0.3-0.2c0-0.4,0-0.7,0-1.1v-1.2h1.5c0.1,0,0.1,0,0.1-0.1c0,0-0.1-0.2-0.3-0.4S64.7,69.1,64.7,69.1 M63,69.7
							h-1.5c0-0.4,0.1-1,0.1-1.8H63L63,69.7z"/>
						<path class="st5" d="M68.4,69c0,0-0.1,0-0.1,0.1c0,0.2-0.1,0.4-0.2,0.6c-0.1,0.3-0.3,0.5-0.5,0.7c-0.1,0.1-0.2,0.2-0.3,0.2
							c-0.1,0.1-0.2,0.2-0.2,0.4c0,0.2,0.1,0.3,0.3,0.3c0.3,0,0.6-0.2,0.8-0.7c0.2-0.5,0.3-1,0.3-1.5C68.5,69,68.4,69,68.4,69"/>
						<path class="st5" d="M71.5,69.3c-0.1-0.1-0.2-0.2-0.4-0.3c-0.1-0.1-0.2-0.1-0.3-0.2c0,0-0.1,0-0.1,0.1c0,0.1,0.1,0.1,0.1,0.1
							c0.4,0.5,0.7,1.1,0.8,1.7c0.1,0.4,0.2,0.6,0.4,0.6c0.1,0,0.2-0.1,0.2-0.1c0.1-0.1,0.1-0.2,0.1-0.3c0-0.3-0.1-0.6-0.3-0.9
							C71.9,69.7,71.7,69.5,71.5,69.3"/>
						<path class="st5" d="M75.1,67.3c0.2,0.2,0.4,0.3,0.6,0.3c0.2,0,0.7,0,1.3-0.1c0.7-0.1,1.1-0.1,1.1-0.1c0.2,0,0.3-0.1,0.3-0.2
							c0-0.1-0.1-0.1-0.2-0.2c-0.1-0.1-0.2-0.1-0.3-0.1c-0.1,0-0.1,0-0.1,0c-0.1,0-0.1,0.1-0.2,0.1c-0.6,0.2-1.3,0.2-1.9,0.2
							c-0.2,0-0.4,0-0.5-0.1C75,67,74.9,67,75,67c-0.1,0-0.1,0-0.1,0.1C74.9,67.1,75,67.2,75.1,67.3"/>
						<path class="st5" d="M79.3,68.5c-0.1-0.1-0.3-0.2-0.4-0.2c-0.1,0-0.1,0-0.2,0c-0.1,0-0.2,0.1-0.3,0.1
							c-0.7,0.1-1.3,0.1-1.7,0.1c-1.4,0.1-2.1,0.2-2,0.2c-0.2,0-0.3,0-0.5-0.1c-0.1-0.1-0.2-0.1-0.2-0.1c-0.1,0-0.1,0-0.1,0.1
							c0,0.1,0.1,0.2,0.3,0.4s0.3,0.3,0.4,0.3c0.1,0,0.2,0,0.4-0.1c0.5-0.1,0.9-0.2,1.4-0.3c0.1,0.1,0.1,0.2,0.1,0.3
							c0,0.6-0.2,1.1-0.5,1.6c-0.4,0.6-0.9,1-1.5,1.3c-0.1,0-0.1,0.1-0.1,0.1s0,0.1,0.1,0.1c0.1,0,0.2,0,0.3-0.1
							c0.6-0.2,1.1-0.5,1.5-0.9c0.3-0.3,0.5-0.6,0.7-1c0,0,0.1-0.3,0.2-0.8c0-0.1,0.1-0.1,0.1-0.2c0,0,0.1-0.1,0.1-0.1
							c0-0.1-0.1-0.2-0.4-0.3c0.6,0,1.1,0,1.4,0c0.2,0,0.5,0,0.7,0.1c0.2,0,0.3,0.1,0.3,0.1c0.1,0,0.2-0.1,0.2-0.2
							C79.6,68.7,79.5,68.6,79.3,68.5"/>
						<path class="st5" d="M82.4,67.7c-0.2-0.1-0.4-0.2-0.6-0.2c-0.1,0-0.2,0-0.2,0.1c0,0,0,0.1,0.1,0.1c0.1,0,0.1,0.1,0.2,0.2
							c0.1,0.2,0.1,0.3,0.1,0.5c0,0.7-0.1,1.5-0.3,2.1c-0.3,0.6-0.6,1-1.1,1.4c0,0-0.1,0.1-0.1,0.1s0,0,0,0c0,0,0,0,0.1,0
							c0.6-0.3,1.2-0.8,1.6-1.4c0.3-0.7,0.5-1.4,0.4-2.2c0-0.1,0-0.2,0.1-0.3c0,0,0-0.1,0.1-0.1C82.6,67.9,82.5,67.8,82.4,67.7"/>
						<path class="st5" d="M86.4,69.1C86.4,69.1,86.4,69.1,86.4,69.1c-0.5,0.5-0.9,0.9-1.3,1.3c-0.3,0.3-0.6,0.5-0.9,0.6
							c0,0,0-0.1,0-0.4c0-0.8,0-1.7,0.1-2.7c0-0.2,0-0.3,0.1-0.5c0-0.1,0.1-0.2,0.1-0.2c0-0.1-0.1-0.2-0.3-0.3
							c-0.2-0.1-0.4-0.2-0.6-0.2c-0.1,0-0.2,0-0.2,0.1c0,0,0,0,0.1,0.1c0.1,0,0.1,0.1,0.2,0.1c0.1,0.3,0.2,0.5,0.1,0.8
							c0,0.1,0,0.6,0,1.4c0,0.2,0,0.6,0,1.1s0,0.8,0,0.8c0,0.1,0,0.2-0.1,0.2c-0.1,0.1-0.1,0.1-0.1,0.1c0,0.1,0.1,0.2,0.2,0.3
							s0.3,0.3,0.3,0.3c0.1,0,0.2-0.1,0.2-0.1c0-0.1,0.1-0.2,0.2-0.2c0.4-0.4,0.9-0.8,1.2-1.3c0.3-0.4,0.6-0.8,0.9-1.2
							C86.5,69.2,86.5,69.2,86.4,69.1C86.5,69.1,86.5,69.1,86.4,69.1"/>
						<path class="st5" d="M72.2,67.9c-0.1-0.1-0.3-0.2-0.4-0.2c-0.1,0-0.1,0-0.2,0.1c-0.1,0-0.3,0.1-0.4,0.1
							c-0.5,0-0.9,0.1-1.1,0.1c0-0.2,0-0.4,0-0.5c0-0.2,0-0.2,0.1-0.3c0.1,0,0.1-0.1,0.2-0.2c0-0.1-0.2-0.2-0.4-0.3
							c-0.2-0.1-0.4-0.1-0.6-0.2c-0.1,0-0.2,0-0.3,0l-0.1,0.2c0.1,0,0.3,0.1,0.4,0.2c0.1,0.1,0.1,0.3,0.1,0.4c0,0,0,0.1,0,0.1l0,0
							l0,0.6c-0.2,0-0.5,0.1-1.1,0.1c-0.1,0-0.2,0-0.2,0c-0.2,0-0.3,0-0.3,0c-0.3,0-0.6-0.2-0.7-0.4l-0.2,0.1
							c0.1,0.2,0.2,0.5,0.3,0.7c0.1,0.1,0.2,0.2,0.4,0.2c0.1,0,0.2,0,0.3-0.1c0.1,0,0.1,0,0.2-0.1l0,0h0l0,0l0.1,0
							c0.4-0.1,0.8-0.2,1.1-0.2V71c0,0.2-0.1,0.2-0.2,0.2c-0.2,0-0.3-0.1-0.5-0.1L68.5,71c0,0-0.1,0-0.1,0.1s0.1,0.1,0.2,0.2
							c0.2,0.2,0.4,0.3,0.5,0.4c0.1,0.1,0.1,0.2,0.2,0.3c0.1,0.1,0.1,0.2,0.2,0.2c0.1,0,0.2-0.1,0.4-0.3c0.1-0.2,0.2-0.4,0.2-0.7
							c0,0,0-0.3,0-0.8s0-1,0-1.4c0-0.2,0-0.4,0-0.7c0.3,0,0.7,0,1,0c0.3,0,0.6,0,0.9,0l0.3,0c0.1,0,0.2-0.1,0.2-0.2
							C72.5,68.1,72.4,68,72.2,67.9"/>
					</g>
				</g>
			</g>
		</g>
		<g class="st2">
			<path class="st0" d="M633.3,3807.8c-0.6,0.9-1.5,2-2.4,2.7c-0.2-0.2-0.5-0.4-0.7-0.5c0.9-0.6,1.7-1.6,2.2-2.4L633.3,3807.8z
				 M640.9,3802.2h-10.4v-0.9h4.7v-1.4h0.9v1.4h4.8V3802.2z M636.1,3806.8v3.1c0,0.5-0.1,0.8-0.5,0.9c-0.4,0.1-1.1,0.1-2.1,0.1
				c0-0.2-0.2-0.6-0.3-0.8c0.8,0,1.6,0,1.8,0c0.2,0,0.3,0,0.3-0.2v-3h-3.2v-3.5h7.5v3.5H636.1z M632.8,3806h5.7v-2h-5.7V3806z
				 M638.7,3807.5c0.8,0.8,1.8,1.9,2.3,2.6l-0.9,0.4c-0.4-0.7-1.4-1.8-2.2-2.6L638.7,3807.5z"/>
			<path class="st0" d="M645.2,3805.2c-0.5-0.4-1.4-1-2.2-1.3l0.5-0.6c0.8,0.3,1.7,0.8,2.2,1.2L645.2,3805.2z M646,3806.9
				c-0.6,1.3-1.3,2.7-1.9,3.9l-0.8-0.6c0.6-0.9,1.4-2.5,2-3.9L646,3806.9v-0.1h1.2v-5.8l0.7,0.2c1.7-0.3,3.5-0.7,4.5-1.1l0.7,0.7
				c-1.4,0.5-3.3,0.8-5.1,1.1v1.4h5.7v0.8h-1.7v2.6h2v0.8H646V3806.9z M645.8,3802.1c-0.5-0.4-1.4-1-2.2-1.4l0.5-0.6
				c0.8,0.3,1.7,0.9,2.2,1.3L645.8,3802.1z M649.1,3808.4c-0.7,0.9-1.7,1.9-2.7,2.5c-0.2-0.2-0.5-0.5-0.8-0.6
				c0.9-0.5,1.9-1.4,2.5-2.2L649.1,3808.4z M648.1,3806.8h3.1v-2.6h-3.1V3806.8z M651.6,3808.1c0.9,0.7,2,1.6,2.5,2.3l-0.8,0.5
				c-0.5-0.7-1.6-1.7-2.4-2.4L651.6,3808.1z"/>
			<path class="st0" d="M657.6,3803.3c-0.3,0.3-0.6,0.5-0.9,0.7c-0.1-0.2-0.4-0.5-0.6-0.6c1.6-1,2.7-2.3,3.2-3.5l0.9,0.2
				c-0.1,0.3-0.3,0.5-0.5,0.8h3.3l0.1,0l0.6,0.4c-0.3,0.5-0.6,1.1-1,1.5h2.6v4.2h-4.4c0.7,0.3,1.4,0.7,1.8,1.1l-0.6,0.6
				c-0.4-0.4-1.4-1-2.1-1.3l0.4-0.4h-3v-0.8h7.1v-1h-6.8v-0.7h6.8v-1h-6.9V3803.3z M656,3810c0.8-0.5,1.4-1.4,1.7-2.2l0.8,0.3
				c-0.3,1-0.8,1.9-1.7,2.5L656,3810z M659.2,3801.6c-0.3,0.4-0.6,0.8-1,1.2h3.5c0.3-0.3,0.6-0.8,0.8-1.2H659.2z M662.7,3810
				c0.5,0,0.6-0.2,0.6-1.3c0.2,0.1,0.5,0.3,0.8,0.3c-0.1,1.5-0.4,1.8-1.3,1.8h-2.2c-1.2,0-1.5-0.3-1.5-1.1v-1.8h0.9v1.7
				c0,0.3,0.1,0.4,0.7,0.4H662.7z M664.7,3807.6c0.8,0.7,1.8,1.7,2.2,2.4l-0.8,0.5c-0.4-0.7-1.3-1.7-2.1-2.5L664.7,3807.6z"/>
			<path class="st0" d="M672.9,3802.8c-0.4,0.6-0.8,1.2-1.3,1.8v6.3h-0.9v-5.3c-0.5,0.5-0.9,0.9-1.4,1.2c-0.1-0.2-0.4-0.6-0.6-0.7
				c1.2-0.9,2.5-2.3,3.4-3.6L672.9,3802.8z M672.4,3800.3c-0.8,1.1-2,2.2-3.1,3c-0.1-0.2-0.4-0.5-0.5-0.7c1-0.7,2.1-1.8,2.7-2.6
				L672.4,3800.3z M679.8,3804.8H678v5c0,0.6-0.1,0.8-0.5,1c-0.4,0.1-1.1,0.1-2.3,0.1c0-0.2-0.2-0.6-0.3-0.9c0.9,0,1.6,0,1.9,0
				c0.2,0,0.3-0.1,0.3-0.3v-4.9h-4v-0.9h6.7V3804.8z M679.4,3801.5h-5.9v-0.8h5.9V3801.5z"/>
		</g>
		<g transform="translate(656 3820)">
			<path class="st0" d="M4,0.5H0v-1h4V0.5z"/>
		</g>
		<g class="st2">
			<path class="st0" d="M994.4,3835.9c-0.2,1.1-0.5,2.3-0.9,3c-0.1-0.1-0.5-0.3-0.7-0.3c0.4-0.7,0.6-1.8,0.8-2.9L994.4,3835.9z
				 M996.6,3832.8c0.5,0.8,1,1.8,1.2,2.4l-0.7,0.3c0-0.2-0.1-0.4-0.2-0.7l-1,0.1v5H995v-4.9l-2,0.1l-0.1-0.8c0.2,0,0.5,0,0.8,0
				c0.3-0.3,0.5-0.7,0.8-1.1c-0.4-0.5-1-1.2-1.6-1.7l0.5-0.6c0.1,0.1,0.2,0.2,0.4,0.3c0.4-0.7,0.8-1.6,1.1-2.2l0.8,0.3
				c-0.4,0.8-0.9,1.8-1.4,2.4c0.3,0.3,0.5,0.6,0.7,0.8c0.5-0.8,0.9-1.5,1.3-2.2l0.8,0.3c-0.7,1.1-1.7,2.5-2.5,3.6
				c0.6,0,1.3-0.1,1.9-0.1c-0.2-0.4-0.4-0.7-0.6-1.1L996.6,3832.8z M996.9,3835.7c0.3,0.7,0.7,1.7,0.8,2.3l-0.7,0.2
				c-0.1-0.6-0.4-1.6-0.8-2.3L996.9,3835.7z M1003.8,3831.6c-0.2,5.4-0.4,7.2-0.9,7.8c-0.3,0.3-0.5,0.4-1,0.5c-0.4,0-1.1,0-1.8,0
				c0-0.3-0.1-0.6-0.3-0.9c0.8,0.1,1.5,0.1,1.8,0.1c0.2,0,0.4,0,0.5-0.2c0.4-0.4,0.6-2.2,0.8-6.9H999c-0.3,0.6-0.7,1.2-1.1,1.7
				c-0.2-0.1-0.6-0.4-0.8-0.5c0.9-1,1.7-2.6,2.1-4.1l0.9,0.2c-0.2,0.7-0.4,1.3-0.7,2h4.4V3831.6z M1000.3,3836.9
				c-0.3-0.7-0.9-1.9-1.6-2.8l0.7-0.3c0.7,0.8,1.4,2,1.7,2.7L1000.3,3836.9z"/>
			<path class="st0" d="M1012,3836.6h-1.2v2.4h-1v-2.4h-3.8v-0.7l3.7-5.6h1.2v5.5h1.2V3836.6z M1009.8,3835.7v-2.7
				c0-0.4,0-1.1,0.1-1.6h0c-0.2,0.4-0.5,0.9-0.7,1.3l-2,3H1009.8z"/>
			<path class="st0" d="M1014.2,3834.6c0-3.1,1.1-4.5,2.7-4.5c1.7,0,2.7,1.5,2.7,4.5c0,3.1-1.1,4.6-2.7,4.6
				C1015.3,3839.2,1014.2,3837.6,1014.2,3834.6z M1018.6,3834.6c0-2.6-0.7-3.6-1.7-3.6c-1,0-1.7,1.1-1.7,3.6c0,2.6,0.7,3.7,1.7,3.7
				C1017.9,3838.3,1018.6,3837.2,1018.6,3834.6z"/>
			<path class="st0" d="M1026.3,3829.5c-0.9,2-2.3,3.8-3.8,4.9c-0.2-0.2-0.5-0.5-0.8-0.7c1.5-1,2.8-2.7,3.6-4.5L1026.3,3829.5z
				 M1031.2,3833.5c0,0,0,0.3,0,0.4c-0.2,3.7-0.3,5.1-0.8,5.5c-0.3,0.3-0.5,0.4-0.9,0.4c-0.4,0-1.1,0-1.9,0c0-0.3-0.1-0.6-0.3-0.9
				c0.8,0.1,1.5,0.1,1.8,0.1c0.3,0,0.4,0,0.5-0.2c0.3-0.3,0.5-1.5,0.6-4.5h-3.1c-0.3,2.4-1.1,4.5-4.1,5.6c-0.1-0.2-0.4-0.6-0.6-0.8
				c2.8-0.9,3.5-2.8,3.8-4.9h-2.4v-0.9H1031.2z M1029.5,3829.2c0.8,1.6,2.3,3.4,3.6,4.3c-0.2,0.2-0.6,0.5-0.7,0.8
				c-1.3-1.1-2.8-3-3.7-4.8L1029.5,3829.2z"/>
		</g>
		<g class="st2">
			<path class="st0" d="M983.3,3809.8l0.8-0.6c0.4,0.7,0.9,1,1.5,1c0.9,0,1.4-0.5,1.4-1.9v-6.1h1.1v6.2c0,1.5-0.7,2.7-2.4,2.7
				C984.6,3811.2,983.8,3810.7,983.3,3809.8z"/>
			<path class="st0" d="M996.6,3811l-2.1-3.7h-1.6v3.7h-1.1v-8.8h2.8c1.8,0,3.1,0.6,3.1,2.5c0,1.4-0.8,2.2-2,2.5l2.3,3.8H996.6z
				 M992.8,3806.4h1.5c1.4,0,2.1-0.6,2.1-1.7c0-1.2-0.8-1.6-2.1-1.6h-1.5V3806.4z"/>
			<path class="st0" d="M1004.6,3810.2c-0.3-0.3-0.9-0.9-1.4-1.3v3h-0.9v-3.2c-0.6,0.9-1.3,1.8-2,2.3c-0.1-0.2-0.4-0.5-0.6-0.6
				c0.9-0.6,1.8-1.6,2.4-2.7h-2.1v-0.8h2.3v-1.3h-2.4v-0.8h5.6v0.8h-2.3v1.3h2.2v0.8h-2.2v0.3c0.5,0.3,1.6,1.3,1.9,1.5
				L1004.6,3810.2z M1005.4,3803h-5.3v-0.7h2.2v-1.2h0.9v1.2h2.2V3803z M1001.3,3804.9c0-0.5-0.2-1.2-0.5-1.7l0.7-0.2
				c0.3,0.5,0.5,1.2,0.5,1.7L1001.3,3804.9z M1003.3,3804.7c0.2-0.5,0.5-1.2,0.6-1.7l0.8,0.2c-0.2,0.6-0.5,1.3-0.7,1.7
				L1003.3,3804.7z M1010.8,3805.8h-1.3v6h-0.9v-6h-1.8v0.3c0,1.8-0.2,4.2-1.9,5.9c-0.1-0.2-0.4-0.5-0.6-0.6
				c1.5-1.5,1.7-3.6,1.7-5.2v-4.2l0.6,0.2c1.2-0.3,2.6-0.6,3.3-1l0.7,0.7c-1,0.5-2.5,0.8-3.8,1.1v2.1h4V3805.8z"/>
			<path class="st0" d="M1016.1,3809h2.2v0.8h-2.2v2.1h-0.9v-2.1h-2.2v-0.8h2.2v-1h-1.7v-3.9h1.7v-1h-2.1v-0.8h2.1v-1.3h0.9v1.3h2.1
				v0.8h-2.1v1h1.7v3.9h-1.7V3809z M1014.4,3805.7h2.7v-0.9h-2.7V3805.7z M1014.4,3807.3h2.7v-0.9h-2.7V3807.3z M1021.5,3807.4h2.4
				v0.8h-2.4v3.7h-0.9v-3.7h-2.3v-0.8h2.3v-1.7h-1.7v-0.8c-0.2,0.2-0.3,0.3-0.5,0.5c-0.1-0.2-0.3-0.6-0.5-0.7
				c1.1-0.9,2.2-2.4,2.7-3.7h0.8c0.7,1.3,1.8,2.7,2.8,3.5c-0.2,0.2-0.4,0.5-0.5,0.8c-1-0.9-2.1-2.3-2.7-3.4c-0.4,0.9-1.2,2.1-2.1,3
				h4.3v0.8h-1.7V3807.4z"/>
			<path class="st0" d="M1027.6,3807.9c-0.2,1.1-0.4,2.3-0.8,3c-0.1-0.1-0.5-0.3-0.7-0.3c0.4-0.7,0.6-1.8,0.7-2.9L1027.6,3807.9z
				 M1028.9,3806.9v5h-0.8v-5l-1.9,0.1l-0.1-0.8l0.8,0c0.2-0.3,0.5-0.6,0.7-1c-0.3-0.5-0.9-1.2-1.5-1.7l0.5-0.6
				c0.1,0.1,0.2,0.2,0.4,0.3c0.4-0.7,0.8-1.6,1.1-2.3l0.8,0.3c-0.4,0.8-0.9,1.8-1.4,2.5c0.3,0.3,0.5,0.5,0.6,0.8
				c0.5-0.7,0.9-1.5,1.3-2.2l0.7,0.3c-0.7,1.1-1.6,2.4-2.4,3.5l1.7-0.1c-0.2-0.3-0.3-0.7-0.5-1l0.6-0.3c0.5,0.8,1,1.8,1.2,2.5
				l-0.7,0.3c0-0.2-0.1-0.5-0.3-0.8L1028.9,3806.9z M1030,3807.7c0.3,0.7,0.6,1.5,0.6,2.1l-0.7,0.2c-0.1-0.6-0.3-1.5-0.6-2.1
				L1030,3807.7z M1033.2,3807.6c-0.4,1.9-1.4,3.1-2.5,3.8c-0.1-0.2-0.4-0.5-0.6-0.6c1-0.5,1.7-1.4,2.1-2.6h-1.6v-0.8h2l0.1,0
				L1033.2,3807.6z M1037.1,3807.5c-0.6,0.5-1.3,1.1-1.8,1.5c0.5,0.7,1.2,1.4,2.1,1.8c-0.2,0.2-0.4,0.5-0.5,0.7
				c-1.3-0.7-2.1-1.8-2.6-2.9v2.4c0,0.4-0.1,0.7-0.4,0.8c-0.3,0.1-0.8,0.1-1.5,0.1c0-0.2-0.1-0.6-0.2-0.8c0.5,0,1,0,1.2,0
				c0.2,0,0.2,0,0.2-0.2v-4.6h-2.4v-4.2h2c0.2-0.4,0.4-0.9,0.5-1.2l1,0.2c-0.2,0.4-0.4,0.7-0.6,1.1h2.8v4.2h-2.5v0.2
				c0.1,0.6,0.4,1.2,0.7,1.8c0.5-0.4,1.1-1,1.5-1.4L1037.1,3807.5z M1031.8,3803.9h4v-1h-4V3803.9z M1031.8,3805.7h4v-1h-4V3805.7z"
				/>
			<path class="st0" d="M1041.4,3807.4c-0.1,0.5-0.2,0.9-0.2,1.4c0,0.9,0.9,1.5,2.8,1.5c1.6,0,3.2-0.2,4.1-0.5l0,1
				c-0.9,0.2-2.4,0.4-4.1,0.4c-2.4,0-3.8-0.8-3.8-2.3c0-0.6,0.1-1.2,0.2-1.7L1041.4,3807.4z M1040.9,3802.6c0.9,0.1,2,0.2,3.1,0.2
				c1.1,0,2.4-0.1,3.2-0.2v1c-0.8,0.1-2.1,0.1-3.2,0.1c-1.2,0-2.2,0-3.1-0.1V3802.6z"/>
			<path class="st0" d="M1057.4,3804.1c-0.8,0.2-1.6,0.3-2.5,0.4c-0.1,0.5-0.2,1.1-0.4,1.6c-0.4,1.7-1.2,4.1-1.9,5.4l-1.1-0.3
				c0.7-1.2,1.5-3.6,2-5.3c0.1-0.4,0.2-0.8,0.3-1.3c-0.4,0-0.7,0-1.1,0c-0.5,0-1,0-1.4,0l0-0.9c0.6,0.1,1,0.1,1.4,0.1
				c0.4,0,0.8,0,1.3,0c0.1-0.4,0.1-0.8,0.2-1c0-0.3,0.1-0.7,0-1l1.2,0.1c-0.1,0.3-0.2,0.7-0.2,0.9l-0.2,0.9c0.8-0.1,1.5-0.2,2.3-0.4
				V3804.1z M1056.9,3808.3c-0.1,0.4-0.2,0.8-0.2,1.1c0,0.6,0.3,1.1,2,1.1c0.8,0,1.6-0.1,2.3-0.2l0,1c-0.6,0.1-1.4,0.2-2.3,0.2
				c-1.9,0-2.9-0.6-2.9-1.8c0-0.4,0.1-0.9,0.2-1.4L1056.9,3808.3z M1056.6,3805.4c0.6,0,1.4-0.1,2.2-0.1c0.7,0,1.4,0,2.1,0.1l0,0.9
				c-0.6-0.1-1.3-0.1-2-0.1c-0.7,0-1.5,0-2.2,0.1V3805.4z M1060,3804c-0.2-0.5-0.6-1.2-1-1.7l0.6-0.3c0.3,0.4,0.7,1.2,1,1.7
				L1060,3804z M1060.9,3801.6c0.3,0.5,0.8,1.2,1,1.7l-0.6,0.3c-0.3-0.5-0.7-1.2-1-1.7L1060.9,3801.6z"/>
			<path class="st0" d="M1073.1,3810.9c-0.7-0.6-1.7-1.4-2.9-1.8c0,0.3,0,0.6,0,0.7c0,0.8-0.6,1.7-2.1,1.7c-1.7,0-2.7-0.6-2.7-1.8
				c0-1.1,1-1.8,2.8-1.8c0.3,0,0.7,0,1,0.1c0-0.5,0-1.1-0.1-1.6c-0.2,0-0.4,0-0.7,0c-0.8,0-2.1-0.1-3-0.2v-0.9
				c0.8,0.1,2.2,0.2,3,0.2c0.2,0,0.4,0,0.6,0v-0.2v-1.5c-0.2,0-0.4,0-0.6,0c-0.8,0-2.1-0.1-2.8-0.2v-0.9c0.7,0.1,2,0.2,2.8,0.2
				c0.2,0,0.4,0,0.6,0v-0.8c0-0.2,0-0.5,0-0.7h1c0,0.2,0,0.4-0.1,0.8c0,0.1,0,0.4,0,0.7c1,0,2-0.1,3-0.3l0,0.9
				c-0.9,0.1-2,0.2-3.1,0.3v1.6v0.1c1.1,0,2.2-0.2,3.3-0.3l0,0.9c-1.1,0.1-2.2,0.2-3.3,0.3c0,0.6,0.1,1.2,0.1,1.8
				c1.6,0.4,2.8,1.3,3.5,1.8L1073.1,3810.9z M1069.3,3808.8c-0.4-0.1-0.8-0.1-1.2-0.1c-1.1,0-1.7,0.4-1.7,1c0,0.6,0.5,1,1.6,1
				c0.7,0,1.3-0.2,1.3-1C1069.3,3809.4,1069.3,3809.1,1069.3,3808.8z"/>
		</g>
		<g transform="translate(943 3801.139)">
			<path class="st0" d="M7.5,2.4h1.2c0.3,0,0.6,0.3,0.6,0.6v1.2c0,0.3-0.3,0.6-0.6,0.6H7.5c-0.3,0-0.6-0.3-0.6-0.6V3
				C6.9,2.7,7.1,2.4,7.5,2.4z"/>
			<path class="st0" d="M4.8,2.4h1.2c0.3,0,0.6,0.3,0.6,0.6v1.2c0,0.3-0.3,0.6-0.6,0.6H4.8c-0.3,0-0.6-0.3-0.6-0.6V3
				C4.2,2.7,4.4,2.4,4.8,2.4z"/>
			<path class="st0" d="M0,1.1v5.6c0,0.6,0.4,1.1,0.9,1.1h31.3c2.1,0,2.3-1,0.6-2.3l-6.8-3.2c-2.5-1-4.7-2.3-7-2.3H0.9
				C0.4,0,0,0.5,0,1.1 M11.4,3.2c0-0.2,0.1-0.3,0.3-0.3h1C12.9,2.9,13,3,13,3.2v2.3h-1.7V3.2z M1.3,1.2H19c1.6,0.2,3.1,0.6,4.5,1.4
				l0.6,0.3h-2.2c-0.6,0-0.7,0.3-0.2,0.6l0.6,0.4c0.7,0.3,1.4,0.5,2.1,0.6h3l4.7,2.2l0.1,0.1h-7.9l-2.8-0.7
				c-1.2-0.3-2.4-0.4-3.6-0.4h-4V3.2c0-0.7-0.6-1.3-1.3-1.3h-1c-0.7,0-1.3,0.6-1.3,1.3v2.3H1.3L1.3,1.2z"/>
			<rect y="8.9" class="st0" width="33.9" height="1.5"/>
		</g>
		<path class="st0" d="M1131,3791v58h118v-58H1131 M1130,3790h120v60h-120V3790z"/>
		<g class="st2">
			<path class="st0" d="M1166.5,3817.7c-0.2,1.3-0.8,2.1-2.6,2.6c-0.1-0.2-0.4-0.6-0.5-0.7c1.4-0.3,2-0.9,2.1-1.9h-1.9v-0.9h2.9
				v-1.2h-2.3v-0.9h2.3v-1.1h1.1v1.1h2.4v0.9h-2.4v1.2h2.9v0.9h-1.9v1c0,0.3,0,0.3,0.3,0.3h0.7c0.2,0,0.3-0.1,0.3-0.8
				c0.2,0.1,0.5,0.3,0.8,0.3c-0.1,1-0.3,1.3-1,1.3h-1c-0.8,0-1-0.2-1-1.1v-1H1166.5z M1163.4,3827.8c0.8-0.6,1.5-1.7,2-2.8l1.1,0.3
				c-0.4,1.1-1.2,2.2-2,2.9L1163.4,3827.8z M1176.9,3823.4c0.1,0,0.2,0,0.3-0.1c0.1-0.1,0.1-0.2,0.1-0.5c0-0.3,0-1,0-1.9
				c0.2,0.2,0.5,0.4,0.8,0.4c0,0.8-0.1,1.8-0.1,2.2c-0.1,0.4-0.2,0.6-0.4,0.7c-0.2,0.1-0.4,0.2-0.7,0.2h-0.6c-0.3,0-0.6-0.1-0.8-0.3
				c-0.2-0.2-0.3-0.5-0.3-1.5v-5.6h-1.5c0,1-0.1,1.9-0.3,2.7c0.7,0.5,1.2,0.9,1.6,1.3l-0.6,1c-0.3-0.3-0.8-0.8-1.3-1.2
				c-0.4,1.6-1.1,2.8-2.4,3.8c-0.2-0.3-0.5-0.6-0.8-0.8l0.2-0.1c-2.4,0.3-4.8,0.5-6.6,0.7l-0.1-1c0.8,0,1.9-0.1,3.1-0.3v-1.5h-2.5
				v-0.9h2.5v-1.2h1.1v1.2h2.5v0.9h-2.5v1.3c0.9-0.1,1.9-0.2,2.9-0.3l0,0.7c0.9-0.8,1.4-1.9,1.7-3.2c-0.5-0.4-1-0.7-1.5-1l0.5-0.8
				c0.4,0.2,0.8,0.5,1.2,0.7c0.1-0.6,0.1-1.3,0.2-2.1h-1.7v-1.1h1.8c0-0.7,0-1.5,0-2.3h1.1c0,0.8,0,1.6,0,2.3h2.6v6.7
				c0,0.4,0,0.7,0.1,0.7c0,0,0.1,0,0.2,0H1176.9z M1169.2,3825.3c0.2,0.9,0.4,2,0.4,2.6l-1.2,0.1c0-0.7-0.1-1.8-0.3-2.7
				L1169.2,3825.3z M1172.5,3825.2c0.4,0.8,0.8,2,0.9,2.7l-1.2,0.2c-0.1-0.7-0.5-1.8-0.9-2.7L1172.5,3825.2z M1175.8,3824.9
				c0.8,0.9,1.6,2.1,2,2.9l-1.2,0.4c-0.4-0.8-1.2-2-2-2.9L1175.8,3824.9z"/>
			<path class="st0" d="M1184.4,3820.6c-0.5-0.5-1.7-1.2-2.7-1.7l0.7-0.9c1,0.4,2.1,1.1,2.7,1.6L1184.4,3820.6z M1182.1,3827.3
				c0.7-1.2,1.8-3.3,2.5-5.2l0.9,0.7c-0.7,1.7-1.6,3.7-2.4,5.2L1182.1,3827.3z M1185.1,3816.4c-0.5-0.6-1.7-1.3-2.6-1.8l0.7-0.8
				c0.9,0.4,2.1,1.2,2.7,1.7L1185.1,3816.4z M1188.1,3816.7c-0.5,1-1.1,1.8-1.6,2.5c-0.2-0.2-0.7-0.5-1-0.7c1.2-1.2,2.1-3,2.6-4.9
				l1.2,0.3c-0.2,0.6-0.4,1.2-0.6,1.7h7.6v1.1H1188.1z M1195,3822.5c-0.1,1-0.1,1.8-0.2,2.4h1.5v1h-1.7c-0.1,0.9-0.3,1.4-0.5,1.6
				c-0.3,0.4-0.6,0.5-1.1,0.6c-0.5,0-1.2,0-2,0c0-0.3-0.1-0.7-0.3-1c0.8,0.1,1.6,0.1,1.9,0.1c0.3,0,0.5,0,0.6-0.2
				c0.1-0.2,0.3-0.5,0.4-1h-5.9l-0.1,0.7l-1.1-0.1c0.2-1.1,0.5-2.6,0.7-4.1h-1.5v-1.1h1.6c0.2-1.2,0.3-2.3,0.4-3.3h7.6
				c0,0,0,0.4,0,0.5c0,1-0.1,1.9-0.1,2.7h1.4v1.1H1195z M1188.2,3822.5c-0.1,0.8-0.2,1.7-0.4,2.4h2.3c0.1-0.7,0.2-1.6,0.3-2.4
				H1188.2z M1188.6,3819.2c-0.1,0.7-0.2,1.5-0.3,2.2h2.2c0.1-0.8,0.1-1.5,0.2-2.2H1188.6z M1193.7,3824.9c0.1-0.6,0.1-1.4,0.2-2.4
				h-2.5c-0.1,0.9-0.2,1.7-0.3,2.4H1193.7z M1194,3821.4c0-0.7,0.1-1.4,0.1-2.2h-2.3c0,0.7-0.1,1.5-0.2,2.2H1194z"/>
			<path class="st0" d="M1199.9,3827c0.6-0.8,0.8-2.2,0.8-3.6l0.7,0.1c-0.1,1.5-0.3,3-0.9,3.9L1199.9,3827z M1206.9,3821.5
				c0,0,0,0.3,0,0.5c-0.2,3.9-0.4,5.3-0.8,5.8c-0.2,0.3-0.5,0.4-0.9,0.4c-0.3,0-0.9,0-1.5,0c0-0.3-0.1-0.7-0.3-1c0.6,0,1.1,0,1.3,0
				s0.3,0,0.5-0.2c0.2-0.2,0.3-0.8,0.4-2l-0.5,0.2c-0.2-0.6-0.5-1.4-0.9-2.1l0.6-0.2c0.4,0.6,0.7,1.3,0.9,1.9
				c0.1-0.6,0.1-1.4,0.2-2.4h-5v-8.2h5.9v1h-2.3v1.4h2v0.9h-2v1.4h2v1h-2v1.5H1206.9z M1201.9,3815.3v1.4h1.6v-1.4H1201.9z
				 M1203.4,3817.6h-1.6v1.4h1.6V3817.6z M1201.9,3821.5h1.6v-1.5h-1.6V3821.5z M1202.5,3823.6c0.2,0.9,0.3,2.1,0.3,2.9l-0.7,0.1
				c0-0.8-0.1-2-0.2-2.9L1202.5,3823.6z M1203.7,3826.1c-0.1-0.7-0.3-1.8-0.6-2.6l0.6-0.1c0.3,0.8,0.6,1.9,0.7,2.5L1203.7,3826.1z
				 M1211.6,3820.8c0.5,2.9,1.4,5.4,3.2,6.5c-0.3,0.2-0.6,0.7-0.8,1c-2-1.4-3-4.1-3.5-7.5h-1.5c0,2.4-0.3,5.5-1.8,7.5
				c-0.2-0.2-0.7-0.5-0.9-0.6c1.5-2.1,1.6-5,1.6-7.3v-6h6.2v6.5H1211.6z M1209.1,3815.4v4.3h4v-4.3H1209.1z"/>
		</g>
		<g transform="translate(896 3820)">
			<path class="st0" d="M234,0.5H0v-1h234V0.5z"/>
		</g>
		<g transform="translate(1250 3820)">
			<path class="st0" d="M115,0.5H0v-1h115V0.5z"/>
		</g>
	</g>
	<g class="st2">
		<path class="st0" d="M1285.4,3813.4c-0.2,1.1-0.5,2.3-0.9,3c-0.1-0.1-0.5-0.3-0.7-0.3c0.4-0.7,0.6-1.8,0.8-2.9L1285.4,3813.4z
			 M1287.6,3810.3c0.5,0.8,1,1.8,1.2,2.4l-0.7,0.3c0-0.2-0.1-0.4-0.2-0.7l-1,0.1v5h-0.8v-4.9l-2,0.1l-0.1-0.8c0.2,0,0.5,0,0.8,0
			c0.3-0.3,0.5-0.7,0.8-1.1c-0.4-0.5-1-1.2-1.6-1.7l0.5-0.6c0.1,0.1,0.2,0.2,0.4,0.3c0.4-0.7,0.8-1.6,1.1-2.2l0.8,0.3
			c-0.4,0.8-0.9,1.8-1.4,2.4c0.3,0.3,0.5,0.6,0.7,0.8c0.5-0.8,0.9-1.5,1.3-2.2l0.8,0.3c-0.7,1.1-1.7,2.5-2.5,3.6
			c0.6,0,1.3-0.1,1.9-0.1c-0.2-0.4-0.4-0.7-0.6-1.1L1287.6,3810.3z M1287.9,3813.2c0.3,0.7,0.7,1.7,0.8,2.3l-0.7,0.2
			c-0.1-0.6-0.4-1.6-0.8-2.3L1287.9,3813.2z M1294.8,3809.1c-0.2,5.4-0.4,7.2-0.9,7.8c-0.3,0.3-0.5,0.4-1,0.5c-0.4,0-1.1,0-1.8,0
			c0-0.3-0.1-0.6-0.3-0.9c0.8,0.1,1.5,0.1,1.8,0.1c0.2,0,0.4,0,0.5-0.2c0.4-0.4,0.6-2.2,0.8-6.9h-3.9c-0.3,0.6-0.7,1.2-1.1,1.7
			c-0.2-0.1-0.6-0.4-0.8-0.5c0.9-1,1.7-2.6,2.1-4.1l0.9,0.2c-0.2,0.7-0.4,1.3-0.7,2h4.4V3809.1z M1291.3,3814.4
			c-0.3-0.7-0.9-1.9-1.6-2.8l0.7-0.3c0.7,0.8,1.4,2,1.7,2.7L1291.3,3814.4z"/>
		<path class="st0" d="M1297.3,3815.9c2.8-2.4,4-4.2,4-5.7c0-1-0.5-1.7-1.6-1.7c-0.7,0-1.3,0.4-1.8,1l-0.6-0.6
			c0.7-0.8,1.5-1.3,2.6-1.3c1.6,0,2.6,1,2.6,2.6c0,1.8-1.4,3.5-3.4,5.5c0.5,0,1-0.1,1.4-0.1h2.4v0.9h-5.5V3815.9z"/>
		<path class="st0" d="M1305.2,3812.1c0-3.1,1.1-4.5,2.7-4.5c1.7,0,2.7,1.5,2.7,4.5c0,3.1-1.1,4.6-2.7,4.6
			C1306.3,3816.7,1305.2,3815.1,1305.2,3812.1z M1309.6,3812.1c0-2.6-0.7-3.6-1.7-3.6c-1,0-1.7,1.1-1.7,3.6c0,2.6,0.7,3.7,1.7,3.7
			C1308.9,3815.8,1309.6,3814.7,1309.6,3812.1z"/>
		<path class="st0" d="M1317.3,3807c-0.9,2-2.3,3.8-3.8,4.9c-0.2-0.2-0.5-0.5-0.8-0.7c1.5-1,2.8-2.7,3.6-4.5L1317.3,3807z
			 M1322.2,3811c0,0,0,0.3,0,0.4c-0.2,3.7-0.3,5.1-0.8,5.5c-0.3,0.3-0.5,0.4-0.9,0.4c-0.4,0-1.1,0-1.9,0c0-0.3-0.1-0.6-0.3-0.9
			c0.8,0.1,1.5,0.1,1.8,0.1c0.3,0,0.4,0,0.5-0.2c0.3-0.3,0.5-1.5,0.6-4.5h-3.1c-0.3,2.4-1.1,4.5-4.1,5.6c-0.1-0.2-0.4-0.6-0.6-0.8
			c2.8-0.9,3.5-2.8,3.8-4.9h-2.4v-0.9H1322.2z M1320.5,3806.7c0.8,1.6,2.3,3.4,3.6,4.3c-0.2,0.2-0.6,0.5-0.7,0.8
			c-1.3-1.1-2.8-3-3.7-4.8L1320.5,3806.7z"/>
	</g>
	<g transform="translate(1262.665 3780.5)">
		<g transform="translate(0 0)">
			<path class="st0" d="M25.9,7.7l-0.1-0.7c-0.1-0.7-1.4-6.2-1.4-6.2c-1.5-0.2-3-0.3-4.5-0.3c-0.1-0.2-0.3-0.4-0.5-0.5
				C19,0,6.9,0,6.5,0C6.1,0.1,5.7,0.3,5.4,0.6C2.6,0.7,0.7,0.8,0.7,0.8C0.1,1.4,0,8.7,0,8.7l0.2,1l2.7,0.7h0.6
				c0-0.2-0.1-0.3-0.1-0.5c0-1.2,1-2.2,2.2-2.2c1.2,0,2.2,1,2.2,2.2c0,0.2,0,0.3-0.1,0.5h10c0-0.2-0.1-0.3-0.1-0.5
				c0-1.2,1-2.2,2.2-2.2c1.2,0,2.2,1,2.2,2.2c0,0.2,0,0.3-0.1,0.5h3.3l0.5-0.1L26,9.1V8.3L25.9,7.7z M4.2,4.6H1.1V2.3h3.1V4.6z
				 M7.7,4.6H4.6V2.3h3.1L7.7,4.6z M11.1,4.6H8V2.3h3.1V4.6z M14.6,4.6h-3.1V2.3h3.1V4.6z M18.1,4.6h-3.1V2.3h3.1L18.1,4.6z
				 M21.5,4.6h-3.1V2.3h3.1V4.6z M22.9,7.3l-0.5-0.7V2.3h1.7l0.9,5L22.9,7.3z"/>
			<path class="st0" d="M19.6,7.7c-1.1,0-2,0.9-2,2s0.9,2,2,2c1.1,0,2-0.9,2-2C21.6,8.6,20.7,7.7,19.6,7.7
				C19.6,7.7,19.6,7.7,19.6,7.7 M19.6,10.9c-0.6,0-1.2-0.5-1.2-1.2c0-0.6,0.5-1.2,1.2-1.2c0.6,0,1.2,0.5,1.2,1.2v0
				C20.8,10.4,20.3,10.9,19.6,10.9"/>
			<path class="st0" d="M5.8,7.7c-1.1,0-2,0.9-2,2s0.9,2,2,2c1.1,0,2-0.9,2-2C7.8,8.6,6.9,7.7,5.8,7.7C5.8,7.7,5.8,7.7,5.8,7.7
				 M5.8,10.9c-0.6,0-1.2-0.5-1.2-1.2c0-0.6,0.5-1.2,1.2-1.2S7,9.1,7,9.7C7,10.4,6.4,10.9,5.8,10.9"/>
		</g>
	</g>
	<g class="st2">
		<path class="st0" d="M1304.8,3781.9c-0.4,1.2-1,2.3-1.8,3.2c0.7,0.7,1.7,1.4,2.7,1.8c-0.2,0.2-0.4,0.5-0.6,0.7
			c-0.1-0.1-0.3-0.1-0.4-0.2v3.9h-0.9v-0.4h-3v0.4h-0.8v-4c-0.2,0.1-0.5,0.2-0.7,0.3c-0.1-0.2-0.3-0.4-0.4-0.6h-1.3v2.1
			c0.5-0.1,1-0.2,1.6-0.4l0.1,0.8c-1.6,0.4-3.3,0.8-4.6,1.1l-0.2-0.9l0.6-0.1v-4.1h0.8v3.9l0.9-0.2v-4.8h-1.7v-3.7h3.9v3.2
			c0.9-0.9,1.7-2.2,2.2-3.7l0.9,0.2c-0.1,0.3-0.3,0.7-0.4,1h2.3l0.2,0L1304.8,3781.9z M1296.1,3783.8h2.3v-2.1h-2.3V3783.8z
			 M1299.3,3786.9c1-0.4,1.9-1,2.7-1.9c-0.4-0.5-0.8-1.1-1.1-1.6c-0.3,0.5-0.7,1-1.1,1.4c-0.1-0.1-0.4-0.4-0.6-0.5v0.4h-1.4v1.7h1.5
			V3786.9z M1304.3,3787.1c-0.7-0.4-1.3-0.9-1.8-1.4c-0.6,0.6-1.2,1-1.8,1.4H1304.3z M1304,3790.2v-2.3h-3v2.3H1304z M1301.4,3782.5
			l-0.1,0.2c0.3,0.6,0.7,1.2,1.2,1.8c0.5-0.6,0.9-1.3,1.2-2H1301.4z"/>
		<path class="st0" d="M1309.3,3787.4c-0.2,1.1-0.4,2.3-0.8,3c-0.1-0.1-0.5-0.3-0.7-0.3c0.4-0.7,0.6-1.8,0.7-2.9L1309.3,3787.4z
			 M1310.6,3786.4v5h-0.8v-5l-1.9,0.1l-0.1-0.8l0.8,0c0.2-0.3,0.5-0.6,0.7-1c-0.3-0.5-0.9-1.2-1.5-1.7l0.5-0.6
			c0.1,0.1,0.2,0.2,0.4,0.3c0.4-0.7,0.8-1.6,1.1-2.3l0.8,0.3c-0.4,0.8-0.9,1.8-1.4,2.5c0.3,0.3,0.5,0.5,0.6,0.8
			c0.5-0.7,0.9-1.5,1.3-2.2l0.7,0.3c-0.7,1.1-1.6,2.4-2.4,3.5l1.7-0.1c-0.2-0.3-0.3-0.7-0.5-1l0.6-0.3c0.5,0.8,1,1.8,1.2,2.5
			l-0.7,0.3c0-0.2-0.1-0.5-0.3-0.8L1310.6,3786.4z M1311.6,3787.2c0.3,0.7,0.6,1.5,0.6,2.1l-0.7,0.2c-0.1-0.6-0.3-1.5-0.6-2.1
			L1311.6,3787.2z M1314.8,3787.1c-0.4,1.9-1.4,3.1-2.5,3.8c-0.1-0.2-0.4-0.5-0.6-0.6c1-0.5,1.7-1.4,2.1-2.6h-1.6v-0.8h2l0.1,0
			L1314.8,3787.1z M1318.8,3787c-0.6,0.5-1.3,1.1-1.8,1.5c0.5,0.7,1.2,1.4,2.1,1.8c-0.2,0.2-0.4,0.5-0.5,0.7
			c-1.3-0.7-2.1-1.8-2.6-2.9v2.4c0,0.4-0.1,0.7-0.4,0.8c-0.3,0.1-0.8,0.1-1.5,0.1c0-0.2-0.1-0.6-0.2-0.8c0.5,0,1,0,1.2,0
			c0.2,0,0.2,0,0.2-0.2v-4.6h-2.4v-4.2h2c0.2-0.4,0.4-0.9,0.5-1.2l1,0.2c-0.2,0.4-0.4,0.7-0.6,1.1h2.8v4.2h-2.5v0.2
			c0.1,0.6,0.4,1.2,0.7,1.8c0.5-0.4,1.1-1,1.5-1.4L1318.8,3787z M1313.5,3783.4h4v-1h-4V3783.4z M1313.5,3785.2h4v-1h-4V3785.2z"/>
		<path class="st0" d="M1324,3782.5l1.1,0.2c-0.1,0.3-0.2,0.6-0.2,0.9c-0.2,0.7-0.6,2.5-1.1,3.7c-0.4,1.1-1.1,2.3-1.8,3.3l-1-0.4
			c0.8-1,1.4-2.3,1.8-3.3C1323.4,3785.7,1323.9,3783.8,1324,3782.5z M1327,3782.6l1-0.3c0.5,0.9,1.2,2.5,1.8,3.8
			c0.5,1.2,1.1,3,1.4,4.1l-1.1,0.3c-0.3-1.2-0.9-2.8-1.4-4.1C1328.3,3785.2,1327.5,3783.5,1327,3782.6z M1330.4,3782.8l-0.6,0.3
			c-0.2-0.5-0.6-1.2-1-1.7l0.6-0.3C1329.7,3781.6,1330.1,3782.3,1330.4,3782.8z M1331.7,3782.3l-0.6,0.3c-0.3-0.5-0.6-1.2-1-1.7
			l0.6-0.3C1331,3781.1,1331.5,3781.9,1331.7,3782.3z"/>
		<path class="st0" d="M1342.1,3782.5c-0.1,0.1-0.2,0.4-0.3,0.5c-0.4,1-1.2,2.4-2,3.5c1.3,1.1,2.7,2.6,3.5,3.6l-0.8,0.7
			c-0.8-1.1-2.1-2.5-3.3-3.6c-1.3,1.4-2.9,2.7-4.7,3.5l-0.8-0.8c1.9-0.8,3.7-2.2,4.9-3.6c0.8-0.9,1.7-2.4,2-3.3h-4.7
			c-0.4,0-1.1,0-1.2,0.1v-1.1c0.2,0,0.9,0.1,1.2,0.1h4.6c0.4,0,0.7,0,0.9-0.1L1342.1,3782.5z"/>
	</g>
</g>
</svg>
