<?xml version="1.0" encoding="UTF-8"?><svg id="_イヤー_1" xmlns="http://www.w3.org/2000/svg" viewBox="0 0 110.48 98.56"><defs><style>.cls-1{fill:#98865b;}</style></defs><path class="cls-1" d="M84.39,35.88c1.94-3.06,2.78-6.72,2.43-10.29-.18-1.78-.65-3.55-1.41-5.18-.76-1.64-1.8-3.14-3.04-4.42-1.24-1.29-2.67-2.35-4.18-3.19-1.51-.86-3.13-1.47-4.78-1.9-1.54-.39-3.1-.61-4.66-.68-.12-.49-.26-.98-.44-1.47-.31-.87-.69-1.72-1.19-2.54-.49-.81-1.08-1.58-1.76-2.27-1.35-1.39-3.04-2.42-4.8-3.05-1.76-.63-3.57-.88-5.32-.88-1.75,0-3.56,.26-5.32,.88-1.75,.63-3.45,1.66-4.8,3.05-.68,.69-1.27,1.46-1.76,2.27-.5,.81-.88,1.67-1.19,2.54-.17,.49-.32,.98-.44,1.47-1.55,.07-3.1,.28-4.63,.67-1.65,.42-3.27,1.04-4.78,1.89-1.52,.84-2.95,1.9-4.19,3.18-1.24,1.28-2.29,2.78-3.05,4.41-.76,1.63-1.24,3.39-1.42,5.18-.36,3.57,.47,7.24,2.41,10.3l.02,.03c-1.93,3.03-2.77,6.66-2.44,10.2,.16,1.78,.63,3.55,1.38,5.19,.75,1.64,1.78,3.15,3.01,4.44,1.23,1.29,2.66,2.36,4.17,3.22,1.51,.86,3.12,1.48,4.77,1.92,1.56,.41,3.16,.64,4.75,.71,.12,.49,.26,.97,.43,1.45,.6,1.73,1.58,3.43,2.94,4.81,1.35,1.39,3.04,2.43,4.79,3.06,1.76,.63,3.57,.88,5.32,.89,1.75,0,3.56-.25,5.32-.88,1.75-.63,3.45-1.66,4.8-3.04,.68-.69,1.27-1.46,1.77-2.27,.49-.81,.88-1.67,1.19-2.54,.18-.49,.32-.99,.44-1.49,1.58-.07,3.16-.3,4.72-.7,1.65-.43,3.27-1.05,4.78-1.91,1.51-.85,2.94-1.92,4.17-3.21,1.24-1.29,2.27-2.79,3.02-4.43,.75-1.64,1.22-3.4,1.39-5.18,.34-3.55-.5-7.19-2.43-10.23h0Zm-15.58-25.41c1.52,.07,3.04,.29,4.54,.67,1.63,.42,3.23,1.03,4.72,1.87,1.49,.83,2.91,1.88,4.13,3.15,1.22,1.26,2.25,2.74,2.99,4.35,.75,1.61,1.21,3.34,1.39,5.1,.34,3.48-.46,7.05-2.33,10.04-.17-.25-.34-.5-.52-.74,1.64-2.77,2.35-6.04,2.03-9.22-.16-1.67-.61-3.31-1.31-4.83-.7-1.52-1.67-2.93-2.83-4.12-1.16-1.2-2.5-2.2-3.93-3-1.42-.81-2.96-1.39-4.53-1.8-1.37-.35-2.77-.56-4.17-.64-.09,0-.17,0-.26-.01-.12,0-.23-.01-.35-.02-.17,0-.33,0-.49,0-1.25-.01-2.49,.09-3.71,.27-.18,.03-.36,.05-.55,.08-.09,.02-.18,.04-.27,.05-.08,.01-.16,.03-.25,.05-1.38,.26-2.74,.61-4.05,1.08-.87,.31-1.74,.66-2.58,1.04-.06-.03-.12-.07-.19-.1-.24-.13-.5-.26-.74-.38,1.05-.5,2.14-.94,3.25-1.33,1.33-.47,2.7-.84,4.1-1.1,.08-.02,.17-.03,.25-.05,.12-.02,.23-.05,.35-.07,.16-.03,.32-.05,.47-.07,1.23-.18,2.48-.3,3.74-.3,.23,0,.46,0,.69,.01,.05,0,.11,0,.16,0,.09,0,.17,0,.26,.01Zm8.58,24.9c.24,.16,.47,.33,.69,.51,.88,.71,1.65,1.56,2.27,2.53,.05,.09,.11,.17,.16,.26,.14,.24,.28,.48,.4,.73,.04,.08,.08,.15,.11,.23,.88,1.86,1.25,3.98,1.05,6.03-.23,2.53-1.34,4.94-3.11,6.77-1.76,1.83-4.15,3.15-6.71,3.8-.98,.25-1.99,.42-3.01,.5,0-.28-.01-.55-.03-.83,.96-.08,1.91-.24,2.83-.48,2.43-.62,4.68-1.87,6.32-3.57,1.65-1.7,2.67-3.93,2.88-6.28,.18-1.85-.14-3.76-.91-5.45-.04-.08-.07-.16-.11-.23-.12-.25-.25-.5-.39-.74-.06-.11-.13-.21-.2-.32-.61-.95-1.37-1.78-2.26-2.46-.24-.18-.48-.35-.73-.51-.08-.05-.16-.1-.24-.15-.68-.4-1.42-.72-2.19-.95-.23-.08-.47-.13-.71-.19-.02-.29-.05-.57-.08-.86,.35,.07,.69,.15,1.03,.25,.96,.28,1.87,.7,2.71,1.23,.07,.05,.15,.1,.22,.15Zm-8.2,19.94c-.04-.41-.07-.82-.12-1.23l-.08-.61-.04-.3-.07-.35c-.22-1.16-.59-2.23-1.03-3.22,1.05-1.14,2.03-2.38,2.87-3.75,.55-.9,1.03-1.85,1.44-2.84,.37-.02,.74-.07,1.11-.12l.66-.09,.65-.14,.65-.14c.22-.05,.43-.13,.65-.19,1.5-.45,2.95-1.13,4.26-2.03,.73,1.63,1.04,3.48,.87,5.27-.21,2.3-1.21,4.47-2.81,6.13-1.6,1.66-3.81,2.89-6.2,3.5-.9,.23-1.83,.39-2.78,.47,0-.12-.01-.24-.02-.36Zm-5.24,5.72c-.02,.08-.05,.16-.08,.24-.41,1.24-1.04,2.36-1.92,3.24-.83,.84-1.85,1.48-3,1.89-1.15,.41-2.42,.59-3.71,.6-1.29,0-2.56-.2-3.71-.61-1.15-.42-2.18-1.06-3-1.9-.87-.88-1.5-1.99-1.9-3.22,.12-.02,.23-.03,.35-.05,.16-.02,.32-.05,.48-.08,.38,1.08,.93,2.03,1.67,2.78,.73,.75,1.64,1.32,2.69,1.7,1.05,.37,2.22,.55,3.43,.56,1.21,0,2.39-.18,3.43-.55,1.05-.38,1.96-.95,2.69-1.69,.75-.75,1.31-1.7,1.69-2.79,.03-.08,.05-.16,.08-.24,.08-.26,.16-.53,.22-.8,.18-.78,.28-1.6,.31-2.45,.02-.41,.01-.83,0-1.25,0-.22-.02-.45-.03-.67,0-.06-.01-.12-.02-.19,0-.09-.02-.17-.03-.26-.02-.18-.03-.35-.05-.53l-.07-.49-.03-.25-.04-.19c-.01-.07-.03-.14-.05-.21,.24-.18,.48-.36,.72-.54,.05,.2,.1,.4,.14,.61l.04,.22,.03,.25,.07,.51c.03,.26,.05,.52,.08,.78,0,.08,.02,.15,.02,.23v.03c.02,.28,.03,.56,.04,.84,.01,.38,.02,.76,0,1.13-.03,.87-.13,1.73-.31,2.55-.06,.27-.13,.54-.21,.8Zm-17.1-4.63c-.22,.04-.44,.08-.66,.12-.06,0-.12,.02-.18,.03-1.23,.19-2.47,.29-3.7,.26-.06,0-.11,0-.17,0-.22,0-.44-.03-.66-.04-.08,0-.17,0-.25-.02-1.03-.09-2.05-.25-3.04-.51-2.56-.66-4.94-1.97-6.7-3.81-1.77-1.83-2.87-4.25-3.09-6.78-.19-2.05,.18-4.16,1.06-6.01,.09,.07,.18,.15,.28,.22,.13,.1,.26,.19,.4,.29-.76,1.68-1.08,3.58-.91,5.42,.21,2.35,1.23,4.58,2.87,6.29,1.63,1.71,3.88,2.96,6.31,3.58,.93,.24,1.88,.4,2.85,.48,.08,0,.17,0,.25,.02,.22,.02,.44,.03,.66,.04,.06,0,.11,0,.17,0,1.23,.03,2.47-.08,3.71-.28h0c.28-.04,.56-.1,.84-.15,.09-.02,.17-.04,.26-.06,.28-.06,.56-.13,.83-.19l.96-.27c.05-.01,.1-.03,.15-.05,.29,.2,.59,.39,.89,.58-.27,.09-.53,.19-.8,.26l-.99,.28c-.36,.08-.73,.17-1.09,.25-.08,.02-.17,.03-.25,.05Zm-13.75-20.01c-.24-.16-.47-.33-.69-.51-.9-.72-1.68-1.59-2.3-2.58-.04-.07-.08-.14-.12-.21-.14-.24-.28-.48-.41-.73-.04-.08-.08-.15-.11-.23-.89-1.88-1.26-4.02-1.05-6.1,.25-2.53,1.37-4.94,3.15-6.76,.89-.91,1.93-1.69,3.07-2.32,1.14-.65,2.38-1.12,3.66-1.44,.96-.24,1.95-.41,2.94-.49,0,.28,.01,.55,.03,.83-.94,.08-1.87,.23-2.77,.46-1.22,.31-2.39,.76-3.47,1.37-1.07,.6-2.05,1.32-2.88,2.18-1.66,1.69-2.69,3.92-2.92,6.27-.19,1.87,.13,3.81,.9,5.51,.04,.08,.07,.15,.11,.23,.12,.25,.25,.5,.39,.73,.05,.09,.11,.18,.16,.27,.61,.98,1.39,1.82,2.29,2.51,.24,.18,.48,.35,.73,.51,.08,.05,.16,.1,.24,.14,.67,.39,1.38,.71,2.13,.93,.25,.08,.51,.14,.77,.2,.02,.29,.05,.57,.08,.86-.37-.07-.74-.16-1.09-.27-.94-.28-1.83-.69-2.64-1.21-.07-.05-.15-.1-.22-.15Zm8.2-19.92c.04,.41,.07,.82,.12,1.23l.08,.61,.04,.3,.07,.36,.15,.73,.21,.69,.11,.34,.13,.32,.26,.65c.07,.14,.13,.29,.2,.43-1.09,1.17-2.09,2.45-2.95,3.87-.53,.88-1,1.8-1.39,2.76-.12,0-.24,.01-.36,.03l-.66,.08-.66,.09c-.22,.03-.44,.09-.65,.13-.44,.1-.87,.18-1.3,.33-1.53,.45-3.01,1.14-4.35,2.06-.74-1.65-1.05-3.52-.86-5.33,.22-2.29,1.23-4.46,2.85-6.12,.81-.83,1.76-1.54,2.82-2.13,1.05-.6,2.21-1.04,3.41-1.34,.88-.22,1.79-.37,2.72-.45,0,.12,.01,.25,.02,.37Zm4.75-.36v-.04c-.02-.28-.03-.56-.04-.84-.01-.38-.02-.75,0-1.12,.03-.88,.13-1.74,.32-2.57,.06-.27,.13-.54,.21-.8,.02-.08,.05-.16,.08-.24,.41-1.24,1.04-2.35,1.91-3.23,.82-.84,1.85-1.48,3-1.9,1.15-.41,2.42-.6,3.71-.6,1.29,0,2.56,.19,3.71,.6,1.15,.42,2.18,1.05,3,1.9,.88,.88,1.5,1.99,1.91,3.23-.15,.02-.29,.04-.44,.07-.13,.02-.26,.05-.39,.07-.38-1.09-.93-2.04-1.68-2.79-.73-.75-1.64-1.32-2.69-1.7-1.05-.37-2.22-.55-3.43-.55-1.21,0-2.38,.18-3.43,.55-1.05,.38-1.96,.95-2.69,1.7-.75,.75-1.3,1.7-1.68,2.79-.03,.08-.05,.16-.08,.24-.08,.26-.15,.53-.22,.8-.18,.78-.28,1.6-.31,2.46-.02,.41-.01,.82,0,1.24,0,.22,.02,.45,.03,.67,0,.06,.01,.12,.02,.18,0,.09,.02,.17,.02,.26,.02,.18,.04,.36,.06,.54l.07,.49,.03,.25,.04,.18,.04,.21c-.24,.18-.48,.36-.71,.54l-.05-.18-.09-.42-.05-.21-.03-.25-.07-.51c-.03-.27-.06-.53-.08-.8,0-.07-.01-.14-.02-.22Zm12.12-1.03c.66,.39,1.32,.78,1.98,1.2l.05,.03c.3,.19,.59,.38,.89,.57,.09,.06,.17,.12,.26,.18,.57,.38,1.13,.78,1.68,1.19-.07,.26-.17,.54-.29,.82-.78-.59-1.58-1.14-2.38-1.67-.09-.06-.17-.11-.26-.17-.29-.19-.58-.37-.88-.55-1.13-.7-2.28-1.36-3.46-1.98-.17-.09-.35-.18-.52-.27-.31-.16-.62-.31-.93-.45-.1-.04-.19-.09-.29-.13-.84-.37-1.69-.72-2.55-1.02-1.32-.47-2.69-.83-4.08-1.09,.06-.27,.14-.54,.22-.8,1.41,.27,2.8,.63,4.14,1.11,1.09,.39,2.17,.83,3.22,1.32,.09,.05,.19,.09,.28,.14,.31,.15,.61,.3,.91,.46h.02c.36,.19,.68,.37,1.01,.55l1,.57Zm9.31,7.08c-.13,.26-.27,.52-.41,.77-.19,.34-.39,.67-.6,.98-.49,.76-1.02,1.47-1.56,2.14-.18,.22-.35,.44-.53,.65-.05,.07-.11,.13-.16,.2-.24,.28-.48,.55-.72,.82-1.05,1.17-2.14,2.25-3.25,3.3-.24,.22-.47,.43-.71,.65-.22-.17-.44-.34-.66-.52,.27-.24,.53-.48,.8-.73,1.1-1.03,2.18-2.1,3.21-3.25,.26-.29,.53-.59,.78-.9,.05-.06,.11-.13,.16-.2,.18-.21,.36-.43,.53-.65,.5-.63,.97-1.28,1.42-1.97,.24-.37,.47-.76,.69-1.16,.14-.25,.27-.51,.4-.78,.04-.08,.08-.16,.12-.24,.35-.77,.63-1.6,.81-2.5l.07-.34,.04-.29,.08-.59c.05-.39,.08-.79,.12-1.18,0-.12,.01-.23,.02-.35,.28,0,.55,.02,.83,.04,0,.12-.01,.25-.02,.37-.04,.41-.07,.82-.12,1.22l-.08,.6-.04,.3-.07,.36c-.22,1.1-.58,2.07-1.01,2.97-.04,.08-.08,.16-.12,.24Zm6.04,12.71c.21,.04,.43,.09,.63,.17,.71,.21,1.39,.5,2.02,.85-.62,.35-1.28,.64-1.98,.84-.14,.04-.27,.1-.41,.12l-.25,.05c.02-.32,.03-.64,.03-.96,0-.36-.01-.72-.03-1.08Zm-.12,2.32l.1-.02,.33-.07c.15-.03,.28-.09,.42-.13,.76-.23,1.48-.54,2.16-.94,.26,.16,.51,.33,.75,.51-.82,.53-1.72,.94-2.67,1.22-.35,.11-.71,.19-1.07,.26-.09,.02-.17,.03-.26,.05-.28,.05-.56,.09-.85,.12-.54,.06-1.08,.09-1.61,.09-.67-.01-1.37-.12-2.08-.3-.27-.07-.53-.14-.8-.23-.08-.03-.16-.05-.24-.08-.18-.06-.36-.13-.55-.2-.73-.28-1.45-.61-2.16-.98,.3-.16,.6-.32,.9-.47,.52,.25,1.03,.48,1.55,.68,.11,.04,.23,.08,.34,.12,.08,.03,.16,.06,.24,.08,.27,.09,.54,.17,.81,.24,.69,.18,1.37,.29,1.99,.3,.12,.02,.29,0,.44,0l.46-.02c.27,0,.53-.04,.79-.07,.04,0,.07,0,.11-.01l.45-.06,.28-.06,.15-.03Zm-1.46,5.57l-.65,.03c-.08,0-.15,0-.23,0-.14,0-.28,.01-.44,0-1.2-.03-2.33-.22-3.39-.51-.27-.07-.54-.16-.81-.24-.08-.03-.16-.05-.24-.08-.26-.09-.51-.18-.76-.27-1.57-.6-3.01-1.35-4.37-2.16-.15-.09-.29-.18-.44-.27,.24-.18,.48-.35,.72-.53,.05,.03,.09,.06,.14,.09,1.33,.79,2.73,1.52,4.24,2.1,.27,.1,.55,.2,.83,.29,.08,.03,.16,.05,.24,.08,.26,.08,.53,.16,.8,.23,.97,.25,1.98,.42,3.04,.45,.25,0,.51,0,.76-.01,.3-.01,.6-.03,.89-.05,.09,0,.18-.01,.27-.02,1.01-.1,2.01-.29,2.99-.59,1.44-.43,2.83-1.1,4.07-1.97,.14,.24,.27,.49,.39,.74-1.3,.89-2.74,1.57-4.22,2.02-.21,.06-.42,.14-.64,.19l-.64,.14-.64,.14-.65,.09c-.33,.04-.65,.09-.98,.11-.09,0-.18,.01-.27,.01h-.04Zm-5.3,.59c-.42,.69-.9,1.35-1.42,1.98-.05,.07-.11,.13-.16,.2-.18,.21-.36,.43-.55,.63-.82,.91-1.73,1.76-2.69,2.56-.21,.18-.43,.35-.64,.52-.02,.02-.04,.03-.06,.05-.04,.03-.09,.07-.14,.1-1.06,.82-2.17,1.59-3.33,2.32-.43,.28-.88,.54-1.32,.8-.08-.04-.15-.08-.23-.13l-.6-.34c.58-.34,1.15-.68,1.71-1.03,1.14-.71,2.23-1.48,3.27-2.28,.04-.03,.08-.06,.12-.09,.03-.02,.05-.04,.08-.06,.22-.17,.43-.35,.64-.52,.97-.81,1.87-1.66,2.68-2.57,.19-.21,.37-.42,.55-.64,.05-.07,.11-.13,.16-.2,.45-.56,.87-1.14,1.23-1.75,.13-.22,.25-.43,.37-.65,.27,.09,.54,.17,.81,.25-.15,.28-.31,.56-.48,.84Zm-3.53,10.52l.04,.19,.03,.24,.07,.49c.02,.15,.03,.29,.04,.44-.26-.06-.51-.12-.77-.18l-.88-.25c.49-.33,.97-.67,1.44-1.02,0,.03,.01,.06,.02,.09Zm-1.6,1.15l.96,.27c.29,.07,.57,.13,.86,.2,0,.09,.02,.17,.03,.26,.01,.2,.02,.4,.03,.6-.37-.08-.75-.17-1.12-.25l-.99-.28c-.26-.07-.52-.16-.78-.25-.07-.02-.13-.05-.2-.07-.03-.01-.07-.02-.1-.04-.33-.12-.65-.24-.98-.36-.93-.36-1.84-.77-2.72-1.25-.31-.15-.62-.33-.93-.5l-.33-.19-.6-.34c-.08-.05-.15-.09-.23-.14-.08-.05-.17-.1-.25-.15-.45-.27-.9-.54-1.34-.82-1.15-.72-2.25-1.49-3.3-2.3,.16-.22,.32-.44,.5-.66,1.03,.8,2.12,1.55,3.25,2.26,.57,.36,1.15,.71,1.74,1.05l.06,.04,.19,.11,.73,.41s.07,.04,.1,.06c.28,.15,.55,.3,.81,.43,1.04,.56,2.11,1.02,3.21,1.42,.16,.06,.31,.12,.47,.17,.17,.06,.34,.12,.51,.17,.1,.03,.2,.07,.31,.1,.04,.01,.08,.03,.13,.04Zm-14.29-.26l.07-.49,.03-.24,.04-.18s.01-.05,.02-.07c.48,.35,.96,.69,1.44,1.02l-.9,.26c-.25,.06-.5,.11-.75,.17,.02-.15,.03-.31,.05-.47Zm-.07-1.15c-.01,.06-.03,.13-.04,.19l-.04,.19-.03,.24-.07,.49c-.02,.19-.04,.37-.06,.55-.28,.06-.56,.11-.85,.16,.03-.27,.05-.54,.08-.81l.07-.51,.04-.25,.05-.22c.04-.19,.08-.39,.14-.58,.02-.09,.05-.17,.07-.26,.08-.28,.18-.55,.29-.83,.24-.61,.55-1.22,.9-1.81,.29-.49,.61-.97,.95-1.44,.16-.22,.33-.44,.5-.66,.05-.07,.1-.13,.15-.2,.26-.33,.53-.65,.81-.97,.91-1.04,1.9-2.03,2.96-2.96,.26-.24,.53-.46,.8-.69,.16-.14,.33-.27,.49-.4,.23,.17,.45,.35,.67,.52-.21,.17-.42,.34-.62,.51-.26,.23-.53,.44-.78,.68-1.03,.91-2,1.88-2.89,2.88-.27,.31-.53,.63-.79,.95-.05,.07-.1,.13-.15,.2-.17,.22-.34,.44-.5,.66-.32,.44-.62,.88-.88,1.33-.38,.64-.7,1.28-.93,1.92-.11,.28-.19,.56-.27,.84-.02,.09-.04,.18-.06,.27Zm-4.22-4.07c.13-.27,.26-.54,.4-.8,.16-.3,.32-.59,.49-.88,.49-.83,1.03-1.6,1.59-2.34,.17-.23,.34-.45,.52-.67,.05-.07,.11-.13,.16-.2,.21-.25,.42-.5,.63-.75,1.06-1.2,2.18-2.32,3.35-3.35,.23-.21,.46-.41,.7-.6l.07,.05,.59,.47c-.27,.23-.55,.45-.81,.7-1.15,1.02-2.25,2.11-3.28,3.28-.24,.27-.48,.55-.71,.84-.05,.07-.11,.13-.16,.2-.17,.22-.35,.44-.52,.66-.51,.68-.99,1.38-1.44,2.13-.21,.35-.41,.72-.6,1.09-.13,.26-.25,.53-.37,.8-.04,.08-.07,.16-.11,.25-.33,.8-.6,1.64-.77,2.54l-.06,.33-.04,.29-.08,.59c-.05,.39-.08,.79-.12,1.18,0,.12-.01,.24-.02,.37-.06,0-.12,0-.17,0-.22,0-.43-.02-.65-.04,0-.13,.01-.26,.02-.39,.04-.41,.07-.82,.12-1.22l.08-.6,.04-.3,.07-.35c.21-1.09,.55-2.09,.96-3.02,.04-.08,.07-.17,.11-.25Zm-5.98-12.65c-.23-.05-.46-.11-.69-.18-.69-.21-1.35-.49-1.96-.84,.64-.36,1.32-.65,2.04-.86,.19-.07,.4-.12,.61-.16-.02,.35-.03,.7-.03,1.05,0,.33,.02,.66,.03,.99Zm.18-2.33c-.06,.01-.11,.02-.17,.04-.23,.05-.47,.1-.69,.18-.78,.23-1.52,.55-2.21,.95-.26-.16-.51-.33-.75-.51,.84-.54,1.76-.96,2.73-1.24,.3-.11,.61-.16,.92-.23,.03,0,.05-.01,.08-.02,.09-.02,.17-.04,.26-.06,.04,0,.08-.02,.13-.03l.48-.06,.24-.03,.24-.03c.16-.02,.32-.02,.49-.03l.49-.02h.24c.08-.01,.15,0,.23,0,.65,.02,1.33,.13,2.02,.3,.27,.07,.53,.14,.8,.23,.08,.03,.16,.05,.24,.08,.2,.07,.41,.14,.61,.22,.7,.27,1.4,.6,2.09,.96-.3,.16-.6,.32-.91,.47-.49-.24-.99-.46-1.48-.66-.13-.05-.27-.1-.4-.15-.08-.03-.16-.06-.24-.08-.27-.09-.54-.17-.81-.24-.67-.18-1.33-.28-1.94-.3-.07,0-.13-.01-.2-.01h-.23l-.46,.03c-.15,0-.31,0-.46,.02l-.4,.05h-.05l-.45,.06c-.12,.02-.23,.05-.35,.07-.03,0-.06,.01-.09,.02Zm6.66-6.09c.46-.75,.98-1.47,1.55-2.16,.06-.07,.11-.14,.16-.2,.18-.21,.37-.42,.56-.63,.83-.9,1.74-1.75,2.7-2.54,.18-.15,.36-.3,.54-.44,.03-.03,.07-.05,.1-.08,.07-.05,.13-.1,.2-.15,1.43-1.09,2.96-2.1,4.54-3.04,.1,.06,.2,.11,.3,.16l.53,.3c-.6,.35-1.19,.7-1.78,1.07-1.07,.67-2.1,1.39-3.08,2.14-.07,.05-.13,.1-.2,.15-.04,.03-.07,.05-.11,.08-.18,.14-.36,.29-.54,.44-.97,.8-1.87,1.65-2.69,2.54-.19,.21-.37,.42-.55,.63-.06,.07-.11,.13-.16,.2-.51,.62-.98,1.27-1.38,1.94-.12,.2-.23,.4-.34,.6-.27-.09-.54-.17-.81-.25,.14-.26,.29-.52,.44-.78Zm3.58-10.49l-.02-.09-.04-.18-.03-.24-.07-.49c-.02-.15-.03-.3-.05-.45,.55,.12,1.1,.26,1.65,.43-.49,.33-.97,.67-1.44,1.02Zm-.23-1.71c0-.08-.02-.17-.02-.25-.01-.2-.02-.4-.03-.61,.97,.2,1.94,.46,2.88,.78,.09,.03,.18,.06,.27,.09h.03c.33,.13,.65,.25,.98,.38,.95,.37,1.88,.79,2.78,1.28,.4,.21,.8,.43,1.2,.66,.28,.16,.56,.32,.84,.48,.08,.05,.17,.1,.25,.15,1.56,.92,3.06,1.91,4.48,2.99-.17,.22-.34,.43-.52,.65-.96-.73-1.95-1.42-2.99-2.08-.59-.37-1.19-.73-1.8-1.09h0l-.25-.14-.67-.38c-.06-.03-.11-.06-.17-.09-.25-.14-.51-.28-.75-.4-1.06-.57-2.16-1.04-3.27-1.46-.13-.05-.27-.1-.4-.15-.19-.07-.39-.13-.59-.19-.1-.03-.2-.07-.3-.1-.64-.2-1.29-.37-1.94-.51Zm11.54,15.04c.22,.18,.44,.35,.66,.52,.07,.05,.14,.11,.21,.16,.21,.16,.42,.32,.63,.48-.25,.16-.5,.32-.74,.48-.17-.13-.34-.26-.51-.39-.07-.05-.13-.11-.2-.16-.22-.17-.44-.35-.65-.52-.52-.42-1.03-.85-1.54-1.29-.44-.37-.87-.74-1.3-1.12-.21-.18-.42-.37-.63-.55-.06-.06-.13-.11-.19-.17-.38-.34-.77-.68-1.14-1.02-1.05-.97-2.06-1.97-3-3.01-.28-.31-.55-.63-.82-.94,.18-.15,.35-.29,.53-.43,.04-.03,.07-.06,.11-.08,.26,.31,.52,.61,.79,.91,.92,1.01,1.91,2,2.95,2.96,.39,.36,.8,.72,1.2,1.08,.06,.06,.12,.11,.19,.17,.21,.18,.42,.36,.63,.55,.4,.35,.8,.69,1.22,1.04,.54,.47,1.08,.92,1.63,1.35Zm8.98,3.62c-.13,.04-.25,.09-.38,.14-.5,.19-1.01,.42-1.51,.66-.1,.05-.19,.09-.29,.14-.3,.15-.59,.31-.89,.47-1.19,.66-2.36,1.42-3.5,2.24-.24,.17-.48,.35-.72,.53l-.06,.04c-.05,.04-.11,.08-.16,.12-.16,.12-.31,.24-.47,.36h-.01c-.21-.19-.43-.37-.64-.54,.13-.1,.26-.2,.39-.3,.07-.05,.14-.11,.21-.16,.06-.05,.13-.1,.19-.15,.17-.13,.34-.25,.52-.38,1.11-.81,2.25-1.57,3.41-2.24,.28-.16,.56-.32,.85-.47,.09-.05,.18-.09,.27-.14,.7-.36,1.4-.69,2.12-.97,.2-.08,.39-.14,.59-.21,.04,.28,.07,.56,.09,.84Zm.04,.99c0,.21-.01,.42-.02,.63-.09-.03-.17-.06-.26-.1-.45-.17-.89-.37-1.34-.58,.44-.21,.87-.4,1.3-.57,.1-.04,.2-.07,.3-.11,.01,.24,.02,.48,.02,.72Zm-12.47,15.99l-.06-.04c-.6-.35-1.21-.71-1.79-1.08-1.13-.71-2.2-1.46-3.23-2.25,.25-.32,.51-.63,.78-.94,.88-1,1.84-1.96,2.87-2.86,.25-.23,.52-.45,.78-.67,.21-.19,.44-.36,.66-.54,.23,.18,.46,.37,.68,.56,.26,.22,.53,.44,.78,.67,1.03,.91,1.99,1.86,2.86,2.86,.26,.3,.52,.61,.76,.92-1.03,.8-2.12,1.55-3.25,2.27-.59,.37-1.19,.73-1.79,1.08l-.04,.02Zm4.51-4.45c-.88-1.01-1.85-1.97-2.89-2.89-.25-.23-.52-.45-.78-.68-.21-.18-.43-.36-.64-.53-.05-.04-.1-.09-.16-.13l-.04-.03c-.22-.18-.44-.35-.67-.52-.04-.03-.08-.06-.11-.09l-.42-.31-.21-.16-.1-.08c-.11-.09-.15-.11-.23-.18l-.85-.72-.82-.67-.19-.15-.64-.51-.02-.02-.2-.16-.47-.36c.25-.16,.49-.32,.74-.48l.38,.29,.09,.07,.12,.09,.66,.53,.06,.05,.83,.68,.85,.72c.06,.06,.1,.08,.19,.15l.11,.08,.21,.16,.42,.32c.09,.07,.18,.14,.28,.21,.19,.15,.37,.3,.56,.44,.04,.03,.07,.06,.11,.09,.07,.05,.13,.11,.2,.16,.17,.14,.34,.28,.51,.42,.27,.23,.54,.45,.8,.69,1.05,.93,2.05,1.92,2.96,2.96,.27,.31,.53,.63,.79,.95-.21,.18-.43,.35-.64,.52-.25-.31-.5-.62-.77-.93Zm-16.94-10.64c.11-.04,.21-.07,.32-.12,.52-.2,1.05-.43,1.57-.69,.1-.05,.19-.09,.29-.14,.3-.15,.59-.31,.88-.47,.26-.15,.53-.3,.79-.45,.92-.55,1.82-1.15,2.71-1.79,.24-.17,.48-.35,.72-.52h0c.07-.06,.14-.11,.21-.17,.2-.15,.4-.3,.6-.46,.21,.19,.42,.38,.62,.56-.16,.13-.32,.25-.49,.38-.07,.05-.14,.11-.21,.16-.08,.06-.17,.13-.25,.19-.15,.11-.3,.22-.46,.33-.99,.73-2.01,1.41-3.05,2.03-.12,.07-.25,.14-.37,.21-.28,.16-.56,.32-.84,.47-.09,.05-.18,.09-.27,.14-.72,.37-1.45,.71-2.18,.99-.17,.07-.35,.13-.52,.19-.04-.28-.07-.56-.09-.84Zm-.03-.92c0-.23,.01-.47,.02-.7,.11,.04,.22,.08,.33,.12,.43,.16,.85,.36,1.28,.56-.46,.22-.91,.42-1.37,.59-.08,.03-.16,.06-.24,.09-.01-.22-.02-.44-.02-.66Zm4.76-8.7c1.04,1.14,2.12,2.22,3.23,3.24,.27,.25,.54,.48,.81,.73,.06,.06,.13,.11,.19,.17,.21,.19,.41,.38,.62,.56,.58,.51,1.17,1.01,1.76,1.51,.36,.31,.73,.62,1.1,.92,.22,.18,.43,.36,.65,.53,.07,.05,.13,.11,.2,.16,.07,.06,.14,.11,.22,.17-.22,.17-.45,.35-.67,.52-.07-.05-.13-.11-.2-.16-.07-.05-.13-.11-.2-.16-.22-.18-.44-.36-.65-.53-.33-.28-.66-.55-.98-.83-.62-.53-1.25-1.07-1.88-1.62-.21-.18-.42-.37-.62-.56-.06-.06-.13-.11-.19-.17-.24-.21-.48-.42-.71-.64-1.12-1.04-2.22-2.13-3.28-3.29-.24-.26-.47-.53-.7-.8,.18-.21,.36-.42,.55-.63,.25,.3,.51,.59,.77,.87Zm7.71,8.83l-.2-.16c.07-.05,.13-.1,.2-.16,.07,.05,.13,.1,.2,.16-.07,.05-.13,.1-.2,.16Zm-8.51-8.11c1.07,1.18,2.17,2.27,3.3,3.31,.23,.21,.46,.41,.68,.61-.21,.16-.43,.33-.64,.49-.15-.09-.3-.19-.45-.28-1.37-.82-2.82-1.58-4.4-2.19-.26-.1-.54-.2-.81-.29,.1-.18,.2-.37,.31-.55,.39-.65,.84-1.27,1.33-1.87,.22,.26,.45,.52,.68,.77Zm-2.01,13c1.51-.57,2.91-1.3,4.25-2.09,.06-.03,.11-.07,.17-.1,.08-.05,.15-.1,.23-.14,.25-.16,.51-.31,.75-.47,.92-.59,1.8-1.21,2.66-1.85,.17-.13,.34-.26,.5-.38,.23-.17,.45-.35,.68-.52,.07-.05,.14-.11,.2-.16,.07-.06,.14-.11,.22-.17,.22,.18,.43,.36,.65,.54-.07,.05-.13,.11-.2,.16-.07,.05-.13,.11-.2,.16-.22,.18-.44,.35-.67,.52-.23,.18-.46,.35-.69,.52-.79,.59-1.61,1.17-2.45,1.72-.25,.16-.49,.32-.74,.48-.08,.05-.15,.1-.23,.14-.16,.1-.31,.19-.47,.29-1.36,.81-2.8,1.56-4.38,2.16-.24,.09-.48,.18-.73,.26-.13-.25-.25-.5-.36-.75,.27-.09,.54-.18,.8-.28Zm.38,1.01c1.59-.61,3.04-1.36,4.42-2.18,.19-.11,.37-.23,.55-.34l.5,.38c-.22,.19-.44,.37-.66,.57-1.18,1.04-2.31,2.16-3.38,3.38-.2,.23-.4,.47-.6,.71-.44-.55-.84-1.12-1.2-1.7-.12-.19-.22-.39-.33-.58,.23-.08,.46-.16,.69-.25Zm18.04,2.55c-1.03-1.18-2.13-2.27-3.28-3.28-.27-.25-.55-.48-.83-.72l-.04-.03c-.05-.04-.11-.09-.16-.13-.22-.18-.43-.36-.65-.54-.03-.02-.05-.04-.08-.06-.3-.24-.59-.48-.9-.71l-.82-.62-.84-.71-.31-.25-.57-.47-.08-.07-.2-.16-.22-.17c.22-.17,.45-.35,.67-.52l.2,.16,.15,.12,.05,.04,.65,.54,.18,.15,.83,.71,.8,.6c.31,.23,.61,.48,.92,.72,.07,.06,.15,.12,.22,.18,.22,.18,.44,.35,.65,.54l.03,.02c.06,.05,.11,.1,.17,.14,.24,.2,.49,.41,.72,.62,1.17,1.04,2.3,2.15,3.35,3.36,.21,.24,.41,.48,.61,.72-.18,.22-.36,.43-.54,.64-.23-.28-.45-.55-.69-.82Zm.81-.71c-1.06-1.22-2.2-2.34-3.38-3.38-.22-.21-.45-.4-.68-.59,.17-.13,.33-.26,.5-.38,.18,.11,.35,.22,.53,.33,1.37,.82,2.82,1.57,4.41,2.18,.24,.09,.48,.17,.72,.26-.11,.2-.22,.4-.34,.6-.35,.58-.75,1.14-1.18,1.68-.19-.23-.38-.47-.58-.69Zm1.72-12.92c-1.51,.58-2.91,1.31-4.24,2.1-.03,.02-.07,.04-.1,.06-.08,.05-.15,.1-.23,.14-.25,.16-.51,.31-.75,.47-.94,.61-1.85,1.24-2.73,1.9-.15,.11-.29,.22-.44,.34-.23,.17-.45,.35-.68,.52-.07,.05-.14,.11-.2,.16-.07,.06-.14,.11-.22,.17l-.65-.54c.07-.05,.13-.11,.2-.16,.07-.05,.13-.11,.2-.16,.22-.18,.45-.35,.67-.52,.21-.16,.41-.32,.62-.47,.81-.61,1.65-1.2,2.52-1.76,.24-.16,.49-.32,.74-.47,.08-.05,.15-.1,.23-.14,.13-.08,.26-.16,.39-.24,1.36-.81,2.8-1.56,4.37-2.17,.27-.1,.54-.2,.81-.29,.13,.25,.25,.5,.36,.75-.3,.1-.59,.2-.88,.31Zm-.39-1.01c-1.59,.61-3.03,1.37-4.41,2.19-.16,.1-.32,.2-.48,.3-.22-.17-.45-.34-.67-.51,.23-.21,.45-.42,.68-.63,1.11-1.05,2.21-2.14,3.27-3.31,.23-.26,.47-.53,.7-.79,.52,.63,.99,1.28,1.4,1.96,.11,.17,.2,.35,.3,.53-.26,.09-.52,.18-.78,.28Zm-11.29-2.91c-1.04-.96-2.02-1.94-2.93-2.94-.27-.29-.52-.59-.77-.89,.97-.74,1.99-1.46,3.05-2.12,.59-.37,1.19-.73,1.79-1.08l.1-.06,.13,.07c.61,.35,1.2,.71,1.79,1.08,1.03,.65,2.02,1.34,2.97,2.06-.26,.3-.52,.61-.79,.91-.91,1.01-1.9,2-2.94,2.97-.39,.37-.79,.73-1.19,1.09-.41-.36-.82-.72-1.22-1.09Zm-14.4,2.02c.11,0,.23,0,.35,.01,1.16,.04,2.26,.23,3.29,.51,.27,.07,.54,.15,.81,.24,.08,.03,.16,.05,.24,.08,.29,.1,.57,.2,.85,.3,1.57,.61,3,1.36,4.36,2.17,.12,.07,.24,.15,.37,.23-.24,.18-.48,.35-.72,.53-.02-.01-.05-.03-.07-.04-1.33-.8-2.73-1.53-4.23-2.11-.3-.11-.6-.22-.91-.32-.08-.03-.16-.05-.24-.08-.26-.08-.53-.16-.81-.23-.94-.24-1.92-.41-2.95-.44-.11,0-.22-.01-.33-.01h-.31l-.22,.02-.4,.02c-.16,.01-.33,.01-.49,.03-.04,0-.08,0-.12,0l-.15,.02-.47,.06-.62,.08c-.2,.03-.41,.08-.61,.13-.41,.09-.82,.17-1.22,.3-1.47,.43-2.89,1.1-4.16,1.99-.14-.24-.27-.48-.39-.74,1.32-.91,2.79-1.6,4.31-2.05,.42-.15,.85-.22,1.28-.32,.21-.04,.43-.1,.64-.13l.65-.08,.65-.08c.08-.01,.16-.01,.24-.02,.09,0,.18-.01,.27-.01,.04,0,.09,0,.13,0l.65-.03h.32Zm3.64,13.31c-.13-.25-.25-.5-.36-.76-.5-1.14-.84-2.33-1.03-3.55-.04-.27-.07-.55-.1-.83,0-.08-.02-.17-.02-.25-.02-.33-.04-.66-.04-.99,0-.35,.01-.69,.04-1.03,.27,.07,.54,.15,.82,.25-.02,.26-.03,.52-.03,.79,0,.25,.01,.5,.03,.75,0,.09,0,.17,.02,.26,.02,.28,.05,.56,.09,.84,.17,1.22,.52,2.41,1.03,3.54,.11,.25,.23,.5,.36,.75,.04,.08,.08,.15,.12,.22,.12,.21,.23,.42,.36,.63,.37,.61,.79,1.2,1.25,1.77-.18,.22-.35,.44-.52,.67-.52-.64-1.01-1.31-1.43-2-.16-.27-.32-.54-.47-.82-.04-.08-.08-.15-.12-.23Zm24-12.8c.13,.25,.25,.5,.36,.76,.5,1.14,.84,2.33,1.02,3.55,.04,.27,.07,.55,.1,.83,0,.08,.02,.17,.02,.25,.03,.35,.04,.71,.04,1.06,0,.32-.01,.65-.04,.97-.27-.07-.54-.15-.82-.25,.01-.24,.03-.48,.03-.72,0-.27,0-.54-.03-.81,0-.09-.01-.17-.02-.26-.02-.28-.05-.56-.09-.84-.17-1.22-.52-2.41-1.03-3.55-.11-.25-.23-.5-.36-.75-.04-.08-.08-.15-.13-.22-.11-.19-.21-.39-.32-.58-.42-.7-.91-1.37-1.45-2.02,.18-.21,.36-.43,.54-.65,.6,.72,1.14,1.46,1.62,2.25,.15,.25,.29,.5,.43,.76,.04,.08,.08,.15,.12,.23Zm-2.92-12.36l-.07,.51-.03,.25-.05,.2c-.04,.2-.09,.4-.15,.6-.03,.09-.05,.17-.08,.26-.09,.27-.2,.54-.32,.81-.26,.57-.58,1.15-.95,1.71-.32,.49-.67,.97-1.03,1.44-.17,.22-.34,.43-.52,.65-.05,.06-.11,.13-.16,.19-.27,.32-.55,.64-.83,.96-.94,1.04-1.95,2.05-3,3.03-.37,.34-.74,.68-1.11,1.02-.21-.18-.42-.36-.63-.55,.39-.36,.79-.71,1.17-1.08,1.03-.97,2.03-1.97,2.95-2.99,.27-.3,.54-.61,.8-.92,.05-.06,.11-.13,.16-.19,.18-.21,.35-.43,.52-.65,.35-.45,.68-.91,.98-1.37,.39-.6,.72-1.2,.97-1.78,.12-.28,.22-.55,.29-.82,.03-.09,.05-.18,.07-.26,.02-.07,.04-.14,.05-.21l.04-.18,.03-.25,.07-.49c.02-.18,.04-.36,.06-.54,.28-.06,.56-.11,.84-.16h0c-.02,.27-.05,.53-.08,.8Zm-1.07-.13l-.07,.49-.03,.24-.04,.17s-.02,.06-.02,.1c-.48-.35-.96-.69-1.44-1.02,.55-.16,1.1-.31,1.65-.43-.01,.15-.03,.3-.05,.45Zm-11.43-5.2c-1.34-.48-2.73-.84-4.14-1.11,.37-1.04,.9-1.95,1.61-2.66,.7-.72,1.58-1.27,2.59-1.64,1.02-.36,2.16-.53,3.35-.54,1.19,0,2.33,.18,3.35,.54,1.01,.37,1.89,.92,2.59,1.64,.71,.71,1.25,1.62,1.61,2.66-1.4,.27-2.78,.63-4.11,1.1-1.18,.42-2.33,.89-3.44,1.43-1.11-.54-2.25-1-3.42-1.42Zm-5.31,7.16h0c.23-.19,.47-.36,.7-.54,.07-.05,.14-.11,.21-.16,.56-.41,1.13-.81,1.7-1.2,.26,.08,.51,.16,.76,.25,.07,.03,.15,.06,.22,.08-.82,.53-1.62,1.09-2.4,1.69-.07,.05-.14,.11-.21,.16-.16,.12-.32,.24-.48,.36-.07,.05-.13,.11-.2,.16-.99,.79-1.95,1.65-2.85,2.57-.2,.21-.4,.41-.6,.63-.06,.06-.12,.13-.18,.2-.94,1.04-1.81,2.17-2.56,3.4-.41,.69-.79,1.41-1.12,2.15h-.25l-.65,.04h-.01c.38-.91,.83-1.78,1.33-2.62,.83-1.37,1.8-2.61,2.85-3.75,.06-.07,.12-.14,.18-.2,.2-.21,.41-.42,.62-.63,.94-.93,1.92-1.8,2.93-2.6Zm-9.21,19.11c-.03-.29-.06-.57-.08-.86,0-.09,0-.17-.01-.26-.02-.35-.03-.7-.04-1.04,0-.37,.02-.73,.04-1.1,.13-.03,.27-.06,.4-.09l.43-.05c-.03,.41-.04,.83-.04,1.24,0,.39,.02,.79,.05,1.18,0,.09,.01,.17,.02,.26,.02,.28,.05,.56,.09,.84,.11,.87,.28,1.74,.53,2.58,.11,.4,.24,.79,.38,1.18,.1,.28,.22,.56,.33,.83,.04,.08,.07,.17,.11,.25,.34,.76,.73,1.5,1.15,2.21,.73,1.19,1.57,2.29,2.48,3.3-.14,.26-.27,.52-.4,.79-1.02-1.11-1.97-2.33-2.79-3.67-.51-.85-.97-1.74-1.36-2.67-.04-.09-.07-.17-.11-.26-.11-.28-.22-.57-.32-.86-.1-.3-.2-.59-.28-.9-.28-.96-.47-1.94-.59-2.93Zm2.44,7.74c.85,1.39,1.83,2.64,2.89,3.78-.44,.97-.8,2.03-1.02,3.18l-.07,.36-.04,.31-.08,.61c-.05,.41-.09,.82-.13,1.23,0,.13-.02,.26-.02,.39-.95-.08-1.89-.24-2.8-.48-1.19-.32-2.35-.75-3.4-1.36-1.05-.6-2-1.31-2.79-2.15-1.6-1.67-2.59-3.84-2.8-6.14-.17-1.79,.14-3.62,.87-5.25,1.3,.89,2.74,1.57,4.22,2.02,.22,.06,.43,.14,.65,.19l.65,.14,.65,.14c.22,.04,.44,.06,.66,.09,.39,.06,.77,.09,1.15,.12,.4,.98,.89,1.92,1.43,2.81Zm12.63,10.92c-.66-.39-1.33-.78-1.98-1.19-.04-.02-.08-.05-.12-.08-.3-.19-.59-.38-.88-.57-.09-.06-.18-.12-.27-.18-.57-.38-1.13-.78-1.69-1.19,.07-.27,.15-.56,.26-.84,.79,.6,1.6,1.16,2.42,1.7,.09,.06,.18,.11,.26,.17,.15,.1,.3,.2,.46,.29,.14,.09,.28,.17,.42,.26,1.16,.71,2.31,1.39,3.53,2.02,.15,.08,.3,.15,.45,.23,.31,.16,.62,.31,.93,.45,.1,.04,.19,.09,.29,.13,.86,.39,1.74,.74,2.63,1.05,.37,.12,.74,.26,1.12,.37l1.14,.32c.58,.14,1.16,.28,1.75,.39-.06,.27-.14,.54-.22,.8-.58-.11-1.16-.25-1.73-.39l-1.17-.33c-.39-.11-.77-.25-1.15-.38-1.13-.39-2.23-.84-3.3-1.35-.09-.05-.19-.09-.28-.14-.28-.14-.56-.28-.83-.42-.03-.02-.06-.03-.09-.05-.33-.17-.63-.33-.93-.5l-1-.57Zm6.36,3.27c.39,.13,.77,.27,1.16,.38l1.18,.33c.57,.13,1.14,.27,1.72,.38-.37,1.04-.9,1.95-1.62,2.66-.71,.72-1.58,1.27-2.6,1.63-1.02,.36-2.16,.53-3.35,.54-1.19,0-2.33-.18-3.35-.54-1.01-.37-1.89-.92-2.59-1.64-.71-.71-1.24-1.61-1.6-2.65,.57-.11,1.12-.24,1.68-.37l1.18-.33c.39-.11,.77-.25,1.16-.38,1.21-.42,2.39-.9,3.53-1.46,1.13,.55,2.3,1.03,3.5,1.45Zm5.23-7.19s-.04,.04-.07,.05c-.21,.17-.43,.33-.64,.49-.07,.05-.14,.11-.22,.16-.56,.41-1.12,.81-1.69,1.19-.23-.07-.46-.16-.7-.23-.1-.03-.19-.07-.29-.11,.82-.54,1.63-1.1,2.42-1.7,.07-.05,.14-.11,.21-.16,.13-.1,.27-.2,.4-.3,.1-.08,.19-.16,.29-.23,1-.8,1.96-1.66,2.87-2.59,.2-.21,.4-.42,.6-.63,.06-.07,.12-.13,.18-.2,.9-1.01,1.74-2.09,2.47-3.28,.43-.71,.83-1.46,1.17-2.23,.11,0,.22-.01,.34-.01l.57-.02c-.39,.94-.86,1.84-1.38,2.69-.81,1.33-1.76,2.53-2.77,3.64-.06,.07-.12,.14-.18,.2-.2,.22-.41,.43-.62,.64-.94,.94-1.94,1.81-2.95,2.62Zm9.21-19.11c.03,.28,.06,.57,.08,.85,0,.09,.01,.17,.02,.26,.02,.38,.03,.76,.04,1.14,0,.34-.02,.67-.04,1.01l-.34,.08-.44,.05h-.06c.03-.38,.04-.76,.04-1.15,0-.42-.02-.85-.04-1.27,0-.09-.01-.17-.02-.26-.02-.28-.05-.56-.09-.84-.11-.84-.27-1.68-.51-2.5-.12-.43-.26-.85-.41-1.26-.1-.28-.22-.56-.33-.84-.04-.09-.07-.17-.11-.26-.33-.73-.7-1.44-1.11-2.13-.76-1.26-1.65-2.4-2.61-3.46,.14-.25,.29-.5,.42-.77,1.07,1.15,2.05,2.41,2.9,3.81,.49,.82,.93,1.69,1.31,2.59,.04,.09,.07,.17,.11,.26,.11,.28,.22,.56,.31,.85,.11,.33,.22,.66,.31,.99,.27,.93,.45,1.89,.56,2.84Zm-2.39-7.66c-.87-1.44-1.89-2.74-2.99-3.92,.46-.93,.84-1.96,1.07-3.12l.08-.37,.04-.3,.08-.61c.05-.41,.09-.82,.12-1.23,0-.12,.01-.25,.02-.37,.93,.08,1.85,.23,2.74,.46,1.2,.31,2.35,.75,3.41,1.35,1.05,.59,2.01,1.3,2.81,2.14,1.62,1.66,2.62,3.83,2.84,6.12,.18,1.81-.13,3.67-.86,5.31-1.33-.91-2.8-1.6-4.31-2.05-.43-.15-.86-.23-1.3-.33-.22-.05-.44-.1-.65-.14l-.66-.09c-.35-.05-.71-.09-1.06-.11-.39-.95-.85-1.86-1.37-2.73Zm10.47,.11c-.22-2.35-1.25-4.58-2.91-6.27-.82-.85-1.8-1.58-2.87-2.18-1.07-.61-2.25-1.06-3.46-1.37-.91-.23-1.84-.39-2.79-.47-.08,0-.17,0-.25-.01-.27-.02-.55-.03-.83-.04-1.23-.03-2.47,.06-3.71,.28-.02,0-.05,0-.07,.01-.26,.04-.52,.09-.77,.15-.09,.02-.17,.03-.26,.05-.65,.14-1.3,.31-1.94,.51-.29-.2-.59-.39-.88-.58,.95-.33,1.91-.59,2.88-.78,.08-.02,.17-.03,.25-.05,.19-.04,.39-.08,.58-.11,.08-.01,.17-.02,.25-.04,1.23-.2,2.47-.29,3.7-.26,.28,0,.55,.02,.83,.04,.08,0,.17,0,.25,.01,1.01,.08,2,.24,2.97,.49,1.28,.33,2.52,.8,3.66,1.45,1.14,.64,2.18,1.41,3.06,2.33,1.78,1.82,2.89,4.23,3.13,6.76,.21,2.07-.16,4.2-1.05,6.07-.12-.09-.23-.19-.36-.28-.11-.08-.21-.15-.32-.23,.77-1.7,1.09-3.62,.9-5.48ZM42.41,8.83c.59-1.7,1.56-3.37,2.89-4.72,1.32-1.36,2.98-2.37,4.7-2.99,1.73-.62,3.51-.86,5.24-.87,1.73,0,3.51,.25,5.24,.87,1.72,.62,3.38,1.63,4.7,2.99,1.33,1.35,2.3,3.02,2.89,4.72,.16,.46,.3,.92,.41,1.38-.03,0-.06,0-.09,0-.26,0-.51-.01-.77-.01-.1-.36-.21-.73-.33-1.09-.55-1.61-1.46-3.16-2.7-4.42-1.23-1.27-2.77-2.21-4.39-2.79-1.62-.58-3.31-.81-4.96-.82-1.65,0-3.34,.24-4.96,.82-1.62,.58-3.16,1.52-4.39,2.79-1.24,1.26-2.15,2.81-2.7,4.42-.13,.36-.24,.73-.33,1.09-.02,.08-.04,.17-.06,.25-.07,.28-.13,.55-.18,.83-.02,.09-.04,.18-.05,.27-.08,.41-.12,.82-.17,1.23-.03,.41-.07,.82-.07,1.22-.01,.33-.01,.66,0,.98,0,.28,.01,.55,.03,.83,0,.08,0,.17,.01,.25,0,.12,.01,.23,.02,.35,.04,.39,.07,.79,.12,1.18l.08,.59,.04,.29,.07,.33,.14,.66,.19,.63,.1,.31,.12,.3,.24,.6,.02,.03c-.21,.21-.41,.42-.62,.63-.05-.11-.1-.22-.16-.33l-.25-.63-.12-.32-.1-.34-.2-.67-.15-.71-.07-.36-.04-.3-.08-.6c-.05-.4-.09-.81-.12-1.22,0-.12-.01-.25-.02-.37,0-.08-.01-.17-.01-.25-.01-.27-.02-.55-.03-.83,0-.35,0-.7,0-1.05,0-.42,.05-.85,.08-1.27,.05-.43,.09-.85,.18-1.28,0-.04,.01-.07,.02-.11,.05-.28,.1-.56,.17-.83,.02-.08,.04-.17,.06-.25,.11-.46,.25-.92,.41-1.38ZM23.92,25.58c.18-1.76,.65-3.49,1.4-5.1,.75-1.61,1.77-3.08,3-4.34,1.22-1.26,2.64-2.31,4.13-3.14,1.49-.84,3.09-1.45,4.72-1.87,1.49-.38,3-.59,4.51-.66-.06,.28-.12,.56-.17,.84-1.39,.08-2.77,.28-4.13,.63-1.57,.4-3.1,.98-4.53,1.79-1.43,.8-2.78,1.79-3.94,2.99-1.16,1.2-2.14,2.59-2.84,4.12-.71,1.52-1.16,3.16-1.32,4.83-.32,3.19,.38,6.48,2.03,9.25,.05,.08,.09,.16,.14,.23,.03,.04,.05,.09,.08,.13,.13,.21,.27,.41,.41,.61,.73,1.04,1.6,1.98,2.59,2.79,.14,.11,.27,.22,.41,.33,.08,.06,.17,.12,.25,.18,.07,.05,.14,.1,.2,.15,1.24,.86,2.61,1.52,4.04,1.96,1,.3,2.01,.5,3.03,.6,.1,.29,.2,.58,.31,.86-.33-.02-.67-.06-1.01-.11-.22-.03-.43-.05-.65-.09l-.64-.14-.64-.14c-.21-.05-.42-.13-.64-.19-1.48-.45-2.9-1.12-4.19-2.01-.07-.05-.14-.1-.21-.15-.12-.08-.24-.17-.35-.26-.11-.08-.21-.17-.32-.25-1.01-.81-1.9-1.75-2.67-2.78-.18-.24-.35-.49-.51-.74-.04-.06-.07-.11-.11-.17-.01-.02-.03-.04-.04-.06-1.88-3-2.68-6.59-2.33-10.07Zm17.76,35.72c-1.55-.08-3.1-.3-4.63-.7-1.63-.43-3.23-1.04-4.71-1.89-1.49-.84-2.9-1.9-4.11-3.17-1.21-1.27-2.23-2.76-2.96-4.37-.74-1.61-1.19-3.35-1.36-5.11-.32-3.45,.49-6.98,2.34-9.95,.17,.25,.34,.5,.52,.74-1.63,2.74-2.33,5.98-2.04,9.13,.15,1.67,.59,3.31,1.28,4.84,.7,1.53,1.66,2.94,2.81,4.14,1.15,1.21,2.49,2.22,3.91,3.02,1.42,.82,2.96,1.4,4.52,1.81,1.4,.37,2.82,.58,4.25,.66,.09,0,.17,0,.26,.01,.09,0,.18,0,.26,.01,.19,0,.39,0,.58,.01,1.25,0,2.49-.1,3.71-.27,.15-.02,.31-.05,.46-.07,.12-.02,.24-.04,.36-.06,.08-.01,.17-.03,.25-.04,.58-.11,1.15-.25,1.72-.38l1.14-.32c.38-.1,.75-.24,1.12-.37,.9-.31,1.79-.67,2.66-1.06,.09,.05,.18,.09,.27,.14,.22,.12,.45,.23,.67,.34-1.08,.52-2.19,.97-3.33,1.36-.38,.12-.76,.27-1.15,.38l-1.17,.33c-.57,.13-1.13,.27-1.7,.38-.08,.02-.17,.03-.25,.05-.15,.03-.29,.05-.44,.07-.13,.02-.26,.04-.39,.06-1.23,.18-2.48,.29-3.75,.3-.26,0-.52,0-.78-.01-.02,0-.05,0-.07,0-.09,0-.17,0-.26-.01Zm26.39,1.66c-.3,.85-.68,1.69-1.17,2.49-.49,.8-1.07,1.55-1.73,2.23-1.33,1.36-2.98,2.37-4.71,2.98-1.73,.61-3.51,.86-5.24,.86-1.73,0-3.51-.26-5.24-.88-1.72-.62-3.38-1.64-4.7-3-1.33-1.35-2.3-3.02-2.88-4.72-.16-.45-.29-.9-.41-1.36h0c.29,0,.57,.01,.85,0,.1,.36,.2,.72,.33,1.07,.55,1.61,1.46,3.16,2.7,4.42,1.23,1.27,2.77,2.22,4.39,2.8,1.62,.58,3.31,.82,4.96,.83,1.65,0,3.34-.24,4.96-.81,1.62-.58,3.16-1.52,4.39-2.78,.62-.63,1.16-1.33,1.61-2.07,.45-.75,.81-1.54,1.1-2.34,.13-.37,.24-.73,.34-1.1,.02-.08,.04-.17,.06-.25,.07-.28,.13-.55,.18-.83,.02-.09,.03-.17,.05-.26,.08-.41,.12-.82,.17-1.23,.03-.41,.07-.82,.08-1.22,.01-.33,.02-.67,0-1,0-.28-.01-.55-.03-.83,0-.08,0-.17-.01-.25,0-.11-.01-.22-.02-.33-.04-.4-.07-.79-.12-1.18l-.08-.59-.04-.29-.06-.32c-.17-.91-.45-1.76-.78-2.57,.21-.21,.42-.42,.63-.63,.42,.94,.76,1.96,.97,3.06l.07,.35,.04,.3,.08,.6c.05,.4,.09,.81,.12,1.22,0,.12,.01,.24,.02,.35,0,.08,.01,.17,.01,.25,.01,.27,.02,.55,.03,.83,0,.35,0,.71,0,1.07,0,.42-.05,.85-.08,1.27-.05,.43-.09,.85-.18,1.28,0,.03-.01,.06-.02,.09-.05,.28-.11,.56-.17,.84-.02,.08-.04,.17-.06,.25-.12,.47-.25,.93-.42,1.39Zm18.5-16.86c-.17,1.76-.63,3.49-1.37,5.1-.74,1.61-1.76,3.09-2.97,4.36-1.22,1.27-2.62,2.32-4.12,3.16-1.49,.85-3.09,1.46-4.72,1.89-1.51,.39-3.06,.61-4.59,.69,.06-.28,.12-.56,.17-.84,1.42-.08,2.83-.29,4.22-.65,1.57-.41,3.1-.99,4.52-1.81,1.43-.8,2.77-1.81,3.92-3.01,1.16-1.2,2.12-2.61,2.82-4.14,.7-1.53,1.14-3.17,1.29-4.84,.3-3.16-.4-6.41-2.03-9.16-.05-.08-.09-.15-.14-.23-.04-.07-.08-.14-.12-.2-.12-.18-.24-.36-.36-.53-.73-1.04-1.6-1.98-2.59-2.79-.16-.13-.32-.26-.48-.38-.06-.04-.12-.08-.18-.13-.07-.05-.14-.1-.21-.15-1.26-.88-2.67-1.55-4.12-1.98-.4-.14-.81-.22-1.22-.31-.2-.04-.41-.09-.61-.13l-.62-.08c-.17-.02-.33-.04-.5-.06-.1-.29-.2-.58-.31-.86,.31,.02,.61,.06,.92,.1l.65,.08c.22,.04,.43,.09,.64,.13,.43,.09,.86,.18,1.28,.32,1.51,.45,2.97,1.13,4.28,2.04,.07,.05,.14,.1,.21,.15,.09,.07,.19,.13,.28,.2,.13,.1,.26,.2,.39,.31,1.01,.81,1.9,1.75,2.67,2.78,.18,.24,.35,.49,.51,.74,.02,.03,.04,.06,.06,.09,.03,.05,.06,.1,.09,.14,1.86,2.97,2.67,6.52,2.34,9.98Z"/><g><path class="cls-1" d="M42.8,98l-.08,.19c-.03,.07-.04,.12-.04,.16,0,.07,.05,.1,.14,.1v.11h-1.03v-.11s.06,0,.09,0c.03,0,.05-.02,.07-.06,.02-.03,.05-.08,.08-.14,.03-.06,.06-.14,.11-.24l1.52-3.77c.04-.11,.08-.18,.1-.24,.02-.05,.03-.1,.03-.13,0-.07-.05-.11-.15-.11v-.11h1.23v.11c-.09,0-.13,.04-.13,.11,0,.04,.01,.09,.04,.14,.03,.06,.06,.14,.11,.25l1.61,3.72,.12,.26c.03,.06,.06,.11,.08,.14,.03,.03,.05,.05,.08,.06,.03,0,.07,0,.12,0v.11h-1.17v-.11c.07,0,.11-.01,.13-.03,.02-.02,.03-.05,.03-.1,0-.03,0-.06-.02-.1-.01-.03-.04-.11-.09-.22l-.32-.75h-2.38l-.29,.75Zm2.38-1.36l-.95-2.2-.87,2.2h1.82Z"/><path class="cls-1" d="M49.35,98.45c.08,0,.13-.02,.16-.06,.03-.04,.04-.1,.04-.16v-3.96h-1.41c-.11,0-.18,.02-.23,.05s-.07,.1-.07,.19h-.1v-1.1h.1c0,.16,.1,.24,.29,.24h3.53c.2,0,.29-.08,.29-.24h.1v1.1h-.1c0-.09-.02-.16-.07-.19s-.12-.05-.23-.05h-1.41v3.96c0,.07,.01,.12,.04,.16,.03,.04,.08,.06,.16,.06v.11h-1.11v-.11Z"/><path class="cls-1" d="M54.04,98l-.08,.19c-.03,.07-.04,.12-.04,.16,0,.07,.05,.1,.14,.1v.11h-1.03v-.11s.06,0,.09,0c.03,0,.05-.02,.07-.06,.02-.03,.05-.08,.08-.14,.03-.06,.06-.14,.11-.24l1.52-3.77c.04-.11,.08-.18,.1-.24,.02-.05,.03-.1,.03-.13,0-.07-.05-.11-.15-.11v-.11h1.23v.11c-.09,0-.13,.04-.13,.11,0,.04,.01,.09,.04,.14,.03,.06,.06,.14,.11,.25l1.61,3.72,.12,.26c.03,.06,.06,.11,.08,.14,.03,.03,.05,.05,.08,.06,.03,0,.07,0,.12,0v.11h-1.17v-.11c.07,0,.11-.01,.13-.03,.02-.02,.03-.05,.03-.1,0-.03,0-.06-.02-.1-.01-.03-.04-.11-.09-.22l-.32-.75h-2.38l-.29,.75Zm2.38-1.36l-.95-2.2-.87,2.2h1.82Z"/><path class="cls-1" d="M59.64,98.45c.09,0,.15-.02,.18-.06,.03-.04,.04-.1,.04-.16v-4.24c0-.07-.02-.12-.05-.16-.03-.04-.09-.06-.19-.06v-.11h1.42v.11c-.13,0-.19,.04-.19,.12,0,.04,.01,.07,.03,.1l1.37,2.99,1.42-2.99s.01-.04,.02-.06c0-.02,.01-.04,.01-.06,0-.03-.02-.06-.05-.08-.03-.02-.09-.03-.16-.03v-.11h1.5v.11c-.1,0-.16,.02-.19,.06s-.05,.1-.05,.16v4.24c0,.07,.02,.12,.05,.16s.09,.06,.19,.06v.11h-1.18v-.11c.1,0,.16-.02,.19-.06s.05-.1,.05-.16v-3.69l-.03-.02-1.79,3.95-1.79-3.95v3.71c-.01,.07,0,.12,.03,.16,.03,.04,.08,.06,.16,.06v.11h-1v-.11Z"/><path class="cls-1" d="M67.33,98.45c.08,0,.13-.02,.16-.06,.03-.04,.04-.1,.04-.16v-4.24c0-.07-.01-.12-.04-.16-.03-.04-.08-.06-.16-.06v-.11h1.11v.11c-.08,0-.13,.02-.16,.06-.03,.04-.04,.1-.04,.16v4.24c0,.07,.01,.12,.04,.16,.03,.04,.08,.06,.16,.06v.11h-1.11v-.11Z"/></g><g><path class="cls-1" d="M2.84,85.15l2.34,3c.18,.25,.21,.33,.21,.39,0,.04-.01,.16-.17,.2v.07h2.25v-.09c-.14-.06-.28-.15-.43-.28-.16-.15-.3-.3-.42-.45l-2.86-3.67,3.14-2.77c.14-.13,.29-.21,.44-.24v-.06h-2.58v.07s.07,.03,.1,.05c.05,.04,.1,.1,.1,.23,0,.08-.04,.16-.14,.26-.07,.07-.17,.17-.3,.29l-2.93,2.57v-3.04c0-.12,.04-.22,.12-.28,.04-.04,.09-.06,.15-.08v-.07H0v.06c.19,.03,.29,.16,.29,.36v6.72c0,.2-.11,.33-.29,.36v.06H1.86v-.07c-.05-.01-.1-.04-.15-.08-.08-.06-.12-.16-.12-.28v-2.16l1.24-1.07Z"/><path class="cls-1" d="M14.62,88.04c.08,.17,.12,.31,.12,.43,0,.1-.05,.18-.13,.23-.03,.02-.05,.03-.08,.04v.08h2.13v-.1c-.08-.04-.15-.08-.21-.12-.09-.06-.17-.16-.22-.29l-2.77-6.02c-.06-.13-.11-.23-.14-.32-.04-.09-.05-.18-.05-.28,0-.19,.08-.27,.15-.31,.04-.02,.09-.05,.13-.06v-.09h-2.04v.08c.05,.02,.1,.05,.15,.08,.06,.04,.14,.13,.14,.3,0,.09-.03,.2-.08,.32-.05,.11-.11,.23-.17,.36l-2.46,5.75c-.06,.14-.13,.27-.2,.38-.07,.11-.15,.18-.26,.22v.08h1.68v-.06c-.23-.04-.25-.19-.25-.26,0-.11,.05-.26,.14-.49l.51-1.11h3.38l.53,1.16Zm-3.62-2.04l1.42-3.12,1.27,3.12h-2.69Z"/><path class="cls-1" d="M22.46,88.71l2.63-5.35h.2v5.02c0,.13-.05,.33-.36,.37v.06h1.88v-.07c-.05-.01-.1-.04-.15-.08-.08-.06-.12-.16-.12-.28v-6.75c0-.16,.07-.24,.13-.27,.04-.03,.09-.05,.14-.06v-.07h-2.25v.07c.11,.03,.17,.12,.17,.25,0,.07-.02,.15-.06,.24-.03,.08-.08,.18-.14,.31l-2.01,3.99-2-4.04c-.05-.09-.09-.17-.12-.26-.04-.09-.06-.17-.06-.24,0-.1,.04-.17,.12-.22,.03-.02,.06-.03,.09-.04v-.07h-2.28v.07s.1,.03,.14,.06c.06,.04,.13,.12,.13,.27v6.75c0,.12-.04,.22-.12,.28-.04,.04-.09,.06-.15,.08v.07h1.79v-.06c-.32-.04-.37-.24-.37-.37v-5.03h.2l2.58,5.36Z"/><path class="cls-1" d="M36.36,88.84c.08,.02,.17,.08,.2,.25h.04v-1.81h-.04c-.02,.1-.07,.19-.16,.26-.1,.08-.24,.13-.39,.13h-4.55v-2.25h2.72c.2,0,.36,.04,.47,.11,.11,.07,.18,.21,.19,.42h.03v-2.1h-.03c-.02,.21-.08,.34-.2,.41-.11,.06-.27,.09-.46,.09h-2.72v-2.05h4.42c.21,0,.36,.03,.45,.1,.06,.04,.12,.11,.15,.22h.04v-1.74h-.04c-.02,.09-.07,.17-.14,.23-.1,.08-.25,.12-.46,.12h-5.96v.07s.09,.04,.13,.08c.07,.07,.11,.16,.11,.28v6.72c0,.12-.04,.21-.11,.28-.04,.04-.08,.06-.13,.08v.07h6.1c.14,0,.26,.01,.35,.03Z"/><path class="cls-1" d="M45.05,88.1c.16,.18,.24,.31,.24,.41,0,.05-.01,.18-.17,.23v.07h1.94v-.07c-.16-.04-.25-.16-.25-.36v-6.72c0-.2,.09-.32,.25-.36v-.07h-1.8v.06c.31,.04,.35,.26,.35,.37v4.99l-4.01-4.62c-.26-.29-.29-.41-.29-.48,0-.12,.05-.19,.11-.23v-.08h-2.06v.07c.16,.04,.25,.16,.25,.36v6.72c0,.2-.09,.32-.25,.36v.07h1.76v-.06c-.2-.03-.31-.16-.31-.36v-5.2l4.25,4.92Z"/><path class="cls-1" d="M56.17,82.1c-.41-.32-.86-.56-1.35-.71-.49-.16-.98-.24-1.46-.24s-.97,.08-1.46,.24c-.49,.16-.95,.4-1.35,.71-.4,.31-.74,.72-1,1.2-.26,.48-.39,1.06-.39,1.72s.13,1.24,.39,1.72c.26,.48,.59,.89,1,1.2,.4,.32,.86,.55,1.35,.69,.99,.29,1.94,.29,2.92,0,.49-.14,.94-.38,1.35-.69,.4-.31,.74-.72,1-1.2,.26-.48,.39-1.06,.39-1.72s-.13-1.24-.39-1.72c-.26-.48-.59-.89-1-1.2Zm-.13,4.08c-.17,.34-.41,.62-.69,.85-.28,.23-.6,.41-.94,.53-.35,.12-.7,.18-1.05,.18s-.7-.06-1.05-.18c-.35-.12-.67-.3-.94-.53-.28-.23-.51-.52-.69-.85-.18-.34-.26-.73-.26-1.16s.09-.82,.26-1.16c.17-.34,.41-.62,.69-.85,.28-.23,.6-.41,.94-.53,.69-.24,1.4-.24,2.09,0,.35,.12,.67,.3,.94,.53,.28,.23,.51,.52,.69,.85,.18,.34,.27,.73,.27,1.16s-.09,.82-.27,1.16Z"/><path class="cls-1" d="M61.64,81.24h-2v.06c.31,.04,.35,.26,.35,.37v6.72c0,.1-.04,.32-.35,.37v.06h2v-.06c-.31-.04-.35-.26-.35-.37v-6.72c0-.1,.04-.32,.35-.37v-.06Z"/><path class="cls-1" d="M75.31,81.24h-1.84v.06c.19,.03,.29,.16,.29,.36v2.62h-4.5v-2.62c0-.12,.04-.21,.11-.28,.04-.04,.08-.06,.13-.08v-.07h-1.8v.07c.16,.04,.25,.16,.25,.36v6.72c0,.2-.09,.32-.25,.36v.07h1.8v-.07s-.09-.04-.13-.08c-.07-.06-.11-.16-.11-.28v-2.89h4.5v2.89c0,.2-.11,.33-.29,.36v.06h1.84v-.07s-.09-.04-.13-.08c-.07-.06-.11-.16-.11-.28v-6.72c0-.12,.04-.21,.11-.28,.04-.04,.08-.06,.13-.08v-.07Z"/><path class="cls-1" d="M85.08,86.74c.26-.48,.39-1.06,.39-1.72s-.13-1.24-.39-1.72c-.26-.48-.59-.89-1-1.2-.41-.32-.86-.56-1.35-.71-.49-.16-.98-.24-1.46-.24s-.97,.08-1.46,.24c-.49,.16-.95,.4-1.35,.71-.4,.31-.74,.72-1,1.2-.26,.48-.39,1.06-.39,1.72s.13,1.24,.39,1.72c.26,.48,.59,.89,1,1.2,.4,.32,.86,.55,1.35,.69,.99,.29,1.94,.29,2.92,0,.49-.14,.94-.38,1.35-.69,.4-.31,.74-.72,1-1.2Zm-1.82,.29c-.28,.23-.6,.41-.94,.53-.35,.12-.7,.18-1.05,.18s-.7-.06-1.05-.18c-.35-.12-.67-.3-.94-.53-.28-.23-.51-.52-.69-.85-.18-.34-.27-.73-.27-1.16s.09-.82,.27-1.16c.17-.34,.41-.62,.69-.85,.28-.23,.6-.41,.94-.53,.69-.24,1.4-.24,2.09,0,.35,.12,.67,.3,.94,.53,.28,.23,.51,.52,.69,.85,.18,.34,.26,.73,.26,1.16s-.09,.82-.26,1.16c-.17,.34-.41,.62-.69,.85Z"/><path class="cls-1" d="M92.69,82.39c.1,0,.2,.03,.29,.09,.08,.06,.14,.14,.15,.26h.04v-1.86h-.04c-.02,.12-.07,.21-.15,.26-.09,.06-.19,.09-.29,.09h-5.91c-.1,0-.2-.03-.29-.09-.08-.05-.14-.14-.15-.26h-.04v1.86h.04c.02-.12,.07-.21,.15-.26,.09-.06,.19-.09,.29-.09h2.3v5.99c0,.12-.04,.21-.11,.28-.04,.04-.08,.06-.13,.08v.07h1.84v-.06c-.19-.03-.29-.16-.29-.36v-5.99h2.3Z"/><path class="cls-1" d="M101.46,88.84c.08,.02,.17,.08,.2,.25h.04v-1.81h-.04c-.02,.1-.07,.19-.16,.26-.1,.08-.24,.13-.39,.13h-4.55v-2.25h2.72c.2,0,.36,.04,.47,.11,.11,.07,.18,.21,.19,.42h.03v-2.1h-.03c-.02,.21-.08,.34-.2,.41-.11,.06-.27,.09-.46,.09h-2.72v-2.05h4.42c.21,0,.36,.03,.45,.1,.06,.04,.12,.11,.15,.22h.04v-1.74h-.04c-.02,.09-.07,.17-.14,.23-.1,.08-.25,.12-.46,.12h-5.96v.07s.09,.04,.13,.08c.07,.07,.11,.16,.11,.28v6.72c0,.12-.04,.21-.11,.28-.04,.04-.08,.06-.13,.08v.07h6.1c.14,0,.26,.01,.35,.03Z"/><path class="cls-1" d="M110.24,88.84c.08,.02,.17,.08,.2,.25h.04v-1.81h-.04c-.02,.1-.07,.19-.16,.26-.1,.08-.24,.13-.39,.13h-4.53v-5.99c0-.13,.05-.33,.37-.37v-.06h-2.08v.06c.34,.03,.4,.24,.4,.37v6.72c0,.13-.05,.33-.4,.37v.06h6.23c.14,0,.26,.01,.35,.03Z"/></g></svg>