<?xml version="1.0" encoding="UTF-8"?><svg id="_レイヤー_1" xmlns="http://www.w3.org/2000/svg" viewBox="0 0 291.75 141.84"><defs><style>.cls-1{fill:#641611}@-webkit-keyframes animate-svg-fill{0%{fill:transparent}100%{fill:white}}@keyframes animate-svg-fill{0%{fill:transparent}100%{fill:white}}.cls-1:first-child{animation:1s 2s both animate-svg-fill}.cls-1:nth-child(2){animation:1s 2.2s both animate-svg-fill}.cls-1:nth-child(3){animation:1s 2.4s both animate-svg-fill}.cls-1:nth-child(4){animation:1s 2.6s both animate-svg-fill}.cls-1:nth-child(5){animation:1s 2.8s both animate-svg-fill}.cls-1:nth-child(6){animation:1s 3s both animate-svg-fill}.cls-1:nth-child(7){animation:1s 3.2s both animate-svg-fill}.cls-1:nth-child(8){animation:1s 3.4s both animate-svg-fill}.cls-1:nth-child(9){animation:1s 3.6s both animate-svg-fill}.cls-1:nth-child(10){animation:1s 3.8s both animate-svg-fill}.cls-1:nth-child(11){animation:1s 4s both animate-svg-fill}.cls-1:nth-child(12){animation:1s 4.2s both animate-svg-fill}.cls-1:nth-child(13){animation:1s 4.4s both animate-svg-fill}.cls-1:nth-child(14){animation:1s 4.6s both animate-svg-fill}.cls-1:nth-child(15){animation:1s 4.8s both animate-svg-fill}.cls-1:nth-child(16){animation:1s 5s both animate-svg-fill}.cls-1:nth-child(17){animation:1s 5.2s both animate-svg-fill}.cls-1:nth-child(18){animation:1s 5.4s both animate-svg-fill}.cls-1:nth-child(19){animation:1s 5.6s both animate-svg-fill}.cls-1:nth-child(20){animation:1s 5.8s both animate-svg-fill}.cls-1:nth-child(21){animation:1s 6s both animate-svg-fill}.cls-1:nth-child(22){animation:1s 6.2s both animate-svg-fill}.cls-1:nth-child(23){animation:1s 6.4s both animate-svg-fill}.cls-1:nth-child(24){animation:1s 6.6s both animate-svg-fill}.cls-1:nth-child(25){animation:1s 6.8s both animate-svg-fill}.opening-txt{animation:2s 7.2s both opening}</style></defs><path class="cls-1" d="M176.66,37.9c2.05-3.23,2.94-7.1,2.56-10.87-.18-1.88-.69-3.74-1.49-5.47-.8-1.73-1.9-3.31-3.21-4.67-1.31-1.36-2.82-2.48-4.42-3.37-1.59-.9-3.3-1.55-5.05-2-1.62-.42-3.28-.65-4.92-.72-.13-.52-.28-1.04-.46-1.55-.32-.91-.73-1.82-1.25-2.68-.52-.86-1.15-1.67-1.86-2.4-1.43-1.47-3.21-2.56-5.07-3.22-1.86-.66-3.77-.93-5.62-.93-1.85,0-3.76,.27-5.62,.93-1.85,.66-3.64,1.76-5.07,3.22-.71,.73-1.34,1.54-1.86,2.4-.52,.86-.93,1.77-1.25,2.68-.18,.52-.33,1.04-.46,1.56-1.63,.07-3.27,.3-4.89,.71-1.75,.44-3.46,1.1-5.05,2-1.6,.89-3.11,2.01-4.43,3.36-1.31,1.35-2.42,2.93-3.22,4.66-.8,1.72-1.31,3.58-1.5,5.47-.38,3.77,.49,7.64,2.54,10.88,0,.01,.02,.02,.02,.04-2.04,3.2-2.92,7.04-2.58,10.77,.17,1.89,.66,3.75,1.45,5.48,.79,1.73,1.88,3.32,3.18,4.69,1.3,1.37,2.81,2.5,4.4,3.4,1.59,.91,3.3,1.56,5.04,2.02,1.65,.43,3.34,.67,5.02,.75,.13,.51,.27,1.03,.45,1.53,.63,1.83,1.67,3.62,3.11,5.08,1.43,1.47,3.21,2.57,5.06,3.23,1.86,.66,3.77,.93,5.62,.94,1.85,0,3.76-.27,5.62-.93,1.85-.66,3.64-1.75,5.07-3.21,.72-.73,1.34-1.54,1.86-2.4,.52-.86,.93-1.76,1.26-2.68,.19-.52,.34-1.05,.47-1.57,1.67-.08,3.34-.31,4.98-.74,1.74-.46,3.45-1.11,5.04-2.02,1.6-.9,3.11-2.03,4.41-3.39,1.3-1.36,2.4-2.95,3.19-4.68,.79-1.73,1.29-3.59,1.47-5.48,.36-3.75-.53-7.6-2.57-10.81,0,0,0,0,0,0Zm-16.46-26.84c1.6,.08,3.21,.3,4.79,.71,1.72,.44,3.41,1.09,4.99,1.98,1.58,.88,3.07,1.99,4.36,3.32,1.29,1.33,2.37,2.9,3.16,4.59,.79,1.7,1.28,3.53,1.46,5.39,.36,3.67-.49,7.45-2.46,10.6-.17-.26-.36-.52-.55-.78,1.73-2.92,2.48-6.38,2.14-9.74-.17-1.76-.64-3.5-1.39-5.1-.74-1.61-1.77-3.09-2.99-4.36-1.22-1.27-2.64-2.32-4.15-3.17-1.5-.85-3.12-1.47-4.78-1.9-1.45-.37-2.92-.59-4.4-.67-.09,0-.18,0-.27-.01-.12,0-.25-.01-.37-.02-.17,0-.35,0-.52-.01-1.32-.01-2.63,.1-3.92,.29-.19,.03-.39,.06-.58,.09-.1,.02-.19,.04-.29,.05-.09,.02-.17,.03-.26,.05-1.46,.27-2.89,.65-4.28,1.14-.92,.33-1.83,.69-2.73,1.09-.07-.04-.13-.07-.2-.11-.26-.14-.52-.27-.79-.4,1.11-.53,2.26-.99,3.43-1.41,1.4-.5,2.86-.88,4.34-1.16,.09-.02,.18-.03,.26-.05,.12-.02,.25-.05,.37-.07,.17-.03,.33-.05,.5-.08,1.3-.2,2.62-.31,3.96-.31,.24,0,.49,0,.73,.01,.06,0,.11,0,.17,0,.09,0,.18,0,.28,.01Zm9.06,26.3c.25,.17,.49,.35,.73,.54,.93,.75,1.75,1.65,2.39,2.67,.06,.09,.11,.18,.17,.27,.15,.25,.29,.51,.43,.77,.04,.08,.08,.16,.12,.24,.93,1.96,1.32,4.2,1.11,6.37-.24,2.67-1.41,5.22-3.28,7.15-1.86,1.94-4.38,3.33-7.09,4.01-1.04,.27-2.1,.44-3.18,.53,0-.29-.02-.58-.03-.87,1.02-.09,2.02-.25,2.99-.5,2.57-.65,4.95-1.97,6.67-3.77,1.74-1.8,2.82-4.15,3.05-6.63,.19-1.96-.15-3.97-.96-5.75-.04-.08-.08-.16-.11-.24-.13-.26-.27-.52-.42-.78-.07-.11-.14-.23-.21-.34-.64-1.01-1.45-1.89-2.39-2.6-.25-.19-.51-.37-.77-.54-.08-.05-.17-.1-.26-.15-.72-.42-1.5-.76-2.31-1-.24-.09-.5-.14-.75-.2-.02-.3-.05-.61-.08-.91,.37,.07,.73,.16,1.09,.27,1.02,.3,1.98,.74,2.86,1.3,.08,.05,.16,.1,.24,.15Zm-8.67,21.06c-.04-.44-.08-.87-.13-1.3l-.09-.64-.04-.32-.07-.37c-.24-1.23-.62-2.36-1.09-3.4,1.11-1.2,2.15-2.51,3.04-3.97,.58-.95,1.09-1.95,1.52-3,.39-.02,.78-.08,1.18-.13l.69-.09,.69-.15,.69-.15c.23-.05,.46-.13,.68-.2,1.58-.47,3.11-1.2,4.5-2.14,.77,1.72,1.1,3.68,.91,5.57-.22,2.42-1.27,4.72-2.97,6.48-1.69,1.76-4.02,3.06-6.55,3.7-.95,.25-1.94,.41-2.94,.5,0-.13-.01-.25-.02-.38Zm-5.53,6.04c-.03,.09-.06,.17-.08,.26-.43,1.31-1.1,2.49-2.03,3.42-.87,.89-1.96,1.56-3.17,2-1.22,.43-2.56,.63-3.92,.63-1.36,0-2.7-.21-3.92-.64-1.22-.44-2.3-1.12-3.17-2.01-.92-.93-1.58-2.1-2.01-3.4,.12-.02,.25-.04,.37-.06,.17-.03,.34-.06,.5-.09,.4,1.14,.98,2.14,1.76,2.93,.77,.79,1.73,1.4,2.84,1.8,1.11,.4,2.34,.58,3.62,.59,1.28,0,2.52-.19,3.63-.58,1.11-.4,2.07-1,2.84-1.79,.79-.79,1.38-1.8,1.78-2.95,.03-.08,.06-.17,.08-.26,.09-.28,.16-.56,.23-.85,.19-.82,.3-1.69,.32-2.59,.02-.43,.01-.87,0-1.32-.01-.23-.02-.47-.04-.71,0-.07-.01-.13-.02-.2,0-.09-.02-.18-.03-.28-.02-.19-.03-.37-.06-.56l-.07-.52-.03-.26-.04-.21c-.01-.07-.03-.15-.05-.22,.25-.19,.51-.38,.76-.57,.06,.21,.11,.43,.15,.64l.05,.23,.04,.27,.07,.54c.03,.28,.06,.55,.08,.83,0,.08,.02,.16,.02,.24,0,.01,0,.02,0,.03,.02,.3,.03,.59,.04,.89,.01,.4,.02,.8,0,1.2-.03,.92-.14,1.83-.33,2.7-.06,.29-.14,.57-.22,.85Zm-18.06-4.89c-.23,.05-.46,.09-.69,.12-.06,.01-.13,.02-.19,.03-1.3,.2-2.61,.31-3.9,.28-.06,0-.12,0-.18,0-.23,0-.47-.03-.7-.04-.09,0-.18,0-.27-.02-1.09-.09-2.16-.27-3.21-.54-2.7-.69-5.22-2.08-7.08-4.03-1.87-1.94-3.03-4.49-3.27-7.16-.2-2.16,.19-4.39,1.11-6.35,.1,.08,.19,.16,.29,.23,.14,.11,.28,.21,.42,.31-.8,1.77-1.15,3.78-.96,5.73,.22,2.48,1.3,4.84,3.03,6.64,1.72,1.8,4.1,3.13,6.67,3.78,.98,.26,1.99,.42,3.01,.51,.09,0,.18,.01,.27,.02,.23,.02,.46,.03,.7,.04,.06,0,.12,0,.18,0,1.3,.03,2.61-.08,3.92-.29,0,0,0,0,0,0,.3-.04,.59-.1,.89-.16,.09-.02,.18-.04,.27-.06,.29-.07,.59-.13,.88-.2l1.01-.29c.05-.01,.11-.03,.16-.05,.31,.21,.62,.41,.94,.61-.28,.1-.56,.2-.85,.27l-1.04,.3c-.38,.09-.77,.18-1.16,.26-.09,.02-.18,.04-.27,.05Zm-14.52-21.13c-.25-.17-.49-.35-.73-.54-.95-.76-1.78-1.68-2.43-2.73-.05-.07-.09-.14-.13-.22-.15-.25-.3-.51-.43-.77-.04-.08-.08-.16-.12-.24-.94-1.98-1.33-4.25-1.11-6.44,.26-2.67,1.44-5.21,3.33-7.14,.94-.97,2.04-1.78,3.24-2.45,1.2-.68,2.51-1.18,3.87-1.53,1.01-.26,2.05-.43,3.11-.51,0,.29,.01,.58,.03,.87-.99,.08-1.97,.24-2.92,.48-1.29,.33-2.53,.8-3.66,1.44-1.13,.63-2.16,1.4-3.04,2.3-1.75,1.79-2.84,4.14-3.09,6.62-.2,1.98,.14,4.02,.95,5.82,.04,.08,.08,.16,.12,.24,.13,.26,.27,.52,.42,.78,.06,.1,.11,.19,.17,.28,.65,1.03,1.47,1.93,2.42,2.65,.25,.19,.51,.37,.77,.54,.08,.05,.17,.1,.26,.15,.7,.41,1.46,.75,2.25,.98,.27,.08,.54,.15,.82,.21,.02,.3,.05,.61,.08,.91-.39-.08-.78-.17-1.15-.29-.99-.3-1.93-.73-2.79-1.28-.08-.05-.16-.1-.23-.15Zm8.67-21.04c.04,.43,.08,.87,.13,1.3l.09,.64,.04,.32,.08,.38,.16,.77,.22,.73,.11,.36,.13,.34,.27,.68c.07,.15,.14,.3,.21,.45-1.15,1.23-2.21,2.58-3.12,4.08-.56,.92-1.05,1.9-1.47,2.92-.13,0-.26,.01-.38,.03l-.69,.09-.69,.09c-.23,.04-.46,.09-.69,.14-.46,.1-.92,.19-1.37,.34-1.62,.47-3.18,1.21-4.59,2.17-.78-1.74-1.11-3.72-.91-5.63,.24-2.42,1.3-4.71,3.01-6.46,.85-.88,1.86-1.63,2.97-2.25,1.11-.63,2.33-1.1,3.6-1.42,.93-.24,1.89-.39,2.87-.48,0,.13,.01,.26,.02,.39Zm5.02-.38s0-.03,0-.04c-.02-.3-.03-.59-.04-.89-.01-.4-.02-.79,0-1.18,.03-.93,.14-1.84,.33-2.71,.06-.29,.14-.57,.22-.85,.03-.09,.06-.17,.08-.26,.43-1.31,1.09-2.48,2.02-3.41,.87-.89,1.95-1.57,3.17-2.01,1.22-.43,2.56-.63,3.92-.64,1.36,0,2.7,.2,3.92,.64,1.22,.44,2.3,1.11,3.17,2.01,.93,.93,1.59,2.1,2.02,3.41-.15,.02-.31,.05-.46,.07-.14,.02-.27,.05-.41,.08-.4-1.15-.98-2.16-1.77-2.95-.77-.79-1.74-1.39-2.84-1.79-1.11-.39-2.35-.58-3.63-.59-1.28,0-2.52,.19-3.63,.59-1.11,.4-2.07,1-2.84,1.79-.79,.79-1.38,1.8-1.77,2.95-.03,.08-.06,.17-.08,.25-.09,.27-.16,.56-.23,.84-.19,.82-.3,1.7-.32,2.59-.02,.43-.01,.87,0,1.31,.01,.24,.02,.47,.04,.71,0,.06,.01,.13,.02,.19,0,.09,.02,.18,.03,.28,.02,.19,.04,.38,.06,.57l.07,.52,.03,.26,.04,.2,.04,.22c-.25,.19-.5,.38-.75,.57l-.06-.19-.09-.45-.05-.22-.04-.27-.07-.54c-.03-.28-.06-.56-.09-.84,0-.08-.01-.15-.02-.23Zm12.8-1.09c.7,.41,1.4,.83,2.09,1.26,.02,.01,.03,.02,.05,.03,.31,.2,.63,.4,.94,.61,.09,.06,.18,.13,.28,.19,.6,.4,1.19,.82,1.78,1.25-.08,.28-.18,.57-.3,.87-.83-.62-1.67-1.2-2.52-1.76-.09-.06-.18-.12-.28-.18-.31-.2-.61-.39-.92-.58-1.2-.74-2.41-1.43-3.65-2.09-.18-.1-.37-.19-.55-.28-.32-.17-.65-.33-.98-.48-.1-.05-.2-.09-.31-.14-.88-.4-1.78-.76-2.69-1.08-1.4-.5-2.84-.88-4.31-1.15,.07-.29,.14-.57,.23-.84,1.49,.28,2.96,.67,4.37,1.17,1.16,.41,2.29,.87,3.4,1.4,.1,.05,.2,.1,.3,.15,.32,.16,.64,.32,.96,.49,0,0,.01,0,.02,.01,.38,.19,.71,.38,1.06,.57l1.05,.6Zm9.83,7.47c-.14,.28-.29,.55-.44,.81-.2,.36-.41,.7-.63,1.04-.52,.8-1.07,1.55-1.65,2.26-.19,.23-.37,.46-.56,.69-.06,.07-.12,.14-.17,.21-.25,.29-.51,.58-.76,.87-1.11,1.23-2.26,2.38-3.43,3.48-.25,.23-.5,.46-.75,.69-.23-.18-.46-.36-.69-.55,.28-.26,.56-.51,.84-.77,1.16-1.09,2.3-2.22,3.39-3.43,.28-.31,.56-.63,.83-.95,.06-.07,.11-.14,.17-.21,.19-.23,.38-.45,.56-.68,.52-.66,1.03-1.35,1.5-2.08,.25-.39,.5-.8,.73-1.22,.15-.27,.29-.54,.42-.82,.04-.09,.08-.17,.12-.25,.37-.82,.67-1.69,.86-2.64l.07-.35,.04-.31,.08-.62c.05-.41,.09-.83,.13-1.25,0-.12,.01-.24,.02-.37,.29,0,.58,.02,.87,.04,0,.13-.01,.26-.02,.39-.04,.43-.08,.86-.13,1.29l-.09,.64-.04,.32-.08,.39c-.23,1.16-.61,2.19-1.07,3.14-.04,.08-.08,.17-.12,.25Zm6.38,13.42c.23,.05,.45,.1,.66,.18,.75,.22,1.46,.52,2.13,.9-.65,.37-1.36,.67-2.09,.89-.15,.04-.28,.1-.43,.13l-.27,.06c.02-.34,.03-.67,.03-1.01,0-.38-.01-.76-.03-1.14Zm-.13,2.45l.11-.02,.35-.07c.15-.03,.3-.09,.44-.13,.8-.24,1.57-.57,2.28-.99,.27,.17,.54,.35,.79,.54-.87,.56-1.82,.99-2.82,1.29-.37,.11-.75,.2-1.13,.28-.09,.02-.18,.04-.27,.05-.3,.05-.59,.09-.9,.13-.57,.06-1.14,.09-1.71,.09-.71-.02-1.45-.13-2.19-.32-.28-.07-.56-.15-.85-.24-.09-.03-.17-.06-.26-.08-.19-.07-.38-.13-.58-.21-.77-.3-1.53-.65-2.28-1.04,.32-.17,.64-.34,.95-.5,.54,.26,1.09,.51,1.63,.72,.12,.05,.24,.09,.36,.13,.09,.03,.17,.06,.26,.09,.29,.1,.57,.18,.86,.26,.73,.19,1.44,.31,2.11,.32,.13,.02,.31,0,.46,0l.48-.02c.29,0,.56-.04,.84-.08,.04,0,.08-.01,.12-.01l.47-.06,.3-.07,.16-.04Zm-1.54,5.89l-.68,.03c-.08,0-.16,0-.24,0-.15,0-.29,.01-.46,0-1.27-.03-2.46-.24-3.58-.54-.29-.08-.57-.16-.85-.25-.09-.03-.17-.06-.25-.08-.27-.09-.54-.19-.8-.28-1.66-.63-3.18-1.42-4.62-2.28-.16-.09-.31-.19-.46-.29,.25-.19,.51-.37,.76-.56,.05,.03,.1,.06,.15,.09,1.41,.84,2.89,1.61,4.48,2.22,.29,.11,.58,.21,.88,.31,.08,.03,.17,.06,.25,.08,.28,.09,.56,.17,.85,.24,1.02,.27,2.09,.44,3.22,.47,.27,0,.53,0,.8-.01,.32-.01,.63-.03,.94-.06,.1,0,.19-.02,.29-.03,1.06-.11,2.12-.31,3.16-.62,1.52-.46,2.98-1.16,4.3-2.08,.15,.25,.29,.51,.41,.78-1.37,.94-2.89,1.66-4.46,2.13-.22,.07-.45,.15-.67,.2l-.68,.15-.68,.15-.68,.09c-.34,.04-.69,.09-1.03,.12-.1,0-.19,.01-.29,.01-.01,0-.03,0-.04,0Zm-5.59,.63c-.44,.73-.95,1.42-1.5,2.09-.06,.07-.11,.14-.17,.21-.19,.23-.39,.45-.58,.67-.87,.96-1.83,1.86-2.84,2.71-.22,.19-.45,.37-.68,.55-.02,.02-.04,.04-.07,.05-.05,.04-.1,.07-.14,.11-1.12,.87-2.29,1.68-3.51,2.45-.46,.29-.92,.57-1.39,.85-.08-.05-.16-.09-.25-.13l-.63-.36c.61-.36,1.22-.72,1.81-1.09,1.2-.75,2.36-1.56,3.46-2.41,.04-.03,.09-.06,.13-.1,.03-.02,.05-.04,.08-.07,.23-.18,.45-.36,.68-.55,1.02-.85,1.97-1.76,2.83-2.71,.2-.22,.39-.45,.58-.68,.06-.07,.12-.14,.17-.21,.48-.6,.92-1.21,1.3-1.84,.14-.23,.27-.46,.39-.69,.28,.09,.57,.18,.86,.26-.16,.3-.33,.6-.51,.89Zm-3.72,11.11l.04,.2,.03,.26,.07,.51c.02,.16,.03,.31,.05,.46-.27-.06-.54-.12-.81-.19l-.93-.26c.51-.35,1.02-.7,1.53-1.08,0,.03,.01,.06,.02,.09Zm-1.69,1.22l1.01,.29c.3,.07,.6,.14,.9,.21,0,.09,.02,.18,.03,.28,.01,.21,.02,.42,.03,.63-.4-.08-.79-.18-1.18-.27l-1.04-.3c-.28-.08-.55-.17-.82-.27-.07-.02-.14-.05-.21-.07-.03-.01-.07-.03-.1-.04-.35-.12-.69-.25-1.03-.39-.98-.38-1.94-.81-2.87-1.32-.32-.16-.65-.34-.99-.53l-.35-.2-.64-.36c-.08-.05-.16-.1-.25-.15-.09-.05-.18-.1-.27-.16-.48-.28-.95-.57-1.42-.86-1.21-.76-2.37-1.57-3.49-2.43,.17-.23,.34-.47,.52-.7,1.09,.84,2.23,1.64,3.43,2.39,.6,.38,1.22,.75,1.83,1.11,.02,.01,.05,.03,.07,.04l.2,.11,.77,.44s.07,.04,.11,.06c.29,.16,.58,.32,.86,.46,1.09,.59,2.23,1.08,3.39,1.5,.17,.06,.33,.12,.5,.18,.18,.06,.36,.12,.54,.18,.11,.04,.21,.07,.32,.1,.05,.01,.09,.03,.14,.04Zm-15.09-.28l.07-.51,.03-.25,.04-.19s.01-.05,.02-.07c.5,.37,1.01,.73,1.53,1.08l-.96,.27c-.26,.06-.52,.12-.79,.18,.02-.16,.03-.33,.05-.49Zm-.07-1.21c-.01,.07-.03,.13-.04,.2l-.04,.2-.04,.26-.07,.52c-.03,.2-.04,.39-.06,.58-.3,.06-.59,.12-.89,.17,.03-.29,.05-.57,.09-.86l.07-.54,.04-.27,.05-.23c.04-.2,.09-.41,.14-.62,.02-.09,.05-.18,.08-.28,.09-.29,.19-.58,.31-.87,.26-.64,.58-1.28,.95-1.91,.31-.52,.65-1.02,1.01-1.52,.17-.24,.35-.47,.53-.7,.05-.07,.11-.14,.16-.21,.28-.35,.56-.69,.85-1.03,.96-1.1,2.01-2.14,3.13-3.12,.27-.25,.56-.48,.84-.73,.17-.15,.34-.28,.52-.42,.24,.18,.47,.37,.7,.55-.22,.18-.44,.35-.66,.54-.28,.24-.56,.47-.83,.71-1.09,.96-2.12,1.98-3.05,3.05-.29,.33-.56,.66-.83,1-.06,.07-.11,.14-.16,.21-.18,.23-.35,.46-.52,.7-.33,.46-.65,.93-.93,1.41-.4,.67-.74,1.36-.99,2.03-.11,.3-.21,.59-.28,.88-.02,.1-.05,.19-.07,.28Zm-4.46-4.29c.13-.29,.27-.57,.42-.84,.17-.32,.34-.63,.52-.93,.52-.87,1.09-1.69,1.68-2.47,.18-.24,.36-.48,.55-.71,.06-.07,.12-.14,.17-.21,.22-.27,.44-.53,.67-.79,1.12-1.27,2.3-2.45,3.54-3.54,.24-.22,.49-.43,.73-.64l.07,.05,.63,.5c-.28,.24-.58,.48-.85,.74-1.22,1.07-2.38,2.23-3.47,3.47-.25,.29-.5,.59-.75,.89-.06,.07-.11,.14-.17,.21-.18,.23-.37,.46-.54,.7-.54,.71-1.05,1.46-1.52,2.25-.22,.37-.43,.76-.63,1.15-.14,.27-.27,.56-.39,.84-.04,.09-.08,.17-.11,.26-.35,.84-.63,1.73-.82,2.68l-.07,.34-.04,.31-.08,.62c-.05,.41-.09,.83-.13,1.25,0,.13-.02,.26-.02,.39-.06,0-.12,0-.18,0-.23,0-.46-.03-.69-.04,0-.14,.02-.27,.02-.41,.04-.43,.08-.86,.13-1.29l.09-.64,.05-.32,.07-.37c.22-1.15,.58-2.21,1.01-3.19,.04-.09,.08-.18,.12-.27Zm-6.32-13.36c-.25-.06-.49-.12-.72-.19-.73-.22-1.42-.51-2.07-.88,.67-.38,1.39-.69,2.15-.91,.2-.08,.42-.12,.64-.17-.02,.37-.03,.74-.04,1.11,0,.35,.02,.69,.04,1.04Zm.19-2.46c-.06,.01-.12,.03-.18,.04-.25,.05-.5,.1-.73,.19-.83,.24-1.61,.58-2.34,1.01-.27-.17-.54-.35-.79-.54,.89-.57,1.86-1.01,2.88-1.31,.31-.12,.65-.17,.98-.24,.03,0,.06-.01,.09-.02,.09-.02,.18-.04,.27-.06,.04,0,.09-.02,.13-.03l.51-.06,.25-.03,.25-.03c.17-.02,.34-.02,.51-.03l.51-.02h.26c.08-.01,.16,0,.24,0,.69,.02,1.41,.13,2.13,.32,.28,.07,.56,.15,.85,.24,.08,.03,.17,.06,.25,.08,.22,.07,.43,.15,.65,.23,.74,.29,1.48,.63,2.21,1.01-.32,.17-.64,.34-.96,.5-.52-.25-1.04-.49-1.57-.69-.14-.05-.28-.11-.43-.16-.09-.03-.17-.06-.26-.09-.29-.1-.57-.18-.86-.26-.71-.19-1.4-.3-2.05-.32-.07,0-.14-.01-.21-.01h-.24s-.48,.03-.48,.03c-.16,.01-.32,0-.48,.03l-.42,.06h-.05s-.47,.06-.47,.06c-.12,.02-.24,.05-.37,.08-.03,0-.06,.01-.09,.02Zm7.03-6.44c.48-.8,1.04-1.55,1.64-2.28,.06-.07,.11-.14,.17-.21,.19-.22,.39-.44,.59-.66,.87-.95,1.83-1.84,2.85-2.68,.19-.16,.38-.31,.57-.46,.04-.03,.07-.06,.11-.08,.07-.05,.14-.11,.21-.16,1.51-1.16,3.12-2.22,4.79-3.21,.11,.06,.21,.12,.31,.17l.56,.32c-.63,.37-1.26,.74-1.87,1.13-1.13,.71-2.21,1.47-3.25,2.26-.07,.05-.14,.11-.21,.16-.04,.03-.08,.06-.11,.09-.19,.15-.38,.31-.57,.46-1.02,.84-1.98,1.74-2.84,2.69-.2,.22-.39,.44-.58,.67-.06,.07-.11,.14-.17,.21-.54,.66-1.03,1.34-1.46,2.05-.13,.21-.24,.42-.36,.63-.28-.09-.57-.18-.86-.26,.15-.28,.3-.55,.47-.82Zm3.78-11.08l-.02-.09-.04-.19-.03-.26-.07-.51c-.02-.16-.04-.32-.05-.48,.58,.13,1.17,.28,1.74,.45-.51,.35-1.02,.71-1.53,1.08Zm-.24-1.81c0-.09-.02-.17-.02-.26-.01-.21-.02-.43-.03-.64,1.03,.21,2.05,.48,3.04,.83,.1,.03,.19,.06,.29,.1,.01,0,.02,0,.03,.01,.35,.12,.69,.25,1.03,.39,1,.39,1.99,.83,2.94,1.35,.42,.23,.85,.46,1.27,.69,.3,.17,.59,.33,.88,.5,.09,.05,.18,.1,.27,.16,1.65,.97,3.24,2.02,4.73,3.16-.18,.23-.36,.46-.55,.68-1.01-.77-2.06-1.5-3.16-2.2-.62-.39-1.26-.78-1.9-1.15,0,0,0,0,0,0l-.27-.15-.7-.4c-.06-.03-.12-.07-.18-.1-.27-.15-.54-.3-.79-.42-1.11-.61-2.28-1.1-3.46-1.54-.14-.05-.28-.11-.43-.16-.2-.07-.41-.14-.62-.21-.11-.03-.21-.07-.32-.11-.68-.21-1.36-.39-2.05-.54Zm12.18,15.89c.23,.19,.46,.37,.69,.55,.07,.06,.14,.11,.22,.17,.22,.17,.44,.34,.66,.51-.26,.17-.52,.33-.78,.5-.18-.14-.36-.28-.54-.42-.07-.06-.14-.11-.21-.17-.23-.18-.46-.37-.69-.55-.55-.44-1.09-.89-1.63-1.36-.47-.39-.92-.79-1.38-1.18-.22-.19-.44-.39-.66-.58-.07-.06-.13-.12-.2-.18-.4-.36-.81-.72-1.21-1.08-1.11-1.03-2.18-2.08-3.17-3.18-.3-.33-.58-.66-.86-1,.19-.15,.37-.31,.56-.46,.04-.03,.08-.06,.12-.09,.27,.32,.55,.64,.83,.96,.97,1.07,2.02,2.11,3.12,3.12,.42,.38,.84,.76,1.27,1.14,.07,.06,.13,.12,.2,.18,.22,.19,.44,.38,.66,.58,.43,.37,.85,.73,1.29,1.1,.58,.49,1.14,.97,1.72,1.43Zm9.49,3.82c-.13,.05-.27,.1-.4,.15-.53,.21-1.06,.44-1.59,.7-.1,.05-.2,.09-.3,.15-.31,.16-.62,.32-.93,.49-1.25,.69-2.49,1.5-3.7,2.37-.26,.18-.51,.37-.76,.56-.02,.01-.04,.03-.06,.04-.06,.04-.11,.09-.17,.13-.17,.13-.33,.25-.5,.38,0,0-.01,0-.02-.01-.22-.19-.45-.37-.68-.56,.14-.11,.27-.21,.41-.31,.07-.06,.15-.11,.22-.17,.07-.05,.13-.1,.2-.15,.18-.13,.36-.27,.55-.4,1.17-.85,2.37-1.66,3.6-2.36,.3-.17,.59-.34,.89-.49,.09-.05,.19-.1,.28-.15,.74-.38,1.48-.73,2.23-1.02,.21-.08,.41-.15,.62-.22,.04,.3,.07,.59,.09,.89Zm.04,1.04c0,.22-.01,.45-.02,.67-.09-.03-.18-.07-.28-.1-.47-.18-.94-.39-1.42-.61,.46-.22,.92-.42,1.38-.6,.11-.04,.21-.08,.32-.12,.01,.25,.02,.51,.02,.76Zm-13.17,16.89l-.07-.04c-.64-.37-1.28-.75-1.89-1.14-1.19-.75-2.33-1.54-3.41-2.38,.27-.33,.54-.66,.82-.99,.93-1.05,1.94-2.07,3.03-3.02,.26-.25,.55-.47,.82-.71,.23-.2,.46-.38,.7-.57,.24,.19,.48,.39,.72,.59,.27,.24,.56,.46,.82,.71,1.08,.96,2.1,1.97,3.02,3.02,.28,.32,.55,.64,.8,.97-1.09,.84-2.24,1.64-3.43,2.39-.62,.39-1.26,.77-1.89,1.14l-.04,.02Zm4.76-4.7c-.93-1.07-1.96-2.08-3.05-3.05-.26-.25-.55-.48-.83-.71-.22-.19-.45-.38-.68-.56-.06-.05-.11-.09-.17-.14-.01-.01-.03-.02-.04-.03-.23-.19-.46-.37-.7-.55-.04-.03-.08-.06-.12-.09l-.44-.33-.22-.17-.11-.08c-.12-.09-.16-.12-.24-.19l-.9-.76-.87-.71-.2-.16-.67-.53-.03-.02-.22-.17-.5-.38c.26-.17,.52-.33,.78-.5l.4,.31,.09,.07,.12,.1,.7,.56,.06,.05,.88,.72,.9,.76c.07,.06,.11,.09,.2,.16l.11,.08,.22,.17,.45,.34c.1,.07,.19,.15,.29,.22,.2,.15,.39,.31,.59,.47,.04,.03,.08,.06,.11,.09,.07,.06,.14,.12,.21,.17,.18,.15,.36,.29,.54,.44,.28,.24,.57,.48,.84,.73,1.11,.98,2.16,2.03,3.12,3.12,.29,.33,.57,.67,.84,1.01-.22,.19-.45,.37-.68,.55-.26-.33-.53-.66-.81-.98Zm-17.9-11.24c.11-.04,.22-.08,.34-.12,.55-.21,1.11-.46,1.66-.73,.1-.05,.2-.1,.3-.15,.31-.16,.62-.32,.93-.49,.28-.15,.56-.31,.83-.48,.97-.58,1.93-1.21,2.87-1.89,.25-.18,.51-.37,.76-.55,0,0,0,0,0,0,.08-.06,.15-.12,.23-.17,.21-.16,.42-.32,.64-.49,.22,.2,.44,.4,.66,.59-.17,.13-.34,.26-.52,.4-.07,.06-.15,.11-.22,.17-.09,.07-.18,.14-.26,.2-.16,.12-.32,.23-.48,.35-1.05,.77-2.12,1.49-3.22,2.14-.13,.08-.26,.15-.39,.22-.3,.17-.59,.34-.89,.49-.09,.05-.19,.1-.29,.15-.76,.39-1.53,.75-2.3,1.05-.18,.07-.37,.13-.55,.2-.04-.3-.07-.59-.09-.89Zm-.04-.97c0-.25,.01-.49,.02-.74,.11,.04,.23,.08,.34,.13,.45,.17,.9,.38,1.35,.59-.48,.23-.96,.44-1.44,.62-.08,.03-.17,.06-.25,.09-.01-.23-.02-.46-.03-.7Zm5.02-9.19c1.1,1.21,2.24,2.34,3.41,3.42,.28,.26,.57,.51,.86,.77,.07,.06,.13,.12,.2,.18,.22,.2,.44,.4,.66,.59,.62,.54,1.24,1.07,1.85,1.59,.38,.33,.77,.65,1.16,.97,.23,.19,.46,.38,.69,.56,.07,.06,.14,.11,.21,.17,.08,.06,.15,.12,.23,.18-.24,.18-.47,.37-.71,.55-.07-.06-.14-.11-.21-.17-.07-.06-.14-.11-.21-.17-.23-.19-.46-.38-.69-.56-.35-.29-.7-.58-1.04-.87-.66-.55-1.32-1.13-1.98-1.71-.22-.19-.44-.39-.66-.59-.07-.06-.13-.12-.2-.18-.25-.23-.51-.45-.75-.68-1.19-1.1-2.35-2.24-3.47-3.48-.25-.28-.5-.56-.74-.84,.19-.22,.38-.45,.58-.66,.27,.31,.54,.62,.81,.92Zm8.14,9.33l-.21-.17c.07-.06,.14-.11,.21-.17,.07,.06,.14,.11,.21,.17-.07,.06-.14,.11-.21,.17Zm-8.99-8.57c1.13,1.24,2.29,2.4,3.49,3.5,.24,.22,.48,.43,.72,.65-.22,.17-.45,.35-.68,.52-.16-.1-.32-.2-.48-.3-1.45-.87-2.97-1.67-4.65-2.31-.28-.11-.57-.21-.86-.31,.11-.19,.21-.39,.33-.58,.41-.68,.89-1.34,1.41-1.98,.24,.28,.47,.55,.71,.81Zm-2.12,13.73c1.6-.61,3.08-1.37,4.48-2.21,.06-.04,.12-.07,.18-.11,.08-.05,.16-.1,.24-.15,.27-.16,.53-.33,.8-.5,.97-.62,1.9-1.28,2.81-1.96,.18-.13,.36-.27,.53-.41,.24-.18,.48-.37,.71-.55,.07-.06,.14-.11,.21-.17,.08-.06,.15-.12,.23-.18,.23,.19,.46,.38,.69,.57-.07,.06-.14,.11-.21,.17-.07,.06-.14,.11-.21,.17-.23,.19-.47,.37-.71,.55-.24,.19-.48,.37-.73,.55-.84,.63-1.7,1.23-2.59,1.81-.26,.17-.52,.34-.78,.5-.08,.05-.16,.1-.24,.15-.16,.1-.33,.2-.49,.3-1.44,.86-2.96,1.65-4.62,2.28-.25,.09-.51,.19-.77,.27-.14-.26-.26-.53-.38-.79,.29-.09,.57-.19,.85-.3Zm.4,1.07c1.68-.64,3.21-1.43,4.67-2.3,.2-.12,.39-.24,.59-.36l.53,.41c-.23,.2-.47,.39-.7,.6-1.25,1.1-2.44,2.28-3.57,3.57-.22,.25-.43,.5-.64,.75-.46-.58-.89-1.18-1.26-1.8-.12-.2-.24-.41-.35-.61,.25-.08,.49-.17,.73-.26Zm19.06,2.69c-1.09-1.24-2.25-2.39-3.47-3.47-.28-.26-.58-.51-.88-.76-.01-.01-.03-.02-.04-.04-.05-.05-.11-.09-.17-.14-.23-.19-.46-.38-.69-.57-.03-.02-.05-.05-.08-.07-.32-.25-.63-.51-.95-.75l-.87-.66-.88-.75-.32-.27-.6-.49-.09-.07-.21-.17-.23-.18c.24-.18,.47-.37,.71-.55l.21,.17,.16,.13,.05,.04,.69,.57,.19,.16,.88,.75,.84,.64c.33,.24,.65,.51,.97,.76,.08,.06,.16,.13,.23,.19,.23,.19,.46,.37,.69,.57,0,0,.02,.02,.03,.02,.06,.05,.12,.1,.18,.15,.26,.22,.51,.43,.76,.66,1.24,1.1,2.43,2.27,3.54,3.54,.22,.25,.43,.51,.64,.76-.19,.23-.38,.45-.57,.67-.24-.29-.48-.58-.73-.86Zm.86-.75c-1.12-1.28-2.32-2.47-3.56-3.57-.23-.22-.48-.42-.72-.63,.18-.14,.35-.27,.53-.41,.19,.11,.37,.23,.56,.34,1.45,.86,2.98,1.66,4.66,2.3,.25,.09,.51,.18,.76,.27-.12,.21-.23,.43-.36,.64-.37,.61-.79,1.2-1.25,1.78-.2-.25-.41-.49-.61-.73Zm1.81-13.64c-1.59,.61-3.07,1.38-4.47,2.22-.04,.02-.07,.04-.1,.06-.08,.05-.16,.1-.24,.15-.27,.16-.53,.33-.8,.5-.99,.64-1.95,1.31-2.88,2.01-.16,.12-.31,.24-.46,.35-.24,.18-.48,.37-.71,.55-.07,.06-.14,.11-.21,.17-.08,.06-.15,.12-.23,.18l-.69-.57c.07-.06,.14-.11,.21-.17,.07-.06,.14-.11,.21-.17,.23-.19,.47-.37,.71-.55,.22-.17,.43-.34,.65-.5,.86-.64,1.75-1.27,2.66-1.86,.26-.17,.52-.34,.78-.5,.08-.05,.16-.1,.24-.15,.14-.09,.27-.17,.41-.26,1.44-.86,2.95-1.65,4.61-2.29,.28-.11,.57-.21,.86-.31,.14,.26,.26,.53,.38,.79-.31,.1-.63,.21-.93,.33Zm-.41-1.06c-1.68,.65-3.2,1.44-4.65,2.31-.17,.1-.34,.21-.51,.31-.24-.18-.47-.36-.71-.54,.24-.22,.48-.44,.72-.66,1.18-1.11,2.33-2.26,3.45-3.5,.25-.27,.49-.56,.73-.84,.54,.67,1.04,1.35,1.48,2.07,.11,.18,.21,.37,.31,.56-.28,.09-.55,.19-.82,.29Zm-11.93-3.07c-1.09-1.01-2.14-2.04-3.1-3.1-.28-.31-.55-.63-.82-.94,1.03-.79,2.1-1.54,3.23-2.24,.62-.39,1.25-.77,1.89-1.14l.11-.06,.14,.08c.64,.37,1.27,.75,1.89,1.14,1.09,.69,2.13,1.41,3.13,2.18-.27,.32-.55,.64-.83,.96-.96,1.07-2.01,2.12-3.1,3.14-.41,.39-.83,.77-1.26,1.15-.43-.38-.86-.76-1.28-1.15Zm-15.21,2.13c.12,0,.25,0,.37,.01,1.23,.04,2.38,.24,3.47,.53,.29,.08,.57,.16,.85,.25,.09,.03,.17,.06,.26,.09,.3,.1,.6,.21,.89,.32,1.65,.64,3.17,1.43,4.61,2.29,.13,.08,.26,.16,.39,.24-.25,.19-.51,.37-.76,.56-.03-.02-.05-.03-.08-.05-1.4-.84-2.88-1.61-4.47-2.23-.32-.12-.64-.23-.96-.34-.08-.03-.17-.06-.25-.08-.28-.09-.56-.17-.85-.24-.99-.26-2.03-.43-3.11-.47-.11,0-.23-.01-.34-.01h-.33s-.23,.02-.23,.02l-.42,.02c-.17,.01-.35,.01-.52,.03-.04,0-.09,0-.13,0l-.16,.02-.49,.06-.65,.08c-.22,.03-.43,.09-.65,.13-.43,.1-.86,.17-1.28,.32-1.55,.46-3.05,1.17-4.39,2.1-.15-.25-.29-.51-.41-.78,1.4-.96,2.95-1.69,4.56-2.16,.44-.15,.9-.24,1.35-.34,.23-.05,.45-.1,.68-.14l.68-.09,.68-.09c.08-.01,.17-.01,.25-.02,.1,0,.19-.01,.29-.02,.05,0,.09,0,.14,0l.68-.03h.14s.2-.01,.2-.01Zm3.84,14.07c-.13-.26-.26-.53-.38-.8-.52-1.2-.89-2.46-1.08-3.75-.04-.29-.08-.58-.1-.87,0-.09-.02-.18-.02-.27-.03-.35-.04-.7-.04-1.05,0-.37,.01-.73,.04-1.09,.28,.08,.57,.16,.86,.26-.02,.28-.03,.55-.03,.83,0,.26,.01,.53,.03,.79,0,.09,0,.18,.02,.27,.02,.3,.05,.59,.09,.89,.18,1.29,.55,2.54,1.09,3.74,.12,.27,.25,.53,.38,.79,.04,.08,.09,.16,.13,.24,.12,.22,.25,.45,.38,.67,.39,.64,.84,1.26,1.32,1.86-.19,.23-.37,.47-.55,.71-.55-.68-1.06-1.38-1.51-2.12-.17-.28-.34-.57-.49-.86-.04-.08-.08-.16-.12-.24Zm25.35-13.52c.13,.27,.26,.53,.38,.8,.52,1.2,.89,2.46,1.08,3.75,.04,.29,.08,.58,.11,.87,0,.09,.02,.18,.02,.27,.03,.37,.04,.75,.04,1.12,0,.34-.01,.68-.04,1.02-.28-.08-.57-.16-.86-.26,.01-.25,.03-.51,.03-.76,0-.29-.01-.57-.03-.86,0-.09-.01-.18-.02-.27-.02-.3-.05-.59-.1-.89-.18-1.29-.55-2.54-1.08-3.74-.12-.27-.24-.53-.38-.79-.04-.08-.09-.16-.13-.24-.11-.2-.22-.41-.34-.61-.45-.74-.96-1.45-1.53-2.14,.19-.23,.38-.46,.57-.69,.63,.76,1.21,1.55,1.71,2.37,.16,.26,.31,.53,.45,.8,.04,.08,.08,.16,.13,.24Zm-3.08-13.05l-.07,.54-.04,.27-.05,.22c-.04,.21-.1,.42-.16,.63-.03,.09-.05,.18-.08,.27-.09,.28-.21,.57-.34,.85-.27,.6-.61,1.21-1,1.8-.33,.51-.7,1.02-1.09,1.52-.18,.23-.36,.46-.55,.68-.06,.07-.11,.14-.17,.21-.29,.34-.58,.68-.88,1.01-.99,1.1-2.06,2.17-3.17,3.21-.39,.36-.78,.72-1.17,1.08-.22-.19-.45-.38-.66-.58,.42-.38,.83-.76,1.24-1.14,1.09-1.03,2.14-2.08,3.12-3.15,.29-.32,.57-.65,.84-.97,.06-.07,.11-.14,.17-.21,.19-.23,.37-.45,.55-.68,.37-.48,.72-.96,1.04-1.45,.42-.63,.76-1.27,1.02-1.88,.12-.29,.23-.58,.31-.86,.03-.09,.05-.19,.07-.28,.02-.08,.04-.15,.05-.22l.04-.18,.03-.26,.07-.52c.02-.19,.04-.38,.06-.57,.3-.06,.59-.12,.89-.17,0,0,0,0,0,0-.03,.28-.05,.56-.09,.84Zm-1.13-.14l-.07,.51-.03,.26-.04,.18s-.02,.07-.02,.1c-.5-.37-1.01-.73-1.52-1.07,.58-.17,1.16-.32,1.74-.45-.02,.16-.03,.32-.05,.48Zm-12.07-5.49c-1.41-.51-2.88-.89-4.37-1.18,.39-1.1,.95-2.06,1.7-2.81,.74-.76,1.67-1.34,2.74-1.73,1.07-.38,2.28-.56,3.54-.57,1.25,0,2.46,.19,3.54,.57,1.07,.39,2,.97,2.74,1.73,.75,.75,1.32,1.71,1.7,2.81-1.48,.28-2.94,.67-4.34,1.17-1.24,.44-2.46,.94-3.64,1.51-1.17-.57-2.38-1.06-3.61-1.5Zm-5.61,7.56s0,0,0,0c.24-.19,.49-.38,.74-.56,.08-.06,.15-.12,.22-.17,.59-.44,1.19-.86,1.79-1.26,.27,.09,.54,.17,.81,.27,.08,.03,.16,.06,.24,.09-.86,.56-1.71,1.16-2.54,1.78-.07,.06-.15,.11-.22,.17-.17,.13-.34,.25-.51,.38-.07,.06-.14,.12-.21,.17-1.04,.84-2.06,1.74-3.01,2.71-.21,.22-.42,.44-.63,.66-.06,.07-.12,.14-.19,.21-.99,1.1-1.91,2.29-2.7,3.59-.44,.73-.84,1.49-1.19,2.27h-.26s-.69,.04-.69,.04c0,0,0,0-.01,0,.4-.96,.88-1.89,1.4-2.77,.88-1.45,1.91-2.76,3.02-3.96,.06-.07,.13-.14,.19-.21,.21-.23,.43-.45,.65-.66,.99-.99,2.03-1.9,3.09-2.74Zm-9.72,20.19c-.03-.3-.06-.6-.09-.91,0-.09-.01-.18-.02-.27-.02-.37-.04-.74-.04-1.1,0-.39,.02-.78,.04-1.17,.14-.03,.28-.07,.43-.09l.46-.06c-.03,.44-.05,.87-.05,1.31,0,.42,.02,.83,.05,1.25,0,.09,.01,.18,.02,.27,.02,.3,.05,.59,.09,.89,.12,.92,.3,1.84,.56,2.73,.12,.42,.26,.84,.41,1.25,.11,.3,.23,.59,.35,.88,.04,.09,.07,.18,.11,.27,.36,.81,.77,1.58,1.22,2.33,.77,1.26,1.66,2.42,2.62,3.49-.15,.27-.29,.55-.42,.84-1.08-1.18-2.08-2.46-2.95-3.87-.54-.89-1.03-1.84-1.44-2.82-.04-.09-.08-.18-.11-.27-.12-.3-.23-.6-.34-.9-.11-.31-.21-.63-.3-.95-.3-1.01-.5-2.05-.62-3.1Zm2.58,8.17c.9,1.47,1.93,2.79,3.05,4-.46,1.03-.84,2.14-1.08,3.36l-.07,.38-.05,.32-.09,.64c-.05,.43-.09,.87-.13,1.3,0,.14-.02,.28-.02,.41-1.01-.09-2-.25-2.96-.5-1.26-.33-2.48-.8-3.59-1.44-1.11-.63-2.11-1.39-2.95-2.27-1.69-1.76-2.74-4.06-2.96-6.48-.18-1.89,.15-3.83,.92-5.55,1.37,.94,2.89,1.66,4.46,2.13,.23,.07,.45,.15,.68,.2l.69,.15,.69,.15c.23,.04,.46,.06,.69,.1,.41,.06,.81,.1,1.21,.13,.43,1.04,.94,2.03,1.51,2.97Zm13.34,11.53c-.7-.41-1.4-.82-2.09-1.26-.04-.03-.08-.05-.12-.08-.31-.2-.62-.4-.93-.6-.09-.06-.19-.13-.28-.19-.6-.41-1.2-.82-1.79-1.26,.07-.29,.16-.59,.27-.89,.84,.63,1.69,1.23,2.56,1.79,.09,.06,.19,.12,.28,.18,.16,.1,.32,.21,.48,.31,.15,.09,.3,.18,.44,.27,1.22,.75,2.44,1.46,3.73,2.13,.16,.08,.32,.16,.47,.24,.32,.17,.65,.33,.98,.48,.1,.05,.2,.09,.31,.14,.91,.41,1.83,.78,2.78,1.11,.39,.13,.78,.28,1.18,.39l1.2,.34c.61,.14,1.22,.29,1.84,.41-.07,.29-.14,.57-.23,.84-.61-.12-1.22-.26-1.83-.41l-1.23-.35c-.41-.11-.81-.27-1.21-.4-1.19-.42-2.36-.89-3.49-1.43-.1-.05-.2-.1-.3-.15-.3-.15-.59-.29-.88-.45-.03-.02-.07-.03-.1-.05-.34-.18-.67-.35-.99-.53l-1.06-.6Zm6.72,3.45c.41,.13,.81,.29,1.23,.4l1.24,.35c.6,.14,1.2,.29,1.81,.4-.39,1.1-.95,2.06-1.71,2.81-.75,.76-1.67,1.34-2.74,1.73-1.07,.38-2.28,.56-3.54,.57-1.25,0-2.46-.19-3.53-.57-1.07-.39-1.99-.97-2.74-1.73-.75-.75-1.31-1.7-1.69-2.8,.6-.12,1.19-.26,1.78-.39l1.24-.35c.42-.11,.82-.27,1.23-.4,1.27-.44,2.52-.95,3.72-1.54,1.19,.58,2.43,1.09,3.69,1.53Zm5.52-7.59s-.05,.04-.07,.06c-.22,.17-.45,.34-.68,.51-.08,.06-.15,.12-.23,.17-.59,.44-1.19,.86-1.79,1.26-.25-.08-.49-.17-.74-.24-.1-.04-.2-.08-.3-.11,.87-.57,1.72-1.16,2.55-1.79,.07-.06,.15-.11,.22-.17,.14-.11,.28-.21,.42-.32,.1-.08,.2-.16,.3-.24,1.05-.85,2.07-1.75,3.04-2.74,.21-.22,.43-.44,.63-.67,.06-.07,.13-.14,.19-.21,.96-1.06,1.84-2.21,2.6-3.46,.46-.75,.87-1.54,1.23-2.35,.12,0,.24-.01,.36-.01l.61-.03c-.42,.99-.91,1.94-1.46,2.85-.86,1.4-1.85,2.67-2.93,3.84-.06,.07-.13,.14-.19,.21-.22,.23-.44,.45-.66,.67-1,1-2.05,1.92-3.12,2.77Zm9.72-20.18c.03,.3,.06,.6,.08,.9,0,.09,.01,.18,.02,.28,.02,.4,.04,.8,.04,1.2,0,.36-.02,.71-.04,1.07l-.36,.08-.46,.06s-.04,0-.06,0c.03-.41,.04-.81,.05-1.22,0-.45-.02-.9-.05-1.34,0-.09-.01-.18-.02-.27-.02-.3-.05-.59-.09-.89-.11-.89-.29-1.77-.54-2.64-.13-.45-.27-.9-.43-1.33-.11-.3-.23-.59-.35-.89-.04-.09-.08-.18-.12-.27-.34-.77-.74-1.53-1.17-2.25-.8-1.33-1.74-2.54-2.76-3.66,.15-.26,.3-.53,.44-.81,1.13,1.22,2.17,2.55,3.06,4.02,.52,.87,.99,1.79,1.38,2.73,.04,.09,.08,.18,.11,.27,.12,.29,.23,.59,.33,.89,.12,.35,.23,.7,.33,1.05,.28,.98,.48,1.99,.59,3Zm-2.53-8.09c-.92-1.52-2-2.89-3.16-4.14,.48-.99,.89-2.07,1.13-3.29l.08-.39,.04-.32,.09-.64c.05-.43,.09-.87,.13-1.3,0-.13,.02-.26,.02-.39,.99,.08,1.95,.24,2.89,.48,1.26,.32,2.49,.79,3.6,1.42,1.11,.62,2.12,1.38,2.97,2.26,1.71,1.75,2.77,4.04,3,6.47,.19,1.91-.13,3.87-.91,5.61-1.4-.96-2.95-1.69-4.56-2.16-.45-.16-.91-.25-1.37-.35-.23-.05-.46-.1-.69-.14l-.69-.09c-.37-.05-.75-.1-1.12-.12-.41-1-.9-1.97-1.45-2.88Zm11.06,.11c-.24-2.48-1.32-4.83-3.07-6.62-.87-.9-1.9-1.67-3.03-2.3-1.13-.65-2.38-1.12-3.66-1.45-.96-.25-1.94-.41-2.95-.49-.09,0-.18,0-.27-.02-.29-.02-.58-.04-.87-.04-1.3-.03-2.61,.07-3.92,.29-.02,0-.05,0-.07,.01-.27,.05-.54,.1-.82,.15-.09,.02-.18,.03-.27,.05-.69,.15-1.37,.33-2.05,.54-.31-.21-.62-.41-.93-.61,1-.34,2.02-.62,3.04-.83,.09-.02,.18-.03,.27-.05,.21-.04,.41-.08,.62-.12,.09-.02,.18-.03,.26-.04,1.3-.21,2.61-.31,3.9-.27,.29,0,.58,.02,.87,.04,.09,0,.18,0,.27,.01,1.06,.09,2.11,.26,3.13,.52,1.35,.35,2.67,.85,3.86,1.53,1.2,.67,2.3,1.49,3.24,2.46,1.88,1.93,3.06,4.47,3.31,7.14,.22,2.19-.17,4.44-1.11,6.42-.12-.1-.25-.2-.38-.29-.11-.08-.23-.16-.34-.24,.81-1.79,1.15-3.82,.95-5.79Zm-41.02-18.29c.62-1.8,1.65-3.56,3.05-4.98,1.4-1.44,3.15-2.51,4.97-3.16,1.83-.65,3.71-.91,5.53-.92,1.83,0,3.71,.27,5.53,.92,1.82,.65,3.57,1.72,4.97,3.16,1.41,1.43,2.43,3.19,3.05,4.98,.17,.48,.31,.97,.44,1.45-.03,0-.07,0-.1,0-.27,0-.54-.01-.81-.01-.1-.39-.22-.77-.35-1.15-.59-1.7-1.54-3.33-2.85-4.66-1.3-1.34-2.93-2.34-4.64-2.95-1.71-.61-3.5-.86-5.24-.87-1.74,0-3.52,.26-5.24,.87-1.71,.61-3.34,1.61-4.64,2.95-1.31,1.33-2.27,2.97-2.85,4.66-.13,.38-.25,.77-.35,1.15-.02,.09-.05,.18-.07,.26-.07,.29-.13,.58-.19,.87-.02,.09-.04,.19-.05,.28-.08,.43-.12,.86-.18,1.29-.03,.43-.07,.86-.08,1.29-.02,.35-.02,.69,0,1.04,0,.29,.01,.58,.03,.87,0,.09,.01,.18,.02,.27,0,.12,.01,.24,.02,.37,.04,.42,.08,.84,.13,1.25l.08,.62,.04,.31,.07,.35,.15,.69,.2,.66,.1,.33,.12,.32,.25,.63s.01,.02,.02,.03c-.22,.22-.44,.44-.65,.66-.05-.12-.11-.23-.16-.35l-.27-.67-.13-.34-.11-.36-.21-.71-.16-.75-.07-.38-.04-.32-.09-.64c-.05-.43-.09-.86-.13-1.29,0-.13-.02-.26-.02-.39,0-.09-.01-.18-.02-.27-.01-.29-.02-.58-.03-.87,0-.37,0-.74,0-1.11,0-.44,.05-.9,.08-1.34,.06-.45,.1-.9,.18-1.36,0-.04,.01-.08,.02-.11,.05-.29,.11-.59,.18-.88,.02-.09,.04-.18,.06-.27,.12-.49,.26-.97,.44-1.46Zm-19.53,17.69c.19-1.85,.68-3.69,1.48-5.38,.79-1.7,1.87-3.26,3.17-4.59,1.29-1.33,2.78-2.44,4.36-3.31,1.57-.89,3.26-1.53,4.99-1.97,1.57-.4,3.17-.63,4.76-.7-.07,.29-.13,.59-.18,.88-1.46,.08-2.93,.3-4.37,.66-1.66,.42-3.28,1.04-4.78,1.89-1.51,.84-2.93,1.89-4.16,3.16-1.23,1.26-2.26,2.74-3,4.35-.75,1.61-1.22,3.34-1.4,5.1-.34,3.37,.4,6.84,2.14,9.77,.05,.08,.1,.16,.15,.25,.03,.04,.05,.09,.08,.13,.14,.22,.28,.43,.43,.64,.77,1.09,1.69,2.09,2.73,2.94,.14,.12,.29,.23,.43,.35,.09,.07,.17,.13,.26,.19,.07,.05,.14,.11,.22,.16,1.31,.91,2.76,1.61,4.27,2.07,1.05,.32,2.12,.53,3.2,.63,.1,.31,.21,.61,.33,.91-.35-.03-.71-.06-1.07-.11-.23-.03-.46-.05-.68-.09l-.68-.15-.68-.15c-.23-.06-.45-.13-.67-.2-1.56-.47-3.06-1.19-4.42-2.12-.07-.05-.15-.11-.22-.16-.13-.09-.25-.18-.37-.27-.11-.09-.22-.18-.33-.27-1.06-.85-2.01-1.85-2.82-2.94-.19-.26-.37-.52-.54-.78-.04-.06-.08-.12-.12-.18-.01-.02-.03-.05-.04-.07-1.98-3.17-2.83-6.96-2.46-10.64Zm18.75,37.73c-1.64-.08-3.28-.32-4.89-.74-1.72-.46-3.41-1.1-4.98-2-1.57-.89-3.06-2.01-4.34-3.35-1.28-1.34-2.35-2.91-3.13-4.61-.78-1.7-1.26-3.54-1.43-5.39-.34-3.64,.51-7.37,2.47-10.5,.17,.26,.36,.52,.55,.78-1.72,2.9-2.46,6.31-2.15,9.64,.16,1.76,.62,3.5,1.36,5.11,.73,1.61,1.75,3.1,2.97,4.37,1.22,1.28,2.63,2.34,4.13,3.19,1.5,.86,3.12,1.48,4.77,1.92,1.48,.39,2.98,.61,4.49,.7,.09,0,.18,0,.27,.01,.09,0,.19,.01,.28,.01,.2,0,.41,.01,.61,.01,1.32,0,2.63-.1,3.92-.29,.16-.02,.33-.05,.49-.07,.13-.02,.25-.04,.37-.06,.09-.02,.18-.03,.26-.05,.61-.12,1.21-.26,1.81-.4l1.2-.34c.4-.11,.79-.26,1.18-.39,.95-.33,1.89-.71,2.81-1.12,.09,.05,.19,.1,.28,.15,.23,.13,.47,.24,.71,.36-1.14,.55-2.32,1.02-3.52,1.44-.41,.13-.8,.29-1.22,.4l-1.23,.35c-.6,.14-1.19,.28-1.8,.4-.09,.02-.18,.03-.26,.05-.15,.03-.31,.06-.46,.08-.14,.02-.27,.04-.41,.06-1.3,.19-2.62,.31-3.96,.31-.28,0-.55,0-.83-.01-.02,0-.05,0-.07,0-.09,0-.18,0-.28-.01Zm27.87,1.75c-.32,.9-.72,1.79-1.23,2.63-.51,.84-1.13,1.64-1.83,2.35-1.4,1.43-3.15,2.5-4.97,3.15-1.83,.65-3.71,.91-5.53,.91-1.83,0-3.71-.27-5.53-.92-1.82-.65-3.57-1.73-4.96-3.17-1.4-1.43-2.43-3.19-3.05-4.99-.17-.47-.31-.95-.43-1.43,0,0,0,0,0,0,.3,0,.6,.01,.9,.01,.1,.38,.21,.76,.35,1.13,.58,1.7,1.54,3.33,2.85,4.67,1.3,1.34,2.92,2.34,4.63,2.95,1.71,.61,3.5,.87,5.24,.87,1.74,0,3.52-.25,5.24-.86,1.71-.61,3.34-1.61,4.64-2.94,.65-.66,1.22-1.41,1.7-2.19,.48-.79,.86-1.62,1.16-2.47,.14-.39,.26-.78,.36-1.17,.02-.09,.05-.18,.07-.26,.07-.29,.13-.58,.19-.87,.02-.09,.04-.18,.05-.27,.08-.43,.12-.86,.18-1.29,.03-.43,.08-.86,.08-1.29,.02-.35,.02-.7,0-1.05,0-.29-.01-.58-.03-.87,0-.09-.01-.18-.02-.27,0-.12-.01-.23-.02-.35-.04-.42-.08-.84-.12-1.25l-.08-.62-.04-.31-.07-.34c-.18-.96-.47-1.86-.82-2.72,.22-.22,.44-.44,.66-.67,.44,1,.8,2.07,1.02,3.23l.07,.37,.04,.32,.09,.64c.05,.43,.09,.86,.13,1.29,0,.12,.01,.25,.02,.37,0,.09,.01,.18,.02,.27,.01,.29,.02,.58,.03,.87,0,.37,0,.75,0,1.13,0,.44-.05,.9-.08,1.34-.06,.45-.1,.9-.19,1.36,0,.03-.01,.06-.02,.1-.05,.29-.11,.59-.18,.88-.02,.09-.04,.18-.06,.27-.12,.49-.27,.98-.44,1.47Zm19.54-17.81c-.18,1.86-.66,3.69-1.44,5.39-.78,1.7-1.85,3.27-3.14,4.61-1.28,1.34-2.77,2.45-4.35,3.34-1.57,.9-3.26,1.54-4.98,1.99-1.6,.42-3.23,.65-4.85,.73,.07-.29,.13-.59,.18-.88,1.5-.09,2.99-.31,4.46-.69,1.65-.43,3.27-1.05,4.78-1.91,1.51-.85,2.92-1.91,4.14-3.18,1.22-1.27,2.24-2.75,2.98-4.37,.74-1.61,1.2-3.35,1.37-5.11,.32-3.34-.42-6.77-2.15-9.68-.05-.08-.1-.16-.15-.25-.04-.07-.09-.14-.13-.21-.12-.19-.25-.38-.38-.57-.77-1.09-1.69-2.09-2.73-2.94-.17-.14-.34-.27-.51-.4-.06-.05-.12-.09-.19-.13-.07-.05-.14-.1-.22-.15-1.33-.93-2.81-1.64-4.36-2.09-.42-.15-.85-.23-1.28-.32-.22-.05-.43-.1-.65-.14l-.65-.08c-.18-.02-.35-.05-.53-.07-.1-.31-.21-.61-.33-.91,.32,.02,.65,.07,.97,.11l.68,.09c.23,.04,.45,.09,.68,.14,.45,.1,.91,.19,1.35,.34,1.59,.47,3.13,1.2,4.52,2.15,.07,.05,.15,.1,.22,.16,.1,.07,.2,.14,.29,.21,.14,.11,.28,.22,.41,.33,1.06,.85,2.01,1.85,2.81,2.94,.19,.25,.37,.51,.54,.78,.02,.03,.04,.06,.06,.09,.03,.05,.06,.1,.09,.15,1.97,3.14,2.82,6.89,2.47,10.54Z"/><path class="cls-1" d="M7.49,105.54l6.19,7.93c.49,.66,.55,.88,.55,1.03,0,.11-.04,.43-.46,.52v.17h5.94v-.23c-.37-.15-.75-.41-1.12-.75-.42-.38-.79-.78-1.1-1.19l-7.54-9.7,8.28-7.32c.38-.35,.77-.56,1.17-.63v-.17h-6.82v.18c.09,.03,.18,.07,.26,.13,.12,.09,.27,.27,.27,.62,0,.21-.11,.43-.36,.68-.19,.2-.45,.45-.78,.77l-7.75,6.78v-8.04c0-.32,.11-.57,.31-.74,.12-.1,.25-.17,.39-.2v-.18H0v.17c.5,.09,.77,.43,.77,.96v17.73c0,.53-.28,.87-.77,.96v.17H4.92v-.18c-.14-.04-.27-.11-.39-.21-.21-.17-.31-.42-.31-.74v-5.71l3.27-2.81Z"/><path class="cls-1" d="M38.61,113.17c.21,.46,.31,.83,.31,1.13,0,.26-.13,.47-.35,.6-.07,.04-.14,.07-.21,.1v.2h5.63v-.25c-.21-.11-.39-.22-.56-.33-.25-.16-.44-.41-.58-.75l-7.31-15.89c-.16-.34-.29-.62-.38-.84-.09-.24-.14-.48-.14-.73,0-.49,.21-.71,.39-.81,.11-.06,.23-.12,.35-.17v-.23h-5.38v.22c.14,.05,.27,.12,.4,.2,.17,.11,.38,.33,.38,.78,0,.25-.07,.53-.22,.86-.13,.29-.28,.6-.44,.94l-6.5,15.18c-.17,.38-.35,.72-.53,1.01-.17,.28-.4,.47-.68,.58v.21h4.43v-.16c-.6-.1-.67-.5-.67-.69,0-.28,.12-.69,.37-1.28l1.34-2.94h8.94l1.41,3.05Zm-9.55-5.38l3.75-8.25,3.35,8.25h-7.11Z"/><path class="cls-1" d="M59.32,114.95l6.94-14.12h.52v13.25c0,.33-.13,.87-.95,.97v.16h4.96v-.18c-.14-.04-.27-.11-.39-.21-.21-.17-.31-.42-.31-.74v-17.81c0-.42,.18-.62,.34-.72,.11-.07,.23-.12,.37-.15v-.17h-5.94v.18c.29,.09,.46,.33,.46,.67,0,.19-.05,.41-.15,.64-.08,.2-.21,.47-.38,.81l-5.32,10.54-5.28-10.66c-.12-.24-.23-.46-.32-.67-.11-.25-.17-.45-.17-.62,0-.25,.12-.46,.33-.59,.08-.05,.16-.08,.24-.11v-.19h-6.01v.17c.13,.03,.25,.08,.36,.15,.16,.1,.34,.31,.34,.72v17.81c0,.32-.11,.57-.31,.74-.12,.1-.25,.17-.39,.21v.18h4.71v-.16c-.85-.1-.98-.63-.98-.97v-13.29h.53l6.8,14.16Z"/><path class="cls-1" d="M96.01,115.28c.21,.05,.46,.21,.53,.66h.09v-4.79h-.1c-.05,.27-.19,.5-.41,.68-.27,.22-.62,.34-1.04,.34h-12.02v-5.95h7.17c.52,0,.94,.1,1.24,.3,.3,.2,.46,.56,.5,1.11h.08v-5.53h-.08c-.04,.55-.21,.91-.52,1.08-.3,.17-.7,.25-1.23,.25h-7.17v-5.4h11.67c.56,0,.95,.09,1.2,.27,.15,.11,.32,.29,.39,.59h.1v-4.6h-.1c-.05,.25-.18,.45-.37,.62-.25,.22-.65,.32-1.22,.32h-15.75v.19c.13,.04,.24,.11,.35,.21,.19,.17,.29,.42,.29,.73v17.73c0,.32-.1,.56-.28,.73-.11,.1-.22,.17-.35,.21v.19h16.1c.38,0,.68,.03,.93,.09Z"/><path class="cls-1" d="M118.98,113.34c.43,.48,.63,.82,.63,1.08,0,.12-.04,.49-.46,.6v.18h5.14v-.17c-.43-.1-.67-.43-.67-.95v-17.73c0-.52,.24-.86,.67-.95v-.17h-4.75v.16c.82,.11,.91,.7,.91,.97v13.17l-10.58-12.21c-.68-.76-.77-1.08-.77-1.28,0-.32,.12-.51,.28-.6v-.22h-5.45v.17c.43,.1,.67,.43,.67,.95v17.73c0,.52-.24,.86-.67,.95v.17h4.64v-.17c-.52-.09-.81-.43-.81-.96v-13.72l11.21,12.99Z"/><path class="cls-1" d="M148.33,97.5c-1.07-.84-2.27-1.47-3.57-1.89-1.3-.42-2.6-.63-3.85-.63s-2.55,.21-3.85,.63c-1.3,.42-2.5,1.05-3.57,1.89-1.06,.83-1.95,1.9-2.63,3.17-.68,1.27-1.02,2.79-1.02,4.54s.34,3.27,1.02,4.54c.68,1.27,1.57,2.34,2.63,3.17,1.07,.83,2.27,1.45,3.56,1.83,2.61,.76,5.11,.76,7.72,0,1.29-.38,2.49-.99,3.56-1.83,1.07-.83,1.95-1.9,2.63-3.17,.68-1.27,1.02-2.79,1.02-4.54s-.34-3.27-1.02-4.54c-.68-1.27-1.57-2.34-2.63-3.17Zm-.35,10.77c-.46,.89-1.07,1.65-1.81,2.26-.74,.6-1.58,1.07-2.49,1.4-.92,.32-1.85,.48-2.76,.48s-1.85-.16-2.76-.48c-.92-.32-1.76-.79-2.49-1.4-.74-.61-1.35-1.37-1.81-2.26-.46-.9-.7-1.92-.7-3.06s.24-2.16,.7-3.06c.46-.89,1.07-1.65,1.81-2.26,.74-.6,1.58-1.07,2.49-1.4,1.83-.64,3.7-.64,5.53,0,.92,.32,1.76,.79,2.49,1.4,.74,.61,1.35,1.37,1.81,2.26,.46,.9,.7,1.92,.7,3.06s-.24,2.16-.7,3.06Z"/><path class="cls-1" d="M162.78,95.21h-5.28v.16c.82,.11,.91,.7,.91,.97v17.73c0,.27-.1,.86-.91,.97v.16h5.28v-.16c-.82-.11-.91-.7-.91-.97v-17.73c0-.27,.1-.86,.91-.97v-.16Z"/><path class="cls-1" d="M198.87,95.21h-4.85v.17c.5,.09,.77,.43,.77,.96v6.92h-11.88v-6.92c0-.32,.1-.56,.29-.73,.11-.1,.22-.17,.35-.21v-.19h-4.75v.17c.43,.1,.67,.43,.67,.95v17.73c0,.52-.24,.86-.67,.95v.17h4.75v-.19c-.13-.04-.24-.11-.35-.21-.19-.17-.28-.42-.28-.73v-7.62h11.88v7.62c0,.53-.28,.87-.77,.96v.17h4.85v-.19c-.13-.04-.24-.11-.35-.21-.19-.17-.28-.42-.28-.73v-17.73c0-.32,.1-.56,.29-.73,.11-.1,.22-.17,.35-.21v-.19Z"/><path class="cls-1" d="M224.66,109.74c.68-1.27,1.02-2.79,1.02-4.54s-.34-3.27-1.02-4.54c-.68-1.27-1.57-2.34-2.63-3.17-1.07-.84-2.27-1.47-3.57-1.89-1.3-.42-2.6-.63-3.85-.63s-2.55,.21-3.85,.63c-1.3,.42-2.5,1.05-3.57,1.89-1.06,.83-1.95,1.9-2.63,3.17-.68,1.27-1.02,2.79-1.02,4.54s.34,3.27,1.02,4.54c.68,1.27,1.57,2.34,2.63,3.17,1.07,.83,2.27,1.45,3.56,1.83,2.61,.76,5.11,.76,7.72,0,1.3-.38,2.49-.99,3.56-1.83,1.07-.83,1.95-1.9,2.63-3.17Zm-4.8,.78c-.74,.6-1.58,1.07-2.49,1.4-.92,.32-1.85,.48-2.76,.48s-1.85-.16-2.76-.48c-.92-.32-1.76-.79-2.49-1.4-.74-.61-1.35-1.37-1.81-2.26-.46-.89-.7-1.92-.7-3.06s.24-2.16,.7-3.06c.46-.89,1.07-1.65,1.81-2.26,.74-.6,1.58-1.07,2.49-1.4,1.83-.64,3.7-.64,5.53,0,.92,.32,1.76,.79,2.49,1.4,.74,.61,1.35,1.37,1.81,2.26,.46,.9,.7,1.93,.7,3.06s-.24,2.16-.7,3.06c-.46,.89-1.07,1.65-1.81,2.26Z"/><path class="cls-1" d="M244.77,98.25c.26,0,.52,.08,.77,.24,.22,.15,.36,.38,.41,.7h.09v-4.91h-.09c-.05,.32-.18,.55-.41,.7-.24,.16-.5,.24-.77,.24h-15.61c-.27,0-.53-.08-.77-.24-.22-.14-.36-.38-.41-.7h-.09v4.91h.09c.05-.32,.18-.55,.41-.7,.24-.16,.5-.24,.77-.24h6.08v15.83c0,.32-.1,.56-.29,.73-.11,.1-.22,.17-.35,.21v.19h4.85v-.17c-.5-.09-.77-.43-.77-.96v-15.83h6.08Z"/><path class="cls-1" d="M267.94,115.28c.21,.05,.46,.21,.53,.66h.09v-4.79h-.1c-.05,.27-.19,.5-.41,.68-.27,.22-.62,.34-1.04,.34h-12.02v-5.95h7.17c.52,0,.94,.1,1.24,.3,.3,.2,.46,.56,.5,1.11h.08v-5.53h-.08c-.04,.55-.21,.91-.52,1.08-.3,.17-.7,.25-1.23,.25h-7.17v-5.4h11.67c.56,0,.95,.09,1.2,.27,.15,.11,.32,.29,.39,.59h.1v-4.6h-.1c-.05,.25-.18,.45-.37,.62-.25,.22-.65,.32-1.22,.32h-15.75v.19c.13,.04,.24,.11,.35,.21,.19,.17,.29,.42,.29,.73v17.73c0,.31-.1,.56-.28,.73-.11,.1-.22,.17-.35,.21v.19h16.1c.38,0,.68,.03,.93,.09Z"/><path class="cls-1" d="M291.13,115.28c.21,.05,.46,.21,.53,.66h.09v-4.79h-.1c-.05,.27-.19,.5-.41,.68-.27,.22-.62,.34-1.04,.34h-11.95v-15.83c0-.33,.14-.87,.98-.97v-.16h-5.49v.16c.91,.09,1.05,.63,1.05,.97v17.73c0,.34-.14,.88-1.05,.97v.16h16.45c.38,0,.68,.03,.93,.09Z"/><path class="cls-1" d="M98.54,140.59c-.09-.09-.16-.21-.19-.39-.01,0-.04-.45-.07-1.39h-.27l-.31,1.41c-.13,.29-.43,.45-.91,.48-.31,.03-.88,.07-1.72,.09-1.07,0-1.72-.03-1.95-.08-.23-.08-.33-.25-.33-.55v-.79h3.03v.05c0,.24,.09,.36,.31,.36,.08,0,.2,0,.37-.03,.37-.07,.57-.17,.57-.33-.04-.59-.05-1.07-.05-1.42v-.93c0-.11,.07-.21,.2-.32,.17-.11,.27-.2,.27-.31,0-.09-.2-.27-.57-.53-.33-.19-.55-.29-.63-.29-.09,0-.19,.05-.28,.15-.15,.13-.29,.27-.45,.43h-2.76v-.95h2.4c0,.25,.11,.37,.32,.37,.08,0,.2-.01,.36-.04,.37-.07,.57-.17,.57-.33-.04-.59-.05-1.05-.05-1.4v-.89c0-.11,.07-.21,.2-.31,.17-.11,.27-.2,.27-.31s-.2-.29-.6-.57c-.35-.21-.56-.32-.65-.32s-.2,.05-.31,.16c-.15,.12-.31,.25-.47,.41h-1.86c.39-.17,.77-.4,1.17-.68,.04-.05,.16-.11,.37-.13,.27-.05,.41-.13,.41-.23,0-.11-.2-.32-.59-.63-.32-.24-.53-.36-.61-.36s-.21,.09-.4,.25c-.08,.08-.19,.19-.33,.32h-2.21c.3-.26,.48-.44,.52-.48,.15-.16,.5-.29,.56-.37,.06-.07,0-.2-.21-.33-.21-.12-1.22-.61-1.22-.61-.11,.24-.26,.45-.39,.64-2,2.87-4.17,4.09-4.17,4.09v.14c.76-.27,1.5-.65,2.18-1.06v1.11c0,.53-.04,1.05-.11,1.56,0,.25,.13,.37,.41,.37,.08,0,.19-.01,.35-.04,.36-.07,.55-.17,.55-.33h2.3v.95h-2.83c-.51-.23-.99-.4-1.46-.52,.07,.36,.11,.67,.11,.93v2.55c0,.25-.03,.48-.05,.68,0,.21,.12,.32,.36,.32,.08,0,.19-.01,.35-.04,.36-.07,.55-.17,.55-.33v-.41h2.98v1.2c0,.47,.13,.79,.41,.96,.11,.09,.36,.17,.76,.24,.48,.03,1.25,.05,2.35,.05,.8,0,1.43-.04,1.87-.09,.61-.03,1.09-.11,1.46-.24,.27-.13,.4-.32,.4-.56,0-.11-.09-.23-.27-.36Zm-6.98-1.56h-2.98v-1.04h2.98v1.04Zm0-1.41h-2.98v-1.04h2.98v1.04Zm4.27,1.41h-3.03v-1.04h3.03v1.04Zm0-2.46v1.04h-3.03v-1.04h3.03Zm-.63-1.67h-2.4v-1.09h2.4v1.09Zm0-2.51v1.05h-2.4v-1.05h2.4Zm-3.64,2.51h-2.3v-1.09h2.3v1.09Zm0-1.46h-2.3v-1.05h2.3v1.05Zm.95-1.42h-3.26l-.18-.1c.51-.35,.95-.7,1.31-1h2.69c-.15,.4-.33,.77-.56,1.09Z"/><path class="cls-1" d="M107.72,131.29c-1.4,0-2.64,.45-3.74,1.35-1.26,1.01-1.88,2.35-1.88,4,0,1.09,.27,2,.8,2.7,.43,.61,.89,.91,1.4,.91,.47,0,.91-.23,1.32-.69,.64-.68,1.19-1.82,1.64-3.4,.35-1.23,.53-2.12,.53-2.7s-.13-1.11-.37-1.6c.08,0,.16-.01,.27-.01,1.07,0,1.94,.36,2.59,1.08,.65,.71,.99,1.67,.99,2.9,0,1.37-.43,2.51-1.27,3.39-.36,.37-.93,.77-1.72,1.19-.16,.11-.37,.2-.65,.32-.19,.07-.27,.12-.27,.17,0,.07,.07,.11,.23,.11,.25,0,.72-.11,1.39-.32,2.38-.71,3.58-2.3,3.58-4.78,0-1.03-.32-1.96-.93-2.82-.88-1.19-2.18-1.79-3.9-1.79Zm-1.66,5.17c-.63,1.6-1.21,2.39-1.78,2.39-.33,0-.61-.28-.83-.84-.24-.51-.35-1.05-.35-1.67,0-1.01,.32-1.94,.97-2.78,.71-.92,1.64-1.47,2.8-1.66,.05,.15,.09,.32,.09,.53,0,1.17-.31,2.51-.92,4.02Z"/><path class="cls-1" d="M126.49,135.26c-.05,0-.24,.21-.55,.61-.27,.35-.41,.53-.44,.53h-.88v-3.44h2.55c.13,0,.21-.07,.21-.2,0-.08-.17-.29-.51-.67-.35-.35-.59-.53-.75-.53-.05,0-.23,.19-.52,.56-.25,.31-.39,.47-.41,.48h-.57v-1.92c0-.15,.08-.25,.24-.31,.21-.08,.33-.19,.33-.32,0-.11-.2-.19-.6-.24-.59-.08-1.07-.15-1.44-.19,.11,.61,.16,1.33,.16,2.15v.83h-2.78c0-.57,.01-1.2,.01-1.88,0-.12,.09-.21,.31-.29,.21-.08,.32-.19,.32-.32s-.25-.24-.76-.32c-.39-.07-.81-.13-1.28-.21,.03,.52,.05,.96,.05,1.31v1.72h-.99c-.8,0-1.4-.03-1.83-.11l.21,.52c.32-.03,.85-.05,1.62-.05h.97c-.03,1.47-.07,2.62-.12,3.44h-1.43c-.8,0-1.4-.03-1.83-.09l.21,.52c.32-.03,.85-.05,1.62-.05h1.4c-.04,.41-.08,.72-.13,.93-.24,.85-.56,1.54-.97,2.07-.43,.67-1,1.28-1.7,1.84l.15,.21c1.11-.64,1.99-1.31,2.63-2,.48-.55,.88-1.24,1.17-2.08,.05-.2,.12-.52,.17-.97h2.96v2.34c0,.67-.03,1.4-.05,2.2,0,.24,.12,.36,.36,.36,.08,0,.23-.01,.41-.04,.43-.08,.64-.19,.64-.32-.04-.72-.05-1.46-.05-2.2v-2.34h2.96c.17,0,.27-.07,.27-.21,0-.08-.19-.32-.55-.71-.37-.4-.64-.6-.81-.6Zm-3.18,1.15h-2.92c.07-.81,.12-1.96,.15-3.44h2.78v3.44Z"/><path class="cls-1" d="M133.92,135.18c0,1.16-.2,2.15-.59,2.96-.43,.88-.95,1.32-1.56,1.32-.37,0-.55-.2-.55-.61,0-.23,.12-.45,.37-.69,.2-.15,.41-.31,.63-.48,.36-.35,.69-.83,1-1.46,.19-.43,.32-.79,.39-1.08,.03-.13,.09-.21,.19-.21,.08,0,.12,.09,.12,.25Zm5.98,.44c-.19-.17-.43-.37-.75-.6-.32-.21-.51-.33-.57-.33-.08,0-.12,.04-.12,.11,0,.03,.07,.12,.21,.28,.75,.92,1.24,2.02,1.5,3.27,.15,.75,.39,1.12,.72,1.12,.19,0,.33-.09,.47-.28,.11-.17,.17-.39,.17-.64,0-.52-.23-1.12-.67-1.79-.31-.43-.63-.8-.96-1.13Zm1.42-2.83c-.36-.25-.63-.39-.79-.39-.05,0-.17,.04-.36,.12-.21,.08-.51,.13-.87,.16-.96,.08-1.68,.13-2.19,.16,.02-.43,.03-.73,.04-.92,.02-.3,.04-.46,.23-.58,.21-.12,.3-.26,.3-.42,0-.25-.37-.44-.73-.6-.37-.16-.81-.3-1.19-.3-.19,0-.39,.02-.54,.05l-.12,.37c.35,.11,.6,.26,.7,.4,.14,.18,.19,.4,.21,.81,0,.06,0,.11,0,.17h0l.04,1.11c-.37,.04-1.05,.13-2.07,.27-.17,.02-.33,.04-.49,.06-.33,.03-.5,.04-.58,.04-.46,0-.86-.21-1.37-.84l-.32,.25c.14,.49,.44,1,.68,1.3,.23,.26,.49,.46,.77,.46,.18,0,.3-.03,.49-.1,.1-.04,.19-.07,.31-.1h0s.01,0,.01,0c.03,0,.06-.01,.09-.02l.24-.06c.57-.14,1.26-.28,2.23-.39v5.07c0,.31-.12,.45-.33,.45-.12,0-.43-.07-.91-.23-.49-.16-.73-.24-.73-.24-.08,0-.12,.05-.12,.15,0,.08,.13,.23,.43,.44,.44,.37,.76,.64,.96,.83,.09,.12,.21,.33,.35,.65,.11,.24,.23,.37,.36,.37,.2,0,.44-.23,.71-.67,.27-.44,.41-.87,.41-1.29,0,.03-.03-.52-.07-1.63-.05-1.09-.08-1.99-.08-2.66,0-.4,0-.85,.03-1.36,.68-.03,1.33-.05,1.96-.05,.73,0,1.32,.03,1.76,.08,.43,.05,.64,.08,.65,.08,.28,0,.43-.13,.43-.4,0-.13-.19-.33-.55-.59Z"/><path class="cls-1" d="M146.52,131.14c0-.08,.04-.13,.15-.13-.05,0,.08,.05,.37,.15,.28,.11,.63,.15,1.05,.15,1.23,0,2.48-.15,3.79-.45,.08-.03,.2-.07,.33-.15,.11-.05,.2-.09,.28-.09,.16,0,.37,.08,.64,.24s.41,.32,.41,.45c0,.29-.23,.44-.65,.45-.05,0-.76,.09-2.11,.25-1.31,.16-2.18,.24-2.6,.24-.49,0-.91-.16-1.25-.51-.28-.24-.41-.44-.41-.6Zm8.69,2.84c-.37-.27-.64-.4-.8-.4-.09,0-.23,.04-.39,.09-.2,.08-.39,.12-.56,.13-1.33,.11-2.47,.2-3.39,.27-2.83,.28-4.15,.41-3.99,.41-.33,0-.63-.05-.89-.19-.27-.13-.39-.2-.36-.2-.11,0-.15,.05-.15,.16,0,.16,.17,.43,.55,.8,.35,.39,.64,.57,.87,.57,.12,0,.36-.07,.71-.2,.53-.21,1.46-.39,2.79-.52,.16,.17,.25,.36,.25,.56,0,1.03-.35,2.07-1.03,3.11-.75,1.15-1.72,1.99-2.91,2.55-.11,.05-.16,.11-.16,.17s.04,.11,.15,.11c.08,0,.27-.05,.56-.15,1.19-.41,2.15-.97,2.88-1.72,.55-.56,.97-1.23,1.29-2,0-.03,.16-.55,.48-1.58,.04-.13,.11-.24,.2-.35,.07-.07,.11-.15,.11-.24,0-.16-.27-.33-.77-.55,1.17-.04,2.11-.07,2.8-.07,.53,0,1,.04,1.37,.12s.57,.12,.6,.12c.23,0,.35-.12,.35-.37,0-.16-.19-.39-.56-.65Z"/><path class="cls-1" d="M161.6,132.99c0,.07-.04,.16-.11,.29-.08,.15-.11,.37-.11,.68,0,1.83-.28,3.23-.84,4.22-.56,1-1.6,1.94-3.11,2.82-.05,.01-.09,.03-.12,.03-.05,0-.07-.03-.07-.08s.04-.11,.12-.17c1.01-.81,1.74-1.75,2.19-2.79,.45-1.09,.68-2.5,.68-4.2,0-.43-.05-.75-.16-.97-.09-.15-.21-.27-.35-.36-.13-.05-.19-.11-.19-.16,0-.13,.13-.2,.41-.2,.4,0,.77,.12,1.15,.36,.32,.23,.49,.41,.49,.55Zm7.46,2.1c-.05,0-.11,.04-.16,.11-.56,.67-1.39,1.47-2.47,2.38-1.01,.85-1.59,1.27-1.75,1.27-.07,0-.09-.23-.09-.69,0-1.51,.03-3.24,.11-5.21,0-.37,.05-.71,.13-1,.08-.29,.13-.44,.13-.47,0-.19-.23-.4-.67-.64-.44-.24-.81-.36-1.12-.36-.23,0-.33,.08-.33,.23,0,.04,.05,.09,.16,.15,.13,.11,.24,.19,.32,.27,.13,.16,.23,.68,.27,1.58,0,.29,.01,1.17,.01,2.67,0,.48-.01,1.21-.01,2.2-.01,1-.01,1.51-.01,1.54,0,.16-.07,.31-.17,.41-.12,.12-.17,.2-.17,.25,0,.11,.15,.33,.47,.68,.31,.35,.52,.53,.63,.53,.13,0,.27-.09,.37-.25,.16-.24,.27-.39,.32-.44,.8-.69,1.62-1.54,2.43-2.5,.8-.96,1.36-1.75,1.68-2.39,.03-.08,.05-.13,.05-.17,0-.08-.04-.13-.12-.13Z"/><path class="cls-1" d="M179.55,139.08c0,.82-.07,1.36-.17,1.65-.13,.32-.37,.54-.7,.67-.18,.07-.4,.1-.62,.1-.2,0-.36-.07-.49-.18-.13-.11-.18-.25-.18-.43,0-.12,.17-.26,.54-.42,.37-.16,.67-.34,.9-.55,.21-.18,.38-.47,.53-.87l.2,.04Zm.26-8.02h.26v-.46c0-.29-.04-.61-.11-.93,.47,.05,.94,.12,1.38,.2,.26,.03,.41,.09,.41,.22,0,.05-.08,.1-.24,.18-.18,.08-.28,.17-.28,.28v.51h.57s.13-.12,.32-.34c.22-.25,.36-.38,.41-.38,.12,0,.3,.13,.55,.4,.24,.26,.37,.43,.37,.49,0,.13-.05,.2-.15,.2h-2.07v1.13h.83s.13-.12,.32-.33c.22-.25,.36-.38,.41-.38,.11,0,.29,.13,.54,.4,.25,.26,.38,.42,.38,.47,0,.15-.05,.21-.16,.21h-1.54v.92c0,.17,.04,.26,.14,.28,.08,.03,.2,.03,.38,.03,.12,0,.21-.03,.26-.11,.07-.12,.16-.42,.29-.92h.16l.05,.42c0,.2,.09,.37,.3,.51,.17,.13,.26,.25,.26,.36,0,.16-.08,.26-.21,.32-.24,.13-.61,.2-1.12,.2h-.53c-.11,0-.2,0-.28-.01,0,.03,.01,.04,.01,.07,0,.05-.08,.11-.24,.18-.18,.08-.28,.17-.28,.28v.36h.47s.13-.12,.32-.33c.22-.25,.36-.38,.4-.38,.12,0,.3,.13,.55,.4,.25,.26,.38,.42,.38,.47,0,.14-.05,.21-.16,.21h-1.96v1.13c.76-.08,1.5-.16,2.21-.26l.05,.16c-1.41,.66-2.9,1.13-4.48,1.42-.17,.03-.25,.07-.25,.12-.03,.05-.04,.11-.04,.16-.03,.1-.07,.16-.12,.16-.16,0-.33-.26-.53-.79-.07-.13-.16-.37-.29-.71,.78-.03,1.53-.08,2.26-.15v-1.24h-.21c-.75,0-1.28,.03-1.59,.05l-.21-.51c.42,.07,1.01,.09,1.8,.09h.21v-.3c0-.29-.04-.61-.11-.92,.43,.05,.86,.11,1.28,.17-.13-.11-.2-.29-.2-.54v-1.28h-.7c-.05,.41-.13,.72-.25,.94-.13,.24-.28,.43-.45,.59-.18,.18-.43,.33-.72,.46-.38,.17-.8,.32-1.28,.42l-.11-.2c.22-.09,.45-.21,.66-.37,.21-.16,.38-.33,.54-.54,.15-.18,.25-.37,.32-.58,.07-.21,.11-.45,.13-.72-.65,0-1.11,.03-1.38,.05l-.21-.53c.41,.08,1.01,.11,1.8,.11h.67v-1.13h-.26c-.75,0-1.28,.03-1.59,.05l-.21-.51c.42,.08,1.01,.11,1.8,.11Zm2.54,8.77c.22,.29,.34,.57,.34,.8,0,.33-.07,.55-.2,.68-.18,.18-.37,.29-.58,.29-.16,0-.29-.07-.38-.18-.08-.09-.12-.34-.12-.75,0-.45-.08-.97-.21-1.59l.14-.04c.42,.24,.75,.5,1,.79Zm2.65-7.74c0-.28,.01-.57,.01-.87,0-.42-.03-.95-.05-1.59,.37,.05,.72,.12,1.09,.18,.46,.09,.7,.18,.7,.28,0,.1-.11,.18-.32,.26-.18,.08-.29,.16-.29,.25,0,.55-.01,1.05-.01,1.49h.58c.12-.13,.22-.25,.32-.36,.14-.13,.26-.21,.34-.21,.13,0,.36,.12,.65,.36,.29,.21,.43,.4,.43,.53,0,.09-.08,.2-.24,.3-.18,.09-.28,.2-.28,.3v4.07c0,.2,.01,.32,.05,.36,.03,.04,.09,.05,.2,.05l.2-.03c.09,0,.17-.13,.22-.41,.05-.29,.12-.67,.21-1.16l.2,.05,.05,.78c0,.17,.05,.37,.18,.58,.16,.21,.24,.36,.24,.45,0,.26-.13,.46-.38,.57-.29,.15-.59,.21-.92,.21-.58,0-.89-.04-.95-.13-.26-.09-.38-.46-.38-1.11v-4.85h-.74c-.03,1.05-.05,1.78-.1,2.16-.01,.05-.03,.11-.03,.16,.24,.21,.42,.42,.55,.66,.17,.29,.26,.58,.26,.9,0,.14-.05,.26-.16,.37-.11,.13-.22,.18-.36,.18s-.36-.26-.67-.82c-.05,.13-.12,.26-.17,.37-.21,.47-.54,.92-.99,1.33-.42,.4-1.05,.76-1.92,1.13l-.11-.16c.63-.49,1.15-1.04,1.57-1.67,.34-.49,.59-1.11,.76-1.84,.03-.09,.04-.2,.07-.3-.34-.4-.72-.78-1.16-1.12l.05-.16c.45,.15,.86,.3,1.2,.46,.03-.45,.05-1,.08-1.63-.43,0-.79,.01-1.07,.04l-.21-.51c.37,.05,.79,.09,1.28,.11Zm.49,7.74c.26,.32,.4,.58,.4,.8,0,.26-.07,.47-.18,.63-.16,.16-.34,.24-.54,.24-.14,0-.25-.04-.32-.1-.08-.07-.13-.29-.18-.69-.05-.5-.21-1-.47-1.53l.16-.15c.55,.3,.93,.57,1.15,.79Zm3.25,.08c.25,.29,.38,.61,.38,.97,0,.2-.09,.4-.26,.58-.11,.13-.26,.2-.45,.2s-.33-.21-.46-.63c-.17-.59-.46-1.17-.88-1.74l.11-.21c.74,.26,1.26,.54,1.57,.83Z"/><path class="cls-1" d="M196.29,132.6c-.45,1.83-.79,3.25-1.03,4.28-.21,1-.32,1.69-.32,2.05,0,.22,.01,.47,.04,.74,.11,.54,.17,.95,.17,1.26,0,.18-.05,.33-.14,.41-.11,.11-.26,.16-.47,.16-.26,0-.45-.05-.58-.16-.09-.08-.13-.22-.13-.41,0-.17,.03-.42,.08-.76,0-.26,.01-.46,.01-.62,0-.26-.05-.46-.14-.61-.12-.16-.46-.3-1.04-.42l.05-.26c.55,0,.92-.03,1.11-.11,.16-.08,.29-.25,.39-.51l1.75-5.1,.25,.05Zm-1.79,1.25c.26,.24,.41,.5,.41,.8,0,.21-.09,.4-.26,.58-.12,.13-.28,.2-.46,.2-.2,0-.36-.17-.49-.54-.18-.53-.51-1.03-.96-1.51l.11-.21c.79,.21,1.34,.45,1.66,.69Zm.97-3.29c.26,.24,.41,.5,.41,.8,0,.21-.09,.4-.26,.58-.12,.13-.28,.2-.46,.2s-.36-.17-.49-.54c-.18-.53-.5-1.03-.95-1.51l.11-.21c.79,.21,1.33,.45,1.65,.68Zm3.57-.51c.36,.1,.54,.22,.54,.34,0,.13-.11,.21-.32,.24-.21,.03-.33,.08-.36,.13-.09,.21-.18,.42-.29,.61h3.9s.13-.13,.37-.4c.32-.38,.51-.58,.61-.58s.37,.22,.82,.65c.28,.26,.42,.42,.42,.49,0,.15-.09,.21-.26,.21h-6.06c-.16,.26-.33,.49-.51,.68-.05,.07-.09,.12-.13,.16,.36,.16,.71,.33,1.07,.54h3.23c.13-.13,.25-.25,.33-.36,.16-.17,.28-.26,.38-.26,.16,0,.42,.14,.8,.42,.32,.25,.49,.43,.49,.57,0,.05-.08,.15-.24,.25-.17,.11-.26,.21-.28,.32-.03,.61-.05,1.28-.11,2h.05c.05-.16,.13-.33,.24-.51,.12-.24,.22-.36,.33-.36,.08,0,.2,.11,.34,.32,.21,.32,.33,.55,.33,.71,0,.13-.08,.2-.21,.2h-1.11c-.04,.53-.09,1.07-.14,1.63-.05,.43-.11,.82-.16,1.15h.33c.05-.18,.13-.38,.21-.59,.12-.36,.22-.54,.3-.54,.09,0,.24,.2,.42,.59,.2,.37,.3,.59,.3,.7,0,.14-.04,.21-.11,.21h-1.53c-.09,.45-.18,.76-.29,.97-.18,.32-.41,.55-.68,.74-.3,.18-.53,.29-.68,.29-.11,0-.21-.13-.3-.38-.13-.32-.67-.65-1.61-.96l.05-.2c.76,.11,1.32,.16,1.65,.16,.24,0,.41-.11,.51-.32,.03-.07,.07-.17,.09-.3h-4.03l-.07,.46c0,.13-.22,.2-.67,.2-.42,0-.62-.07-.62-.2,.26-1.33,.49-2.53,.65-3.61-.37,.01-.76,.03-1.16,.05l-.21-.51c.63,.08,1.12,.1,1.44,.1,.17-1.21,.28-2.25,.3-3.09-.28,.28-.59,.55-.96,.83l-.16-.16c.43-.65,.76-1.25,1-1.8,.24-.58,.43-1.29,.59-2.11,.39,.12,.79,.22,1.16,.33Zm.15,9.14l.36-2.78h-1.32l-.42,2.78h1.38Zm.41-3.13l.33-2.57h-1.25l-.4,2.57h1.32Zm.67,3.13h1.58c.05-.38,.1-.92,.16-1.61,.03-.4,.07-.78,.09-1.17h-1.48l-.36,2.78Zm.41-3.13h1.45c.05-.88,.08-1.74,.08-2.57h-1.2l-.33,2.57Z"/></svg>